<?xml version="1.0" encoding="UTF-8"?>
<svg id="Capa_2" data-name="Capa 2" xmlns="http://www.w3.org/2000/svg" viewBox="0 0 135.05 135.05">
  <defs>
    <style>
      .cls-1 {
        fill: #a41f25;
      }

      .cls-2 {
        fill: #e8dbca;
      }
    </style>
  </defs>
  <g id="Capa_1-2" data-name="Capa 1">
    <g>
      <circle class="cls-1" cx="67.53" cy="67.53" r="60.79" transform="translate(-27.97 67.53) rotate(-45)"/>
      <path class="cls-2" d="M67.53,6.74c33.57,0,60.79,27.22,60.79,60.79s-27.22,60.79-60.79,60.79S6.74,101.1,6.74,67.53,33.95,6.74,67.53,6.74M67.53,0C30.29,0,0,30.29,0,67.53s30.29,67.53,67.53,67.53,67.53-30.29,67.53-67.53S104.76,0,67.53,0h0Z"/>
      <g>
        <path class="cls-2" d="M30.55,73.43c-.2-.03-.61-.12-.88-.18-.3-.03-.78-.12-1.08-.21-.76-.15-1.48-.32-2.06-.42-.3-.06-.68-.15-.86-.18-.18-.03-.45-.09-.61-.12-.15-.03-.45-.12-.7-.15-.23-.06-.6-.14-.83-.2-.43-.06-1.81-.39-2.57-.59-1.11-.26-1.48-.35-1.84-.44-.18-.03-.63-.12-1.01-.18-.35-.09-.83-.18-1.08-.24-1.13-.19-1.51-.27-2.11-.42-.98-.23-1.21-.32-1.3-.55-.09-.26-.11-2.33-.03-3.85.06-1.11.09-1.31.17-1.44.05-.1.23-.17.36-.17.07,0,.33-.04.61-.11.28-.04.64-.08.79-.1s.41-.04.56-.06c.13,0,.58-.03.96-.05,1.29-.06,1.88-.14,4.12-.51,1.2-.19,1.81-.27,2.82-.39,1.45-.18,2.87-.42,4.28-.76.54-.13,1.84-.35,2.39-.33.18-.05.48-.01.58.02.15.08.17.18.16.46-.11,2.91-.11,2.81-.19,3.01-.06.12-.21.17-.77.23-.48.06-1.32.19-1.78.27-.36.07-.77.33-.91.61-.13.25-.14.35-.17,1.29-.03.84-.03.86.02,1.12.09.36.19.54.33.67.07.05.17.13.25.16.1.05,1.16.29,1.66.38.61.09,1.13.26,1.23.37.1.1.12.28.05.89-.03.28-.07.58-.05.68,0,.15.01,1.16.04,1.24,0,.07,0,.15-.03.2-.08.12-.13.12-.53.03ZM22.79,68.73c.15,0,.36-.07.41-.17.03-.05.03-.1.01-.33,0-.15.02-.58.03-.96.02-.61,0-.68-.03-.74-.07-.1-.2-.16-.37-.16-.23,0-.96.07-1.24.11-.43.09-1.2.22-1.58.26-1.07.14-1.37.21-1.61.33-.23.12-.29.37-.14.58.1.13.22.18.82.33.23.03.65.15.93.21.96.23,2.52.53,2.77.54Z"/>
        <path class="cls-2" d="M20.44,57.84c-1.1-.4-2.7-.95-3.56-1.26-1.43-.52-1.57-.57-1.65-.65-.13-.1-.17-.2-.18-.33,0-.16,1.33-3.75,1.45-3.92.08-.13.24-.29.34-.34.25-.1,1.96-.21,3.25-.2s2.59,0,3.89-.02c1.55-.03,1.57-.02,1.63-.03s-2.97-1.16-5.45-2.06c-2.26-.82-2.21-.8-2.31-1s-.06-.29.33-1.36c.29-.81.37-1.02.47-1.15.2-.33.27-.39.54-.37.13.02.7.23,7.77,2.79l7.62,2.76.17.12c.3.22.35.45.21.99-.16.51-.77,2.36-.99,2.95-.2.47-.23.56-.34.71-.37.49-.57.52-2.13.44-.55-.04-1.31-.1-1.66-.12-.37-.02-1.05-.08-1.49-.11-.45-.03-1.13-.09-1.49-.11-1.5-.11-2.97-.21-3.77-.24-.23-.03-.1.05.74.32.45.16,1.51.52,2.32.81,2.33.79,4.19,1.44,5.17,1.79l.91.33.09.11c.06.07.09.14.09.19.02.22-.61,2.04-.77,2.28-.28.41-.63.39-2.25-.17-.94-.31-6.45-2.28-8.94-3.19Z"/>
        <path class="cls-2" d="M33.39,48.45c-3.74-2.78-8.92-6.56-9.44-6.92-.28-.18-.77-.54-1.09-.78-.55-.41-.62-.49-.68-.57-.06-.14-.07-.24-.02-.39.09-.38.09-.34,2.45-3.51,1.51-2.03,2.29-3.04,2.36-3.14.21-.19.31-.24.47-.21.1.04.17.06.66.43.31.23.62.49.7.58.1.07.45.37.78.61.57.46.59.47.65.61.05.07.06.17.07.21,0,.13-.16.39-.9,1.42-1.42,1.95-1.79,2.49-1.82,2.75-.01.27.06.39.68.82.43.32.48.33.66.21.23-.14.42-.35,1.13-1.31l.65-.87.15-.08c.3-.15.44-.08,1.5.74.82.64,1.02.79,1.12.99.07.12.1.29.05.35-.01.06-.27.4-.55.82-.87,1.25-.97,1.43-.92,1.75.02.14.03.21.16.34.14.2.04.12,3.07,2.37,1.63,1.21,2.56,1.9,2.6,1.93,0,.04.02.11.02.14,0,.09-.04.13-.54.77-.27.37-.59.76-.65.87-.08.1-.24.36-.36.52-.21.28-.24.32-.31.34-.07.01-.13,0-.16,0-.06-.01-.75-.52-2.53-1.82h.02Z"/>
        <path class="cls-2" d="M35.51,31.46c.26.28.69.71.93.94.65.67,3.96,4.28,4.78,5.21.36.43,1.09,1.27,1.62,1.88,1.03,1.12,1.08,1.21,1.12,1.41.03.18-.01.25-.52.75-.58.57-1.05.99-1.27,1.13-.41.27-.62.26-1.04-.12-.33-.28-6.68-7.32-8.14-9.03-.97-1.14-1.72-1.99-2.22-2.53-.7-.8-.7-.73-.1-1.35.22-.21.62-.6.9-.86.56-.55.65-.6.83-.59h.13s.46.49.46.49c.26.28.84.88,1.27,1.34.45.45.99,1.05,1.25,1.33Z"/>
        <path class="cls-2" d="M44.16,27.2c.35.62.76,1.29,1.35,2.2.47.72,1.18,1.83,1.58,2.48.41.61.92,1.4,1.11,1.72.56.87,1.29,2.12,1.42,2.42.26.67.19.95-.37,1.38-.27.23-1.01.68-1.3.83-.42.23-.73.27-1,.11-.17-.08-.43-.36-.61-.66-.09-.15-.34-.56-.58-.89-.71-1.02-3.52-5.66-4.72-7.77-.32-.57-.4-.65-.61-.76-.13-.07-.27-.1-.43-.07-.3.19-1.63.97-1.84.98-.08.02-.21.04-.28.02-.36-.01-.83-.44-1.41-1.28-.81-1.17-1.09-1.83-.98-2.28.06-.19.15-.33.38-.5.25-.22,6.98-4.36,7.31-4.5.34-.18.48-.18.71-.05.13.07.38.48,1.18,1.74.46.76.65,1.06.69,1.18.15.39.16.7.03.93-.09.14-.38.35-1.24.88-.45.28-.71.44-.76.5-.1.12-.16.27-.15.39s.05.18.52.99Z"/>
        <path class="cls-2" d="M51.74,31.36c-.5-1.81-1.03-3.71-1.96-7.13-.69-2.57-1.35-4.94-1.44-5.28q-.17-.61-.14-.7c.07-.12.19-.18.67-.34.67-.24,3.79-1.11,4.32-1.2,1.17-.25,1.63-.27,2.27-.24,1.83.15,3.24,1.36,3.9,3.04.11.31.31,1.02.37,1.34.25,1.48-.05,3.22-1,4.43-.21.27-.3.43-.31.67-.02.22.1.55.32.86.17.24.85,1.08,1.43,1.76.27.32,1.88,2.03,2.26,2.45.69.68.84,1.03.57,1.29-.06.07-.16.1-.71.3-.58.19-1.77.52-2.24.62-.1.03-.32.06-.49.11-.48.08-.67.05-.82-.11-.27-.32-1.1-1.32-2.13-2.64-.79-1.04-.86-1.13-1.26-1.52-.25-.24-.32-.3-.4-.31-.14-.02-.2.03-.22.14-.02.22.07.64.62,2.61.49,1.76.56,2,.56,2.19,0,.31-.01.42-.12.53-.15.12-.79.35-1.6.58-.73.2-.83.23-1.05.19-.12-.05-.34-.17-.39-.26,0-.02-.1-.26-.16-.48-.07-.24-.43-1.56-.81-2.9h-.02ZM53,23.89c.2.42.37.56.67.52.16,0,.69-.17.94-.29.78-.4,1.72-1,1.59-2.02-.06-.4-.29-.76-.63-.96-.5-.28-1.05-.26-2.19.06l-.6.19-.1.11c-.12.14-.16.28-.13.56,0,.29.33,1.56.45,1.82Z"/>
        <path class="cls-2" d="M66.41,19.69c.02.38.08.99.12,1.31.07.93.34,5.81.38,7.05,0,.56.04,1.67.06,2.48.08,1.52.06,1.62-.03,1.8-.09.16-.17.19-.87.25-.81.07-1.44.1-1.7.07-.48-.05-.64-.19-.72-.75-.07-.43-.51-9.89-.55-12.14-.03-1.49-.07-2.63-.11-3.37-.03-1.06-.08-1.01.78-1.11.3-.02.86-.07,1.24-.09.78-.07.89-.05,1.02.07l.11.07.04.68c.02.38.09,1.21.12,1.84.06.63.1,1.44.12,1.82Z"/>
        <path class="cls-2" d="M82.83,25.5c-.3,1.67-.56,2.5-1.17,3.72-.58,1.25-1.29,2.25-2.1,2.97-1.32,1.19-3.61,1.59-5.3,1.26-1.69-.33-3.68-1.36-4.54-2.92-.95-1.76-1.07-4.05-.42-7.12.57-2.65,1.53-5.2,3.88-6.78,1.57-1.06,3.02-1.32,4.86-.96,1.04.2,1.91.68,2.75,1.36,2.24,1.73,2.54,4.16,2.3,6.87-.04.46-.08.66-.26,1.6ZM79.6,24.05c.16-.82.2-1.82.11-2.56-.2-1.36-.62-2.11-1.92-2.7-.34-.12-.96-.24-1.35-.24-.41,0-.79.05-1,.11-1.58.57-2.41,2.94-2.77,4.39-.4,1.52-.37,2.69.07,3.75.37.87,1.14,1.44,2.28,1.66,2.21.43,3.42-.6,4.14-2.7.15-.49.36-1.32.44-1.72ZM78.29,14.59c-.09-.22-.1-.41-.04-.47.03-.04.09-.09.26-.13.19-.04.38-.11.55-.18.34-.17.61-.32.91-.57.15-.1.21-.14.26-.16.05.01.07.04.16.11.21.27.34.51.35.61-.01.07-.05.12-.17.22-.48.47-1.14.81-1.83.91-.08.04-.24.03-.26,0-.07-.01-.13-.13-.19-.35Z"/>
        <path class="cls-2" d="M87.16,24.75c.6-1,1.46-2.46,1.93-3.24.78-1.3.86-1.43.96-1.49.12-.1.23-.13.36-.11.16.04,3.42,2.03,3.57,2.18.12.1.24.29.26.4.05.27-.18,1.96-.44,3.23-.26,1.26-.5,2.54-.73,3.82-.27,1.52-.28,1.54-.29,1.6,0,.06,1.71-2.69,3.07-4.95,1.24-2.06,1.22-2.02,1.42-2.07.21-.05.3,0,1.27.59.74.44.93.56,1.04.68.29.26.32.34.26.6-.04.12-.36.64-4.24,7.08l-4.18,6.94-.15.15c-.27.25-.51.26-1.01.01-.47-.25-2.17-1.22-2.71-1.54-.42-.28-.51-.34-.63-.47-.41-.45-.4-.66-.02-2.17.14-.53.35-1.27.43-1.6.1-.36.28-1.01.4-1.45.11-.43.3-1.09.4-1.45.4-1.44.78-2.87.96-3.65.07-.22-.03-.1-.46.67-.25.41-.8,1.38-1.25,2.12-1.22,2.13-2.22,3.84-2.76,4.72l-.5.82-.13.07c-.08.04-.15.06-.21.05-.22-.02-1.89-.99-2.09-1.2-.35-.36-.26-.69.6-2.18.49-.86,3.49-5.88,4.86-8.16Z"/>
        <path class="cls-2" d="M96.11,45.53c.02-.07,1.26-.81,3.7-2.25,4.57-2.72,7.82-4.59,8.44-4.93.4-.18.68-.34,1.43-.82.95-.62,1.1-.68,1.22-.67.08.04.26.14.37.28.27.31.7.94,1.16,1.7s.91,1.64,1.3,2.44c.5.85,1.15,2.18,1.1,3.14-.05,1.3-1.02,2.35-2.09,2.98-.85.51-1.66.72-2.65.6-.4-.03-.58.02-.61.16-.04.02-.05.21-.06.39-.12,1.63-.98,2.76-2.35,3.63-.25.18-.53.34-.74.44-2.94,1.39-5.69.64-7.62-2.01-.24-.3-.82-1.22-.86-1.35-.06-.14-.75-1.41-1.22-2.25-.34-.62-.57-1.01-.58-1.07-.03-.16-.01-.32.05-.41ZM102.02,45.58c-.19.17-.26.3-.24.49.01.17.06.29.17.49.72,1.22,1.92,2.24,3.36,1.39.41-.24.51-.33.67-.75.15-.35.11-1.21-.07-1.75-.08-.19-.15-.35-.32-.64-.23-.39-.52-.72-1.04-.62-.34.08-.5.15-1.47.7-.81.48-.91.54-1.06.69ZM107.67,42.43c-.07.13-.05.26.03.45s.44.74.56.9c.27.31.68.6,1.09.74.76.29,1.69.02,2.07-.58.1-.18.17-.51.12-.78-.02-.43-.19-.86-.54-1.45-.18-.3-.21-.35-.35-.44-.26-.23-.5-.29-.81-.22-.14.06-.26.1-.55.27-.22.13-.51.28-.68.34-.46.22-.84.53-.96.77Z"/>
        <path class="cls-2" d="M101.83,54.5c.2-.02.62-.04.9-.05.3-.04.79-.08,1.1-.07.77-.05,1.52-.07,2.1-.12.31-.02.69-.03.87-.05.18-.02.46-.03.61-.04.15,0,.47,0,.72-.04.23,0,.62-.01.85-.02.43-.05,1.85-.09,2.63-.09,1.14-.03,1.52-.04,1.89-.05.18-.01.64-.04,1.02-.08.36,0,.85-.04,1.11-.05,1.14-.11,1.53-.12,2.15-.13,1.01-.02,1.25,0,1.4.2.16.22.7,2.23,1.02,3.72.23,1.09.25,1.29.2,1.44-.03.11-.18.22-.31.25-.07.02-.31.12-.56.26-.26.11-.59.24-.74.3s-.38.14-.52.2c-.12.03-.56.18-.92.29-1.24.39-1.78.62-3.85,1.54-1.11.49-1.68.73-2.63,1.1-1.35.55-2.67,1.14-3.94,1.82-.48.27-1.69.81-2.23.93-.16.09-.46.13-.57.13-.16-.04-.21-.13-.27-.4-.63-2.84-.61-2.74-.58-2.96.02-.13.16-.22.68-.42.45-.18,1.23-.52,1.65-.72.33-.15.66-.52.72-.82.07-.27.04-.37-.17-1.29-.19-.81-.19-.84-.3-1.07-.18-.32-.32-.47-.49-.56-.09-.03-.2-.08-.28-.09-.11-.03-1.19.02-1.7.06-.61.06-1.16.04-1.28-.04s-.19-.24-.27-.85c-.04-.28-.08-.58-.13-.67-.03-.15-.31-1.12-.35-1.19-.02-.07-.03-.15-.02-.2.05-.14.09-.15.51-.17ZM110.53,57.06c-.15.03-.33.15-.36.26-.01.06,0,.1.07.32.03.15.13.57.22.94.14.59.18.66.21.7.1.08.23.1.4.06.22-.05.92-.32,1.17-.43.4-.2,1.1-.51,1.46-.65,1-.41,1.27-.56,1.47-.73s.19-.43,0-.6c-.13-.1-.26-.12-.88-.11-.23.03-.67.03-.95.04-.98.02-2.57.13-2.82.18Z"/>
        <path class="cls-2" d="M107.87,66.5c1.87.14,3.84.29,7.38.57,2.65.22,5.1.4,5.45.43q.63.05.7.1c.09.11.11.24.1.74,0,.71-.24,3.94-.33,4.47-.16,1.18-.3,1.63-.55,2.22-.76,1.67-2.38,2.59-4.18,2.64-.33,0-1.06-.05-1.39-.1-1.48-.26-3.02-1.14-3.83-2.44-.18-.29-.3-.43-.52-.52-.2-.09-.55-.09-.91,0-.29.08-1.3.44-2.14.76-.39.15-2.54,1.08-3.07,1.3-.87.42-1.25.44-1.41.1-.04-.08-.04-.18-.04-.77.02-.61.11-1.85.17-2.32,0-.1.05-.33.06-.5.09-.48.17-.65.38-.73.39-.15,1.62-.59,3.21-1.11,1.25-.39,1.35-.43,1.85-.67.32-.16.4-.2.43-.27.06-.12.04-.2-.06-.26-.2-.09-.62-.15-2.67-.3-1.82-.13-2.07-.15-2.24-.22-.3-.1-.39-.16-.46-.29-.06-.18-.06-.87,0-1.7.06-.76.06-.86.18-1.05.08-.1.27-.26.38-.28.02,0,.28,0,.51.01.25.02,1.62.12,3.01.22v-.03ZM114.48,70.22c-.46.04-.65.16-.72.45-.06.15-.08.71-.05.99.11.87.36,1.96,1.36,2.18.4.08.81-.02,1.11-.27.43-.37.6-.9.69-2.08l.02-.63-.07-.13c-.09-.16-.21-.24-.48-.32-.27-.1-1.58-.22-1.87-.19Z"/>
        <path class="cls-2" d="M106.72,78.55c1.75.68,3.59,1.4,6.88,2.71,2.47.99,4.76,1.88,5.09,2.01q.59.23.64.3c.06.13.04.26-.12.74-.21.68-1.39,3.7-1.63,4.18-.5,1.08-.76,1.47-1.17,1.96-1.21,1.37-3.03,1.78-4.77,1.29-.32-.1-1-.36-1.3-.51-1.34-.68-2.55-1.97-2.95-3.46-.09-.33-.16-.5-.34-.65-.16-.14-.5-.25-.88-.26-.3,0-1.37.04-2.27.1-.42.03-2.75.29-3.31.34-.95.14-1.32.05-1.37-.32-.02-.09.02-.18.18-.74.2-.57.65-1.73.84-2.17.04-.09.14-.3.21-.46.22-.43.36-.57.58-.59.42-.03,1.72-.09,3.39-.12,1.31,0,1.42-.02,1.97-.1.35-.06.44-.07.49-.14.09-.1.1-.18.02-.26-.16-.14-.55-.32-2.47-1.07-1.7-.66-1.93-.75-2.08-.86-.26-.18-.33-.27-.36-.41,0-.19.19-.85.5-1.63.28-.71.31-.8.48-.95.11-.07.34-.17.44-.16.02,0,.27.08.48.16.24.09,1.51.59,2.81,1.09v-.02ZM111.95,84.04c-.45-.09-.66-.04-.82.22-.1.12-.28.65-.34.93-.15.87-.23,1.98.66,2.49.36.19.78.22,1.14.06.52-.23.84-.68,1.27-1.79l.21-.6-.02-.14c-.04-.18-.13-.3-.37-.44-.23-.17-1.45-.67-1.73-.73Z"/>
        <path class="cls-2" d="M99.15,88.03c.14.15.41.46.6.67.22.21.55.57.74.82.52.57,1,1.15,1.41,1.57.21.23.46.52.58.65.12.13.31.34.41.46.1.11.29.36.48.54.15.18.4.48.54.66.31.31,1.22,1.39,1.71,2,.73.87.98,1.17,1.21,1.45.12.13.43.47.7.75.23.28.56.64.73.84.8.83,1.05,1.12,1.45,1.6.65.77.78.97.72,1.22-.08.26-1.31,1.94-2.27,3.11-.71.86-.86,1-1,1.05-.1.05-.29,0-.39-.08-.06-.05-.29-.17-.55-.28-.25-.13-.56-.31-.69-.39-.13-.07-.35-.21-.48-.29-.1-.08-.49-.32-.8-.54-1.07-.72-1.59-1.01-3.61-2.06-1.07-.56-1.61-.86-2.5-1.37-1.27-.72-2.56-1.38-3.88-1.95-.51-.21-1.68-.82-2.12-1.16-.17-.07-.39-.28-.46-.36-.07-.15-.03-.25.14-.47,1.83-2.27,1.77-2.19,1.95-2.3.12-.07.27-.01.75.27.42.24,1.17.64,1.59.84.32.16.82.19,1.09.06.26-.12.32-.2.9-.93.52-.65.54-.67.65-.9.14-.34.17-.54.13-.74-.03-.09-.06-.21-.1-.28-.05-.1-.76-.92-1.1-1.3-.43-.44-.75-.89-.77-1.03-.02-.14.07-.3.49-.74.19-.2.4-.42.44-.52.09-.12.69-.94.71-1.02.05-.06.09-.12.14-.14.14-.05.18-.02.45.29ZM102.56,96.43c-.12-.09-.32-.16-.43-.11-.05.02-.08.06-.21.26-.09.12-.36.46-.6.75-.38.48-.41.55-.42.61,0,.13.06.24.2.36.18.14.82.52,1.07.65.4.19,1.09.54,1.42.74.94.52,1.23.65,1.49.69.26.04.46-.12.46-.38,0-.16-.07-.28-.47-.76-.16-.16-.44-.51-.62-.72-.63-.76-1.7-1.93-1.9-2.09Z"/>
        <path class="cls-2" d="M86.75,99.98c.07.11,2.45,5.34,3.96,8.69.8,1.78,2.38,5.43,2.6,6.03.22.54.23.64.14.8-.22.49-1.82,1.26-2.4,1.52-1.34.6-3.28,1.22-4.7,1.17-3.15-.28-4.79-2.43-6.15-5.1-.36-.75-.8-1.72-.98-2.31-.61-1.92-1.21-3.98-.58-5.99.38-1.2.99-1.94,2.18-2.76.17-.11.41-.27.52-.32.21-.09,2.79-1.28,2.97-1.36.1-.02,1.11-.39,1.24-.45.71-.27.97-.24,1.2.07ZM86.15,106.42c-.36-.42-.75-.55-1.23-.45-.24.08-.99.45-1.3.64-.72.49-1.08.93-1.32,1.62-.22.63-.11,1.19.52,2.65.59,1.37,1.04,2.2,1.63,2.88,1.09,1.37,2.57,1.21,4.06.62.44-.2.46-.21.55-.33.14-.17.21-.34.21-.51v-.17s-.41-.98-.41-.98c-.24-.53-.92-2.06-1.5-3.41-1.04-2.31-1.1-2.45-1.21-2.57Z"/>
        <path class="cls-2" d="M77.28,110.79c.2,1.15.42,2.88.73,5.27.56,4.35.64,5.15.51,5.37-.11.17.04.12-2.84.54-2.96.41-3.24.44-4.82.62-1.06.14-1.13.14-1.19.1-.14-.08-.17-.16-.26-.63-.08-.42-.25-1.96-.26-2.44,0-.23.03-.39.12-.45.09-.09.32-.12,2.56-.36,1.66-.19,2.06-.24,2.55-.4.56-.2.61-.44.42-1.69-.16-1.05-.29-1.29-.71-1.36-.16-.03-.36,0-2.17.23-1.94.25-2.01.26-2.12.22-.08-.01-.14-.06-.2-.15-.06-.09-.07-.14-.12-.57-.03-.25-.06-.63-.08-.83,0-.2-.03-.63-.07-.94-.06-.66-.03-.81.19-.94.12-.09.69-.22,1.74-.38,2.05-.34,2.3-.4,2.53-.58.14-.09.19-.28.21-.54.05-.24-.13-1.41-.21-1.63-.14-.29-.38-.41-.85-.45-.39-.03-1.34.07-2.17.23-.47.09-.92.17-1.55.25-.83.08-.88.09-.99.05-.11-.04-.22-.15-.27-.3-.04-.1-.07-.17-.31-1.65-.19-1.25-.2-1.76-.05-1.96.15-.2.33-.25,1.55-.43,2.05-.31,2.73-.4,3.41-.46.36-.02,1.14-.1,1.72-.17,1.41-.18,1.76-.2,1.99-.03.17.13.16.08.48,2.52.16,1.23.41,2.99.53,3.94Z"/>
        <path class="cls-2" d="M60.02,107.39c.07.56.08.86.06,1.31-.06,1.19-.26,2.08-.83,3.68-.84,2.28-2.09,4.83-4.19,6.19-1.71,1.15-4.17,1.14-6.06.49-1.34-.46-3.21-1.42-3.44-2.92-.04-.28.04-.42.37-.62.27-.17,1.2-.93,1.67-1.36.16-.16.34-.29.4-.32.15-.05.22,0,.37.24.46.77,1.21,1.38,2.05,1.67,2.56.72,4.48-1.35,5.25-3.6.18-.45.24-.61.26-.85.26-1.54-.47-3.16-1.87-3.91-.29-.18-.36-.2-.93-.4-.79-.27-1.85-.45-2.69-.44-.34-.01-.42-.04-.5-.17-.06-.13-.06-.29,0-.7.04-.36.17-1.5.19-1.94,0-.22.03-.47.04-.6,0-.1.04-.34.03-.47.03-.18.05-.3.07-.35.17-.26,1.38-.52,2.45-.5.97-.01,1.93.15,2.81.46,2.39.82,4.13,2.54,4.45,5.12h.02Z"/>
        <path class="cls-2" d="M50.13,101.75c-.15.14-.46.41-.67.6-.21.22-.57.55-.82.74-.57.52-1.15.99-1.57,1.4-.23.21-.53.46-.66.58-.13.12-.34.31-.46.41s-.36.29-.54.48c-.18.15-.48.4-.66.54-.31.31-1.39,1.22-2.01,1.7-.87.73-1.17.98-1.45,1.21-.13.12-.47.43-.75.7-.28.23-.64.56-.84.73-.83.8-1.13,1.05-1.6,1.44-.78.65-.98.78-1.22.71-.26-.08-1.93-1.31-3.11-2.28-.85-.71-1-.86-1.05-1-.05-.1,0-.29.08-.39.05-.06.17-.29.28-.55.13-.25.31-.56.39-.69.08-.13.21-.35.29-.48.08-.1.32-.49.54-.8.73-1.07,1.01-1.59,2.06-3.6.56-1.07.86-1.61,1.38-2.5.72-1.27,1.39-2.55,1.96-3.88.21-.51.82-1.68,1.17-2.11.07-.17.28-.39.36-.46.15-.07.25-.03.47.15,2.26,1.84,2.18,1.77,2.29,1.96.07.12.01.27-.27.75-.24.42-.64,1.17-.85,1.59-.16.33-.2.82-.06,1.09.12.26.2.32.93.9.65.52.67.54.9.65.34.14.54.17.74.13.09-.03.21-.06.28-.1.1-.05.92-.75,1.3-1.1.44-.43.89-.75,1.03-.77.14-.02.3.07.74.49.2.19.42.4.52.45.12.1.94.69,1.02.71.06.05.12.1.14.15.05.14.02.18-.29.45ZM41.71,105.15c.1-.12.16-.32.11-.43-.02-.05-.06-.08-.26-.2-.12-.1-.46-.36-.75-.6-.48-.38-.55-.41-.61-.42-.13,0-.25.06-.36.2-.14.18-.52.81-.66,1.07-.19.4-.54,1.09-.74,1.42-.52.94-.65,1.23-.7,1.48-.04.26.12.45.38.46.16,0,.28-.07.76-.46.16-.16.51-.44.72-.62.76-.63,1.94-1.7,2.09-1.89Z"/>
        <path class="cls-2" d="M37.97,95.4c-3.67,2.87-8.68,6.87-9.17,7.28-.24.22-.72.6-1.04.85-.54.42-.63.46-.73.51-.15.02-.25,0-.39-.08-.34-.19-.3-.18-2.74-3.29-1.56-1.99-2.32-3.01-2.4-3.11-.13-.25-.15-.36-.08-.52.06-.08.11-.15.59-.52.3-.23.63-.46.75-.52.1-.08.47-.34.79-.59.59-.43.61-.45.76-.47.07-.03.18-.01.22-.01.12.03.33.26,1.13,1.24,1.5,1.88,1.93,2.38,2.17,2.48.26.09.39.05.97-.44.42-.33.44-.38.38-.59-.08-.26-.23-.5-.96-1.43l-.67-.86-.03-.17c-.07-.33.04-.45,1.11-1.26.83-.62,1.03-.78,1.26-.82.13-.04.31-.02.36.04.05.02.32.36.65.75.98,1.17,1.12,1.31,1.44,1.35.14.02.21.03.37-.06.23-.08.13,0,3.1-2.33,1.59-1.25,2.51-1.97,2.55-2,.04,0,.11.01.14.02.09.03.12.07.6.72.28.36.57.77.67.86.08.1.29.32.41.48.22.28.25.32.24.39,0,.07-.03.12-.04.16-.02.05-.7.58-2.42,1.96h.02Z"/>
        <path class="cls-2" d="M17.09,91.01c-.14.2-.28.31-.37.3-.06,0-.12-.03-.25-.14-.14-.13-.3-.26-.46-.36-.33-.19-.61-.32-.99-.43-.16-.04-.23-.09-.28-.13-.02-.05,0-.08,0-.19.11-.32.22-.57.31-.63.07-.03.13-.03.28.02.66.13,1.31.48,1.78,1,.08.05.16.18.15.21.03.07-.03.18-.18.35ZM21.55,89.04c.32.49.56.47,1.72-.05.97-.44,1.16-.64,1.12-1.06-.01-.16-.09-.35-.81-2.02-.77-1.79-.8-1.86-.79-1.97.02-.09.04-.16.09-.23.07-.09.12-.11.52-.28.23-.1.59-.23.78-.31.22-.07.6-.2.88-.32.61-.24.77-.25.96-.08.12.09.4.6.87,1.58.87,1.89.99,2.11,1.22,2.26.15.1.32.11.59.08.25-.05,1.34-.55,1.5-.67.24-.21.31-.49.2-.94-.08-.38-.44-1.27-.81-2.02-.2-.41-.42-.84-.64-1.43-.33-.77-.35-.81-.34-.93s.08-.26.21-.34c.08-.06.14-.12,1.51-.73,1.17-.56,1.63-.7,1.86-.61.23.09.33.25.84,1.38.87,1.89,1.14,2.52,1.39,3.16.12.34.4,1.07.63,1.6.56,1.3.68,1.64.57,1.91-.08.2-.03.18-2.29,1.15-1.14.49-2.76,1.21-3.64,1.59-1.03.5-2.66,1.2-4.87,2.15-4.03,1.73-4.78,2.03-5.03,1.97-.19-.06-.11.07-1.3-2.58-1.21-2.74-1.31-2.99-1.92-4.47-.42-.98-.45-1.05-.42-1.11.04-.16.1-.21.56-.43.36-.18,1.79-.77,2.25-.91.22-.07.38-.08.47,0,.11.06.2.27,1.04,2.36.64,1.55.8,1.92,1.09,2.34h.02Z"/>
      </g>
      <g>
        <path class="cls-2" d="M46.89,70.99c-.11-.02-.34-.07-.49-.1-.17-.02-.44-.07-.6-.12-.42-.08-.83-.18-1.15-.23-.17-.03-.38-.08-.48-.1-.1-.02-.25-.05-.34-.07-.08-.02-.25-.06-.39-.08-.13-.03-.34-.08-.46-.11-.24-.04-1.01-.22-1.43-.33-.62-.15-.83-.2-1.02-.24-.1-.02-.35-.07-.56-.1-.2-.05-.46-.1-.6-.13-.63-.1-.84-.15-1.18-.23-.55-.13-.67-.18-.73-.3-.05-.14-.06-1.3-.02-2.15.03-.62.05-.73.1-.8.03-.06.13-.09.2-.09.04,0,.18-.02.34-.06.16-.02.35-.05.44-.06s.23-.02.31-.03c.07,0,.33-.02.54-.03.72-.03,1.05-.08,2.3-.28.67-.11,1.01-.15,1.58-.22.81-.1,1.6-.23,2.39-.42.3-.07,1.02-.19,1.34-.18.1-.03.27,0,.32,0,.08.04.1.1.09.26-.06,1.62-.06,1.57-.11,1.68-.03.07-.12.1-.43.13-.27.03-.74.1-1,.15-.2.04-.43.19-.51.34-.07.14-.08.2-.09.72-.01.47-.01.48,0,.62.05.2.1.3.19.37.04.03.1.07.14.09.06.03.65.16.93.21.34.05.63.15.69.2.06.06.07.16.03.5-.02.15-.04.32-.03.38,0,.08,0,.65.02.69,0,.04,0,.08-.02.11-.04.07-.07.07-.3.02ZM42.56,68.37c.08,0,.2-.04.23-.09.01-.03.02-.06,0-.18,0-.08,0-.32.02-.54.01-.34,0-.38-.02-.41-.04-.06-.11-.09-.21-.09-.13,0-.54.04-.69.06-.24.05-.67.12-.88.14-.6.08-.77.12-.9.19-.13.07-.16.21-.08.32.05.07.12.1.46.18.13.02.36.08.52.12.53.13,1.4.3,1.55.3Z"/>
        <path class="cls-2" d="M41.24,62.29c-.61-.22-1.51-.53-1.99-.7-.8-.29-.88-.32-.92-.36-.07-.06-.1-.11-.1-.19,0-.09.74-2.09.81-2.19.04-.07.13-.16.19-.19.14-.06,1.09-.11,1.81-.11s1.44,0,2.17-.01c.86-.02.88-.01.91-.02s-1.66-.65-3.04-1.15c-1.26-.46-1.24-.45-1.29-.56s-.03-.16.19-.76c.16-.45.21-.57.26-.64.11-.19.15-.22.3-.21.07.01.39.13,4.34,1.56l4.25,1.54.1.06c.17.12.19.25.12.55-.09.28-.43,1.32-.55,1.65-.11.26-.13.31-.19.4-.2.27-.32.29-1.19.25-.31-.02-.73-.06-.92-.06-.2-.01-.58-.05-.83-.06-.25-.02-.63-.05-.83-.06-.83-.06-1.66-.12-2.1-.13-.13-.02-.05.03.42.18.25.09.84.29,1.29.45,1.3.44,2.34.8,2.88,1l.51.18.05.06s.05.08.05.11c.01.13-.34,1.14-.43,1.27-.16.23-.35.22-1.26-.1-.52-.17-3.6-1.27-4.99-1.78Z"/>
        <path class="cls-2" d="M48.47,57.04c-2.09-1.55-4.98-3.66-5.27-3.86-.16-.1-.43-.3-.61-.44-.31-.23-.34-.27-.38-.32-.03-.08-.04-.14-.01-.22.05-.21.05-.19,1.37-1.96.84-1.14,1.28-1.69,1.32-1.75.12-.11.17-.14.27-.12.05.02.1.04.37.24.17.13.34.27.39.33.06.04.25.21.43.34.32.26.33.26.36.34.03.04.03.1.04.12,0,.07-.09.22-.5.79-.79,1.09-1,1.39-1.02,1.53,0,.15.03.22.38.46.24.18.27.18.37.12.13-.08.23-.2.63-.73l.36-.49.08-.04c.17-.09.25-.05.84.41.46.36.57.44.63.55.04.06.05.16.03.2,0,.03-.15.22-.31.46-.48.7-.54.8-.51.98.01.08.02.12.09.19.08.11.02.07,1.71,1.32.91.67,1.43,1.06,1.45,1.08,0,.02,0,.06.01.08,0,.05-.02.07-.3.43-.15.2-.33.42-.36.49-.04.06-.13.2-.2.29-.12.16-.14.18-.17.19-.04,0-.07,0-.09,0-.03,0-.42-.29-1.41-1.01h.01Z"/>
        <path class="cls-2" d="M49.65,47.56c.14.16.38.4.52.52.36.38,2.21,2.39,2.67,2.91.2.24.61.71.91,1.05.57.63.6.68.63.79.02.1,0,.14-.29.42-.32.32-.58.56-.71.63-.23.15-.35.14-.58-.07-.18-.16-3.73-4.08-4.55-5.04-.54-.63-.96-1.11-1.24-1.41-.39-.45-.39-.41-.06-.75.12-.11.34-.34.5-.48.31-.31.36-.33.46-.33h.07s.26.27.26.27c.14.16.47.49.71.75.25.25.56.58.7.74Z"/>
        <path class="cls-2" d="M54.49,45.18c.19.35.42.72.75,1.23.26.4.66,1.02.88,1.38.23.34.51.78.62.96.31.49.72,1.18.79,1.35.15.37.11.53-.21.77-.15.13-.56.38-.73.46-.24.13-.41.15-.56.06-.09-.04-.24-.2-.34-.37-.05-.08-.19-.31-.32-.5-.4-.57-1.96-3.16-2.64-4.34-.18-.32-.22-.36-.34-.42-.07-.04-.15-.06-.24-.04-.17.1-.91.54-1.03.54-.04.01-.12.02-.16.01-.2,0-.46-.25-.78-.71-.45-.65-.61-1.02-.55-1.27.04-.11.09-.19.21-.28.14-.12,3.9-2.43,4.08-2.51.19-.1.27-.1.4-.03.07.04.21.27.66.97.26.42.36.59.39.66.08.22.09.39.02.52-.05.08-.21.2-.69.49-.25.15-.4.24-.43.28-.06.07-.09.15-.08.22s.03.1.29.55Z"/>
        <path class="cls-2" d="M58.71,47.51c-.28-1.01-.58-2.07-1.09-3.98-.38-1.43-.75-2.76-.8-2.95q-.09-.34-.08-.39c.04-.07.1-.1.37-.19.37-.13,2.12-.62,2.41-.67.65-.14.91-.15,1.27-.13,1.02.08,1.81.76,2.17,1.7.06.17.17.57.21.75.14.83-.03,1.8-.56,2.47-.12.15-.17.24-.18.37-.01.12.06.31.18.48.1.14.48.6.8.98.15.18,1.05,1.13,1.26,1.37.38.38.47.57.32.72-.03.04-.09.05-.39.17-.32.1-.99.29-1.25.35-.05.02-.18.04-.28.06-.27.04-.37.03-.46-.06-.15-.18-.62-.74-1.19-1.47-.44-.58-.48-.63-.7-.85-.14-.14-.18-.17-.22-.17-.08,0-.11.02-.12.08-.01.12.04.36.35,1.46.27.98.31,1.12.31,1.22,0,.17,0,.24-.06.3-.08.07-.44.2-.89.32-.41.11-.46.13-.59.1-.07-.03-.19-.09-.22-.15,0-.01-.06-.15-.09-.27-.04-.14-.24-.87-.45-1.62h-.01ZM59.42,43.34c.11.23.2.31.38.29.09,0,.38-.09.53-.16.44-.22.96-.56.89-1.13-.03-.23-.16-.42-.35-.53-.28-.16-.58-.15-1.22.03l-.34.11-.06.06c-.07.08-.09.16-.07.31,0,.16.18.87.25,1.01Z"/>
        <path class="cls-2" d="M66.9,40.99c.01.21.04.55.07.73.04.52.19,3.25.21,3.94,0,.31.02.93.03,1.39.05.85.03.9-.02,1.01-.05.09-.09.1-.49.14-.45.04-.8.06-.95.04-.27-.03-.36-.11-.4-.42-.04-.24-.28-5.52-.31-6.78-.02-.83-.04-1.47-.06-1.88-.02-.59-.04-.56.43-.62.17,0,.48-.04.69-.05.44-.04.49-.03.57.04l.06.04.02.38c.01.21.05.68.07,1.03.03.35.06.8.07,1.01Z"/>
        <path class="cls-2" d="M76.07,44.24c-.17.93-.32,1.39-.65,2.08-.32.7-.72,1.26-1.17,1.66-.73.66-2.02.89-2.96.7-.94-.18-2.05-.76-2.53-1.63-.53-.98-.6-2.26-.23-3.98.32-1.48.85-2.9,2.16-3.78.88-.59,1.69-.74,2.71-.54.58.11,1.06.38,1.54.76,1.25.96,1.42,2.32,1.28,3.84-.02.25-.04.37-.15.89ZM74.27,43.42c.09-.46.11-1.01.06-1.43-.11-.76-.35-1.18-1.07-1.51-.19-.07-.54-.13-.75-.13-.23,0-.44.03-.56.06-.88.32-1.34,1.64-1.54,2.45-.22.85-.21,1.5.04,2.1.21.49.64.8,1.27.93,1.23.24,1.91-.33,2.31-1.51.08-.27.2-.74.25-.96ZM73.54,38.14c-.05-.12-.06-.23-.02-.26.02-.02.05-.05.14-.07.11-.02.21-.06.31-.1.19-.09.34-.18.51-.32.08-.06.12-.08.15-.09.03,0,.04.02.09.06.11.15.19.28.19.34,0,.04-.03.07-.1.12-.27.27-.64.45-1.02.51-.05.02-.13.02-.14,0-.04,0-.07-.07-.11-.19Z"/>
        <path class="cls-2" d="M78.48,43.81c.34-.56.81-1.37,1.08-1.81.44-.73.48-.8.54-.83.07-.06.13-.07.2-.06.09.02,1.91,1.13,1.99,1.22.07.06.13.16.15.22.03.15-.1,1.1-.24,1.8-.14.7-.28,1.42-.41,2.13-.15.85-.16.86-.16.89,0,.03.96-1.5,1.71-2.76.69-1.15.68-1.13.8-1.16.12-.03.17,0,.71.33.41.25.52.31.58.38.16.15.18.19.14.33-.02.07-.2.36-2.37,3.95l-2.34,3.87-.08.08c-.15.14-.28.14-.56,0-.26-.14-1.21-.68-1.51-.86-.23-.16-.28-.19-.35-.26-.23-.25-.22-.37-.01-1.21.08-.3.2-.71.24-.89.05-.2.16-.56.22-.81.06-.24.17-.61.22-.81.22-.81.44-1.6.54-2.04.04-.12-.01-.06-.26.37-.14.23-.45.77-.7,1.18-.68,1.19-1.24,2.14-1.54,2.64l-.28.46-.07.04s-.09.03-.12.03c-.13,0-1.05-.55-1.16-.67-.19-.2-.15-.39.34-1.22.27-.48,1.95-3.28,2.71-4.55Z"/>
        <path class="cls-2" d="M83.48,55.41s.7-.45,2.06-1.26c2.55-1.52,4.37-2.56,4.71-2.75.22-.1.38-.19.8-.46.53-.35.61-.38.68-.37.05.02.14.08.21.16.15.17.39.52.65.95s.51.91.73,1.36c.28.47.64,1.22.62,1.76-.03.72-.57,1.31-1.17,1.66-.47.28-.93.4-1.48.34-.22-.02-.32.01-.34.09-.02.01-.03.12-.04.22-.07.91-.55,1.54-1.31,2.03-.14.1-.3.19-.41.25-1.64.78-3.17.36-4.25-1.12-.13-.17-.46-.68-.48-.75-.03-.08-.42-.79-.68-1.26-.19-.35-.32-.57-.32-.6-.02-.09,0-.18.03-.23ZM86.78,55.44c-.11.1-.15.17-.13.28,0,.09.03.16.1.27.4.68,1.07,1.25,1.88.78.23-.14.28-.19.37-.42.08-.2.06-.68-.04-.98-.05-.11-.08-.2-.18-.35-.13-.22-.29-.4-.58-.34-.19.04-.28.08-.82.39-.45.27-.51.3-.59.38ZM89.93,53.69c-.04.07-.03.15.02.25s.25.41.32.5c.15.17.38.33.61.41.42.16.95.01,1.16-.32.06-.1.09-.29.07-.44-.01-.24-.1-.48-.3-.81-.1-.17-.12-.19-.2-.25-.14-.13-.28-.16-.45-.13-.08.03-.15.06-.31.15-.12.07-.29.15-.38.19-.26.12-.47.29-.53.43Z"/>
        <path class="cls-2" d="M86.67,60.42c.11-.01.34-.02.5-.03.17-.02.44-.04.61-.04.43-.03.85-.04,1.17-.07.17-.01.39-.02.49-.03.1,0,.26-.02.34-.02.09,0,.26,0,.4-.02.13,0,.35,0,.48,0,.24-.03,1.03-.05,1.47-.05.63-.02.85-.02,1.05-.03.1,0,.36-.02.57-.04.2,0,.47-.02.62-.03.64-.06.85-.07,1.2-.07.56-.01.7,0,.78.11.09.12.39,1.24.57,2.07.13.61.14.72.11.8-.01.06-.1.12-.17.14-.04,0-.17.07-.31.15-.15.06-.33.13-.41.17s-.21.08-.29.11c-.07.02-.31.1-.51.16-.69.22-.99.35-2.15.86-.62.27-.94.41-1.47.62-.76.31-1.49.64-2.2,1.02-.27.15-.94.45-1.24.52-.09.05-.26.07-.32.07-.09-.02-.12-.07-.15-.23-.35-1.59-.34-1.53-.32-1.65.01-.07.09-.12.38-.23.25-.1.69-.29.92-.4.18-.09.37-.29.4-.46.04-.15.02-.21-.09-.72-.11-.45-.11-.47-.17-.6-.1-.18-.18-.26-.28-.31-.05-.02-.11-.05-.16-.05-.06-.01-.67,0-.95.03-.34.04-.65.02-.72-.02s-.1-.14-.15-.47c-.02-.15-.05-.32-.07-.38-.02-.08-.17-.63-.2-.67,0-.04-.02-.08-.01-.11.03-.08.05-.08.28-.09ZM91.53,61.85c-.08.02-.18.09-.2.15,0,.03,0,.06.04.18.02.08.07.32.12.52.08.33.1.37.12.39.05.05.13.06.23.04.12-.03.51-.18.66-.24.22-.11.62-.29.82-.36.56-.23.71-.31.82-.41s.1-.24,0-.33c-.07-.06-.15-.07-.49-.06-.13.02-.37.01-.53.02-.55.01-1.43.07-1.57.1Z"/>
        <path class="cls-2" d="M90.04,67.12c1.04.08,2.14.16,4.12.32,1.48.12,2.85.22,3.04.24q.35.03.39.06c.05.06.06.13.05.42,0,.4-.13,2.2-.18,2.5-.09.66-.17.91-.3,1.24-.42.93-1.33,1.45-2.34,1.47-.18,0-.59-.03-.78-.06-.83-.15-1.68-.64-2.14-1.36-.1-.16-.17-.24-.29-.29-.11-.05-.31-.05-.51,0-.16.04-.73.24-1.19.42-.22.08-1.42.6-1.71.72-.49.23-.7.25-.78.06-.02-.04-.02-.1-.02-.43.01-.34.06-1.03.1-1.3,0-.06.03-.18.04-.28.05-.27.1-.36.21-.41.22-.08.9-.33,1.79-.62.7-.22.76-.24,1.03-.38.18-.09.22-.11.24-.15.03-.07.02-.11-.03-.14-.11-.05-.35-.08-1.49-.17-1.01-.07-1.16-.09-1.25-.12-.17-.05-.22-.09-.26-.16-.03-.1-.03-.48,0-.95.03-.42.04-.48.1-.59.05-.05.15-.14.21-.15.01,0,.16,0,.28,0,.14.01.9.07,1.68.12h0ZM93.73,69.19c-.26.02-.36.09-.4.25-.03.08-.04.39-.03.55.06.49.2,1.09.76,1.22.22.04.45,0,.62-.15.24-.21.33-.5.38-1.16v-.35s-.02-.07-.02-.07c-.05-.09-.12-.14-.27-.18-.15-.05-.88-.12-1.04-.11Z"/>
        <path class="cls-2" d="M89.4,73.85c.97.38,2,.78,3.84,1.51,1.38.55,2.66,1.05,2.84,1.12q.33.13.36.17c.03.07.02.14-.07.41-.12.38-.77,2.07-.91,2.33-.28.6-.43.82-.65,1.1-.68.77-1.69,1-2.66.72-.18-.05-.56-.2-.72-.28-.75-.38-1.42-1.1-1.64-1.93-.05-.19-.09-.28-.19-.36-.09-.08-.28-.14-.49-.15-.17,0-.77.02-1.26.05-.23.02-1.53.16-1.85.19-.53.08-.74.03-.77-.18-.01-.05,0-.1.1-.42.11-.32.36-.97.47-1.21.02-.05.08-.17.12-.26.12-.24.2-.32.33-.33.23-.02.96-.05,1.89-.07.73,0,.79,0,1.1-.06.19-.03.24-.04.27-.08.05-.06.05-.1.01-.15-.09-.08-.31-.18-1.38-.6-.95-.37-1.08-.42-1.16-.48-.14-.1-.19-.15-.2-.23,0-.11.11-.47.28-.91.15-.4.17-.45.27-.53.06-.04.19-.09.25-.09.01,0,.15.04.27.09.13.05.84.33,1.57.61h0ZM92.32,76.91c-.25-.05-.37-.02-.46.12-.06.07-.16.36-.19.52-.08.48-.13,1.1.37,1.39.2.11.44.12.64.04.29-.13.47-.38.71-1l.12-.33v-.08c-.04-.1-.09-.17-.22-.25-.13-.1-.81-.38-.96-.41Z"/>
        <path class="cls-2" d="M85.17,79.13c.08.08.23.25.33.37.12.12.31.32.41.46.29.32.56.64.79.88.12.13.26.29.32.36.07.07.17.19.23.26.06.06.16.2.27.3.08.1.22.27.3.37.17.17.68.78.95,1.12.41.49.55.65.68.81.07.07.24.26.39.42.13.16.31.36.41.47.45.46.59.63.81.89.36.43.43.54.4.68-.04.15-.73,1.08-1.27,1.74-.4.48-.48.56-.56.59-.06.03-.16,0-.22-.05-.03-.03-.16-.09-.31-.16-.14-.07-.31-.18-.39-.22-.07-.04-.19-.12-.27-.16-.06-.04-.27-.18-.45-.3-.6-.4-.89-.56-2.01-1.15-.6-.31-.9-.48-1.4-.77-.71-.4-1.43-.77-2.17-1.09-.29-.12-.94-.46-1.18-.65-.09-.04-.22-.16-.25-.2-.04-.09-.02-.14.08-.26,1.02-1.26.99-1.22,1.09-1.28.07-.04.15,0,.42.15.24.13.66.36.89.47.18.09.46.11.61.03.14-.07.18-.11.5-.52.29-.36.3-.38.36-.5.08-.19.1-.3.07-.41-.02-.05-.03-.12-.06-.15-.03-.06-.42-.51-.62-.72-.24-.24-.42-.49-.43-.57,0-.08.04-.17.27-.41.11-.11.22-.24.25-.29.05-.07.38-.53.4-.57.03-.03.05-.07.08-.08.08-.03.1-.01.25.16ZM87.08,83.83c-.07-.05-.18-.09-.24-.06-.03.01-.05.04-.11.14-.05.07-.2.25-.33.42-.21.27-.23.31-.23.34,0,.07.04.14.11.2.1.08.46.29.59.36.22.11.61.3.79.41.53.29.69.36.83.39.14.02.25-.07.26-.21,0-.09-.04-.16-.26-.42-.09-.09-.24-.28-.35-.4-.35-.42-.95-1.08-1.06-1.17Z"/>
        <path class="cls-2" d="M78.26,85.81c.04.06,1.37,2.98,2.21,4.85.45.99,1.33,3.03,1.45,3.36.12.3.13.36.08.45-.13.27-1.02.7-1.34.85-.75.34-1.83.68-2.62.65-1.76-.15-2.67-1.36-3.43-2.84-.2-.42-.45-.96-.55-1.29-.34-1.07-.67-2.22-.32-3.34.21-.67.55-1.08,1.22-1.54.1-.06.23-.15.29-.18.12-.05,1.55-.71,1.66-.76.06-.01.62-.22.69-.25.4-.15.54-.14.67.04ZM77.92,89.4c-.2-.24-.42-.31-.69-.25-.14.04-.56.25-.72.36-.4.27-.6.52-.74.91-.12.35-.06.66.29,1.48.33.77.58,1.23.91,1.61.61.77,1.43.67,2.26.35.25-.11.26-.12.3-.18.08-.1.12-.19.12-.29v-.09s-.23-.55-.23-.55c-.13-.3-.52-1.15-.84-1.9-.58-1.29-.61-1.37-.67-1.43Z"/>
        <path class="cls-2" d="M72.97,91.84c.11.64.23,1.61.41,2.94.31,2.43.36,2.88.29,3-.06.09.02.07-1.59.3-1.65.23-1.81.25-2.69.35-.59.08-.63.08-.66.06-.08-.05-.1-.09-.14-.35-.04-.24-.14-1.09-.15-1.36,0-.13.01-.22.07-.25.05-.05.18-.07,1.43-.2.93-.1,1.15-.13,1.42-.23.31-.11.34-.24.23-.94-.09-.59-.16-.72-.4-.76-.09-.02-.2,0-1.21.13-1.08.14-1.12.14-1.18.12-.04,0-.08-.03-.11-.09-.04-.05-.04-.08-.07-.32-.02-.14-.03-.35-.04-.46,0-.11-.02-.35-.04-.52-.03-.37-.02-.45.1-.53.06-.05.38-.12.97-.21,1.14-.19,1.28-.22,1.41-.32.08-.05.11-.16.12-.3.03-.13-.07-.79-.12-.91-.08-.16-.21-.23-.47-.25-.22-.02-.75.04-1.21.13-.26.05-.51.09-.87.14-.46.04-.49.05-.55.03-.06-.02-.12-.08-.15-.17-.02-.05-.04-.09-.18-.92-.1-.7-.11-.98-.03-1.09.09-.11.18-.14.87-.24,1.15-.18,1.52-.22,1.9-.26.2-.01.63-.05.96-.09.79-.1.98-.11,1.11-.01.09.07.09.05.27,1.41.09.69.23,1.67.3,2.2Z"/>
        <path class="cls-2" d="M63.34,89.94c.04.31.04.48.03.73-.03.66-.14,1.16-.47,2.05-.47,1.27-1.16,2.69-2.34,3.46-.95.64-2.33.64-3.38.27-.75-.26-1.79-.79-1.92-1.63-.02-.16.02-.23.21-.35.15-.1.67-.52.93-.76.09-.09.19-.16.23-.18.09-.03.12,0,.21.13.26.43.68.77,1.14.93,1.43.4,2.5-.75,2.93-2.01.1-.25.13-.34.15-.47.15-.86-.26-1.76-1.04-2.18-.16-.1-.2-.11-.52-.22-.44-.15-1.03-.25-1.5-.25-.19,0-.23-.02-.28-.1-.04-.07-.03-.16,0-.39.02-.2.09-.83.1-1.08,0-.12.02-.26.02-.34,0-.06.02-.19.02-.26.02-.1.03-.17.04-.2.1-.15.77-.29,1.37-.28.54,0,1.08.09,1.57.26,1.34.46,2.31,1.42,2.49,2.86h.01Z"/>
        <path class="cls-2" d="M57.81,86.8c-.08.08-.26.23-.38.33-.12.12-.32.31-.46.41-.32.29-.64.56-.88.78-.13.11-.29.25-.37.32-.07.07-.19.17-.26.23s-.2.16-.3.27c-.1.08-.27.22-.37.3-.17.17-.78.68-1.12.95-.49.41-.65.55-.81.67-.07.07-.26.24-.42.39-.16.13-.36.31-.47.4-.46.44-.63.58-.9.81-.43.36-.54.43-.68.4-.15-.04-1.08-.73-1.73-1.27-.48-.4-.56-.48-.59-.56-.03-.06,0-.16.05-.22.03-.03.09-.16.16-.31.08-.14.18-.31.22-.39.04-.07.12-.19.16-.27.04-.06.18-.27.3-.45.41-.6.56-.89,1.15-2.01.31-.6.48-.9.77-1.39.4-.71.78-1.43,1.09-2.17.12-.29.46-.94.65-1.18.04-.09.16-.22.2-.25.09-.04.14-.02.26.08,1.26,1.02,1.22.99,1.28,1.09.04.07,0,.15-.15.42-.13.24-.36.65-.47.89-.09.18-.11.46-.03.61.07.14.11.18.52.5.36.29.38.3.5.37.19.08.3.1.41.07.05-.02.12-.03.15-.06.06-.03.52-.42.73-.62.25-.24.5-.42.58-.43.08,0,.17.04.41.28.11.11.24.23.29.25.07.05.53.38.57.4.03.03.07.05.08.08.03.08.01.1-.16.25ZM53.12,88.69c.05-.07.09-.18.06-.24-.01-.03-.03-.05-.14-.11-.07-.05-.25-.2-.42-.34-.27-.21-.31-.23-.34-.23-.07,0-.14.04-.2.11-.08.1-.29.45-.37.59-.11.22-.3.61-.41.79-.29.53-.36.68-.39.83-.02.14.07.25.21.26.09,0,.16-.04.42-.26.09-.09.28-.24.4-.35.42-.35,1.08-.95,1.17-1.06Z"/>
        <path class="cls-2" d="M51.03,83.25c-2.05,1.6-4.85,3.83-5.12,4.06-.14.12-.4.33-.58.47-.3.24-.35.26-.41.28-.08.01-.14,0-.22-.05-.19-.1-.17-.1-1.53-1.84-.87-1.11-1.3-1.68-1.34-1.73-.07-.14-.09-.2-.05-.29.04-.05.06-.08.33-.29.17-.13.35-.26.42-.29.06-.04.26-.19.44-.33.33-.24.34-.25.42-.26.04-.02.1,0,.12,0,.07.02.18.14.63.69.84,1.05,1.08,1.33,1.21,1.39.14.05.22.03.54-.25.23-.18.25-.21.21-.33-.04-.15-.13-.28-.54-.8l-.37-.48-.02-.09c-.04-.19.02-.25.62-.7.47-.35.58-.43.7-.46.07-.02.17,0,.2.02.03.01.18.2.36.42.55.65.63.73.8.75.08,0,.12.01.21-.04.13-.05.07,0,1.73-1.3.89-.7,1.4-1.1,1.42-1.12.02,0,.06,0,.08,0,.05.02.07.04.33.4.16.2.32.43.38.48.04.06.16.18.23.27.12.16.14.18.13.22,0,.04-.02.07-.02.09-.01.03-.39.32-1.35,1.09h.01Z"/>
        <path class="cls-2" d="M39.37,80.8c-.08.11-.16.17-.21.17-.03,0-.07-.02-.14-.08-.08-.07-.17-.14-.25-.2-.18-.11-.34-.18-.55-.24-.09-.02-.13-.05-.15-.07-.01-.03,0-.04,0-.11.06-.18.13-.32.17-.35.04-.02.07-.02.16,0,.37.07.73.27.99.56.04.03.09.1.08.12.02.04-.02.1-.1.2ZM41.87,79.7c.18.28.31.27.96-.03.54-.25.65-.36.62-.59,0-.09-.05-.19-.45-1.13-.43-1-.45-1.04-.44-1.1,0-.05.02-.09.05-.13.04-.05.07-.06.29-.15.13-.06.33-.13.43-.17.12-.04.34-.11.49-.18.34-.13.43-.14.53-.04.07.05.22.34.49.88.48,1.05.55,1.18.68,1.26.09.06.18.06.33.04.14-.03.75-.31.84-.38.13-.12.17-.28.11-.53-.04-.21-.24-.71-.45-1.13-.11-.23-.23-.47-.36-.8-.18-.43-.2-.45-.19-.52s.05-.14.12-.19c.05-.04.08-.07.84-.41.65-.31.91-.39,1.04-.34.13.05.18.14.47.77.48,1.05.64,1.4.77,1.76.07.19.23.6.35.89.31.73.38.92.32,1.06-.04.11-.02.1-1.28.64-.64.27-1.54.68-2.03.89-.57.28-1.48.67-2.72,1.2-2.25.97-2.67,1.13-2.81,1.1-.11-.03-.06.04-.73-1.44-.67-1.53-.73-1.67-1.07-2.49-.23-.55-.25-.58-.24-.62.02-.09.06-.12.31-.24.2-.1,1-.43,1.26-.51.12-.04.21-.04.26,0,.06.04.11.15.58,1.32.36.86.45,1.07.61,1.31h.01Z"/>
      </g>
      <g>
        <path class="cls-2" d="M57.61,69.39c-.05,0-.16-.03-.24-.05-.08,0-.21-.03-.29-.06-.2-.04-.4-.09-.55-.11-.08-.02-.18-.04-.23-.05-.05,0-.12-.02-.16-.03-.04,0-.12-.03-.19-.04-.06-.02-.16-.04-.22-.05-.12-.02-.49-.1-.69-.16-.3-.07-.4-.09-.49-.12-.05,0-.17-.03-.27-.05-.09-.02-.22-.05-.29-.06-.3-.05-.41-.07-.57-.11-.26-.06-.32-.08-.35-.15-.03-.07-.03-.63,0-1.03.02-.3.02-.35.05-.39.01-.03.06-.05.1-.04.02,0,.09-.01.16-.03.08-.01.17-.02.21-.03s.11-.01.15-.02c.03,0,.16,0,.26-.01.35-.02.5-.04,1.1-.14.32-.05.48-.07.76-.11.39-.05.77-.11,1.15-.2.14-.04.49-.09.64-.09.05-.01.13,0,.16,0,.04.02.05.05.04.12-.03.78-.03.75-.05.81-.01.03-.06.05-.21.06-.13.02-.36.05-.48.07-.1.02-.21.09-.24.16-.04.07-.04.09-.04.35,0,.22,0,.23,0,.3.02.1.05.14.09.18.02.01.05.04.07.04.03.01.31.08.45.1.16.03.3.07.33.1.03.03.03.08.01.24,0,.07-.02.16-.01.18,0,.04,0,.31.01.33,0,.02,0,.04,0,.05-.02.03-.03.03-.14,0ZM55.53,68.13s.1-.02.11-.04c0-.01,0-.03,0-.09,0-.04,0-.16,0-.26,0-.16,0-.18,0-.2-.02-.03-.05-.04-.1-.04-.06,0-.26.02-.33.03-.12.02-.32.06-.42.07-.29.04-.37.06-.43.09-.06.03-.08.1-.04.15.03.03.06.05.22.09.06,0,.18.04.25.06.26.06.68.14.74.15Z"/>
        <path class="cls-2" d="M54.9,65.2c-.29-.11-.72-.26-.95-.34-.38-.14-.42-.15-.44-.17-.03-.03-.05-.05-.05-.09,0-.04.36-1.01.39-1.05.02-.04.06-.08.09-.09.07-.03.53-.06.87-.05s.69,0,1.04,0c.42,0,.42,0,.44,0s-.8-.31-1.46-.55c-.61-.22-.59-.22-.62-.27s-.02-.08.09-.37c.08-.22.1-.27.13-.31.05-.09.07-.1.14-.1.03,0,.19.06,2.08.75l2.04.74.05.03c.08.06.09.12.06.27-.04.14-.21.63-.27.79-.05.13-.06.15-.09.19-.1.13-.15.14-.57.12-.15-.01-.35-.03-.44-.03-.1,0-.28-.02-.4-.03-.12,0-.3-.02-.4-.03-.4-.03-.8-.06-1.01-.06-.06,0-.03.01.2.09.12.04.4.14.62.22.62.21,1.12.39,1.39.48l.24.09.02.03s.02.04.02.05c0,.06-.16.55-.21.61-.08.11-.17.11-.6-.05-.25-.08-1.73-.61-2.4-.86Z"/>
        <path class="cls-2" d="M58.37,62.68c-1-.75-2.39-1.76-2.53-1.86-.07-.05-.21-.14-.29-.21-.15-.11-.17-.13-.18-.15-.02-.04-.02-.07,0-.11.02-.1.03-.09.66-.94.41-.55.61-.81.63-.84.06-.05.08-.07.13-.06.03.01.05.02.18.11.08.06.17.13.19.16.03.02.12.1.21.16.15.12.16.13.17.16.01.02.02.05.02.06,0,.03-.04.1-.24.38-.38.52-.48.67-.49.74,0,.07.02.1.18.22.11.09.13.09.18.06.06-.04.11-.09.3-.35l.17-.23.04-.02c.08-.04.12-.02.4.2.22.17.27.21.3.27.02.03.03.08.01.09,0,.02-.07.11-.15.22-.23.34-.26.38-.25.47,0,.04,0,.06.04.09.04.05,0,.03.82.64.44.32.69.51.7.52,0,0,0,.03,0,.04,0,.02,0,.04-.14.21-.07.1-.16.2-.17.23-.02.03-.06.1-.1.14-.06.08-.06.09-.08.09-.02,0-.03,0-.04,0-.01,0-.2-.14-.68-.49h0Z"/>
        <path class="cls-2" d="M58.94,58.13c.07.08.18.19.25.25.18.18,1.06,1.15,1.28,1.4.1.11.29.34.44.5.28.3.29.33.3.38,0,.05,0,.07-.14.2-.16.15-.28.27-.34.3-.11.07-.17.07-.28-.03-.09-.08-1.79-1.96-2.18-2.42-.26-.3-.46-.53-.6-.68-.19-.21-.19-.2-.03-.36.06-.06.17-.16.24-.23.15-.15.18-.16.22-.16h.03s.12.13.12.13c.07.08.23.24.34.36.12.12.27.28.34.36Z"/>
        <path class="cls-2" d="M61.26,56.98c.09.17.2.35.36.59.13.19.32.49.42.67.11.16.25.38.3.46.15.23.35.57.38.65.07.18.05.25-.1.37-.07.06-.27.18-.35.22-.11.06-.2.07-.27.03-.04-.02-.12-.1-.16-.18-.02-.04-.09-.15-.15-.24-.19-.27-.94-1.52-1.27-2.08-.09-.15-.11-.17-.16-.2-.04-.02-.07-.03-.11-.02-.08.05-.44.26-.49.26-.02,0-.06.01-.08,0-.1,0-.22-.12-.38-.34-.22-.31-.29-.49-.26-.61.02-.05.04-.09.1-.13.07-.06,1.87-1.17,1.96-1.21.09-.05.13-.05.19-.01.03.02.1.13.32.47.12.2.17.28.19.32.04.1.04.19,0,.25-.02.04-.1.09-.33.24-.12.07-.19.12-.21.13-.03.03-.04.07-.04.1s.01.05.14.27Z"/>
        <path class="cls-2" d="M63.29,58.1c-.13-.48-.28-.99-.52-1.91-.18-.69-.36-1.32-.39-1.42q-.05-.16-.04-.19s.05-.05.18-.09c.18-.06,1.02-.3,1.16-.32.31-.07.44-.07.61-.06.49.04.87.36,1.04.82.03.08.08.27.1.36.07.4-.01.86-.27,1.19-.06.07-.08.11-.08.18,0,.06.03.15.09.23.05.06.23.29.38.47.07.09.5.54.61.66.18.18.22.28.15.35-.02.02-.04.03-.19.08-.16.05-.48.14-.6.17-.03,0-.09.02-.13.03-.13.02-.18.01-.22-.03-.07-.09-.3-.35-.57-.71-.21-.28-.23-.3-.34-.41-.07-.07-.09-.08-.11-.08-.04,0-.05,0-.06.04,0,.06.02.17.17.7.13.47.15.54.15.59,0,.08,0,.11-.03.14-.04.03-.21.09-.43.15-.2.05-.22.06-.28.05-.03-.01-.09-.05-.1-.07,0,0-.03-.07-.04-.13-.02-.07-.12-.42-.22-.78h0ZM63.63,56.1c.05.11.1.15.18.14.04,0,.18-.04.25-.08.21-.11.46-.27.43-.54-.02-.11-.08-.2-.17-.26-.13-.08-.28-.07-.59.02l-.16.05-.03.03s-.04.08-.04.15c0,.08.09.42.12.49Z"/>
        <path class="cls-2" d="M67.23,54.97c0,.1.02.26.03.35.02.25.09,1.56.1,1.89,0,.15.01.45.02.67.02.41.02.43,0,.48-.03.04-.04.05-.23.07-.22.02-.39.03-.45.02-.13-.01-.17-.05-.19-.2-.02-.11-.14-2.65-.15-3.26,0-.4-.02-.71-.03-.9,0-.29-.02-.27.21-.3.08,0,.23-.02.33-.02.21-.02.24-.01.27.02l.03.02v.18c.02.1.03.33.04.49.02.17.03.39.03.49Z"/>
        <path class="cls-2" d="M71.63,56.53c-.08.45-.15.67-.31,1-.16.34-.35.6-.56.8-.35.32-.97.43-1.42.34-.45-.09-.99-.37-1.22-.78-.25-.47-.29-1.09-.11-1.91.15-.71.41-1.39,1.04-1.82.42-.28.81-.35,1.3-.26.28.05.51.18.74.37.6.46.68,1.12.62,1.84-.01.12-.02.18-.07.43ZM70.76,56.14c.04-.22.05-.49.03-.69-.05-.36-.17-.57-.52-.72-.09-.03-.26-.06-.36-.06-.11,0-.21.01-.27.03-.42.15-.65.79-.74,1.18-.11.41-.1.72.02,1.01.1.23.31.39.61.45.59.12.92-.16,1.11-.72.04-.13.1-.36.12-.46ZM70.41,53.6c-.02-.06-.03-.11,0-.13,0-.01.03-.02.07-.03.05-.01.1-.03.15-.05.09-.04.16-.09.24-.15.04-.03.06-.04.07-.04.01,0,.02.01.04.03.06.07.09.14.09.16,0,.02-.01.03-.05.06-.13.13-.31.22-.49.24-.02,0-.06,0-.07,0-.02,0-.03-.03-.05-.09Z"/>
        <path class="cls-2" d="M72.79,56.33c.16-.27.39-.66.52-.87.21-.35.23-.38.26-.4.03-.03.06-.03.1-.03.04,0,.92.54.96.58.03.03.06.08.07.11.01.07-.05.53-.12.87-.07.34-.13.68-.2,1.02-.07.41-.08.41-.08.43,0,.02.46-.72.82-1.33.33-.55.33-.54.38-.56.06-.01.08,0,.34.16.2.12.25.15.28.18.08.07.09.09.07.16-.01.03-.1.17-1.14,1.9l-1.12,1.86-.04.04c-.07.07-.14.07-.27,0-.13-.07-.58-.33-.73-.41-.11-.08-.14-.09-.17-.13-.11-.12-.11-.18,0-.58.04-.14.09-.34.12-.43.03-.1.08-.27.11-.39.03-.12.08-.29.11-.39.11-.39.21-.77.26-.98.02-.06,0-.03-.12.18-.07.11-.22.37-.33.57-.33.57-.6,1.03-.74,1.27l-.13.22-.03.02s-.04.01-.06.01c-.06,0-.51-.27-.56-.32-.09-.1-.07-.19.16-.58.13-.23.94-1.58,1.3-2.19Z"/>
        <path class="cls-2" d="M75.19,61.9s.34-.22.99-.6c1.23-.73,2.1-1.23,2.26-1.32.11-.05.18-.09.38-.22.26-.17.29-.18.33-.18.02.01.07.04.1.07.07.08.19.25.31.46s.24.44.35.65c.14.23.31.58.3.84-.01.35-.27.63-.56.8-.23.14-.45.19-.71.16-.11,0-.15,0-.16.04-.01,0-.01.06-.02.1-.03.44-.26.74-.63.97-.07.05-.14.09-.2.12-.79.37-1.53.17-2.04-.54-.06-.08-.22-.33-.23-.36-.02-.04-.2-.38-.33-.6-.09-.17-.15-.27-.15-.29,0-.04,0-.09.01-.11ZM76.78,61.91c-.05.05-.07.08-.06.13,0,.05.01.08.05.13.19.33.52.6.9.37.11-.07.14-.09.18-.2.04-.09.03-.32-.02-.47-.02-.05-.04-.09-.09-.17-.06-.11-.14-.19-.28-.17-.09.02-.13.04-.39.19-.22.13-.25.15-.29.18ZM78.29,61.07s-.01.07,0,.12.12.2.15.24c.07.08.18.16.29.2.2.08.45,0,.56-.16.03-.05.05-.14.03-.21,0-.12-.05-.23-.14-.39-.05-.08-.06-.09-.09-.12-.07-.06-.13-.08-.22-.06-.04.01-.07.03-.15.07-.06.03-.14.07-.18.09-.12.06-.22.14-.26.21Z"/>
        <path class="cls-2" d="M76.73,64.31c.05,0,.17-.01.24-.01.08-.01.21-.02.3-.02.21-.01.41-.02.56-.03.08,0,.19,0,.23-.01.05,0,.12,0,.16-.01.04,0,.13,0,.19,0,.06,0,.17,0,.23,0,.12-.01.5-.02.71-.02.3,0,.41-.01.51-.01.05,0,.17-.01.27-.02.1,0,.23-.01.3-.01.31-.03.41-.03.58-.04.27,0,.33,0,.37.05.04.06.19.6.27,1,.06.29.07.35.05.39,0,.03-.05.06-.08.07-.02,0-.08.03-.15.07-.07.03-.16.06-.2.08s-.1.04-.14.05c-.03,0-.15.05-.25.08-.33.1-.48.17-1.03.41-.3.13-.45.19-.71.3-.36.15-.72.31-1.06.49-.13.07-.45.22-.6.25-.04.02-.12.04-.15.04-.04-.01-.06-.04-.07-.11-.17-.76-.16-.74-.16-.79,0-.04.04-.06.18-.11.12-.05.33-.14.44-.19.09-.04.18-.14.19-.22.02-.07.01-.1-.05-.35-.05-.22-.05-.22-.08-.29-.05-.09-.09-.13-.13-.15-.02,0-.05-.02-.08-.02-.03,0-.32,0-.46.02-.16.02-.31,0-.34-.01s-.05-.06-.07-.23c-.01-.07-.02-.16-.03-.18,0-.04-.08-.3-.09-.32,0-.02,0-.04,0-.05.01-.04.03-.04.14-.05ZM79.06,64.99s-.09.04-.1.07c0,.01,0,.03.02.09,0,.04.04.15.06.25.04.16.05.18.06.19.03.02.06.03.11.02.06-.01.25-.08.32-.12.11-.05.3-.14.39-.17.27-.11.34-.15.39-.2s.05-.12,0-.16c-.03-.03-.07-.03-.24-.03-.06,0-.18,0-.26.01-.26,0-.69.03-.76.05Z"/>
        <path class="cls-2" d="M78.35,67.53c.5.04,1.03.08,1.98.15.71.06,1.37.11,1.46.12q.17.01.19.03s.03.06.03.2c0,.19-.06,1.06-.09,1.2-.04.32-.08.44-.15.6-.2.45-.64.7-1.12.71-.09,0-.29-.01-.37-.03-.4-.07-.81-.31-1.03-.66-.05-.08-.08-.12-.14-.14-.05-.02-.15-.02-.25,0-.08.02-.35.12-.57.2-.11.04-.68.29-.82.35-.23.11-.34.12-.38.03-.01-.02,0-.05-.01-.21,0-.16.03-.5.05-.62,0-.03.01-.09.02-.13.02-.13.05-.17.1-.2.11-.04.43-.16.86-.3.33-.1.36-.12.5-.18.08-.04.11-.05.11-.07.02-.03.01-.05-.02-.07-.05-.02-.17-.04-.72-.08-.49-.04-.56-.04-.6-.06-.08-.03-.11-.04-.12-.08-.02-.05-.02-.23,0-.46.01-.2.02-.23.05-.28.02-.03.07-.07.1-.07,0,0,.08,0,.14,0,.07,0,.43.03.81.06h0ZM80.12,68.52c-.12.01-.17.04-.19.12-.02.04-.02.19-.01.27.03.23.1.52.37.59.11.02.22,0,.3-.07.12-.1.16-.24.18-.56v-.17s-.01-.04-.01-.04c-.02-.04-.06-.07-.13-.08-.07-.03-.42-.06-.5-.05Z"/>
        <path class="cls-2" d="M78.04,70.76c.47.18.96.37,1.85.73.66.27,1.28.5,1.37.54q.16.06.17.08s0,.07-.03.2c-.06.18-.37.99-.44,1.12-.13.29-.2.39-.31.53-.33.37-.81.48-1.28.35-.08-.03-.27-.1-.35-.14-.36-.18-.68-.53-.79-.93-.02-.09-.04-.13-.09-.17-.04-.04-.13-.07-.24-.07-.08,0-.37,0-.61.03-.11,0-.74.08-.89.09-.26.04-.36.01-.37-.09,0-.02,0-.05.05-.2.05-.15.17-.46.23-.58,0-.03.04-.08.06-.12.06-.12.1-.15.16-.16.11,0,.46-.02.91-.03.35,0,.38,0,.53-.03.09-.01.12-.02.13-.04.03-.03.03-.05,0-.07-.04-.04-.15-.09-.66-.29-.46-.18-.52-.2-.56-.23-.07-.05-.09-.07-.1-.11,0-.05.05-.23.13-.44.07-.19.08-.22.13-.26.03-.02.09-.05.12-.04,0,0,.07.02.13.04.06.02.41.16.75.29h0ZM79.44,72.23c-.12-.03-.18-.01-.22.06-.03.03-.08.17-.09.25-.04.23-.06.53.18.67.1.05.21.06.31.02.14-.06.22-.18.34-.48l.06-.16v-.04s-.04-.08-.11-.12c-.06-.05-.39-.18-.46-.2Z"/>
        <path class="cls-2" d="M76.01,73.3s.11.12.16.18c.06.06.15.15.2.22.14.15.27.31.38.42.06.06.12.14.16.18.03.03.08.09.11.12.03.03.08.1.13.15.04.05.11.13.15.18.08.08.33.37.46.54.2.23.26.31.33.39.03.03.12.13.19.2.06.07.15.17.2.22.21.22.28.3.39.43.17.21.21.26.19.33-.02.07-.35.52-.61.83-.19.23-.23.27-.27.28-.03.01-.08,0-.1-.02-.02-.01-.08-.04-.15-.07-.07-.04-.15-.08-.19-.1-.04-.02-.09-.06-.13-.08-.03-.02-.13-.09-.21-.14-.29-.19-.43-.27-.97-.55-.29-.15-.43-.23-.67-.37-.34-.19-.69-.37-1.04-.52-.14-.06-.45-.22-.57-.31-.05-.02-.11-.07-.12-.1-.02-.04,0-.07.04-.13.49-.61.47-.59.52-.62.03-.02.07,0,.2.07.11.06.31.17.43.23.09.04.22.05.29.01.07-.03.09-.05.24-.25.14-.18.14-.18.18-.24.04-.09.05-.15.04-.2,0-.02-.02-.06-.03-.07-.01-.03-.2-.25-.3-.35-.12-.12-.2-.24-.21-.28,0-.04.02-.08.13-.2.05-.05.11-.11.12-.14.03-.03.18-.25.19-.27.01-.02.03-.03.04-.04.04-.01.05,0,.12.08ZM76.92,75.55s-.09-.04-.11-.03c-.01,0-.02.02-.06.07-.03.03-.1.12-.16.2-.1.13-.11.15-.11.16,0,.03.02.07.05.1.05.04.22.14.29.18.11.05.29.15.38.2.25.14.33.18.4.19.07.01.12-.03.12-.1,0-.04-.02-.08-.12-.2-.04-.04-.12-.14-.17-.19-.17-.2-.46-.52-.51-.56Z"/>
        <path class="cls-2" d="M72.68,76.51s.66,1.43,1.06,2.33c.21.48.64,1.46.7,1.62.06.15.06.17.04.21-.06.13-.49.34-.64.41-.36.16-.88.33-1.26.31-.85-.07-1.28-.65-1.65-1.37-.1-.2-.21-.46-.26-.62-.16-.51-.32-1.07-.16-1.61.1-.32.26-.52.58-.74.05-.03.11-.07.14-.09.06-.03.75-.34.8-.37.03,0,.3-.1.33-.12.19-.07.26-.07.32.02ZM72.52,78.23c-.1-.11-.2-.15-.33-.12-.06.02-.27.12-.35.17-.19.13-.29.25-.36.44-.06.17-.03.32.14.71.16.37.28.59.44.77.29.37.69.32,1.09.17.12-.05.12-.06.15-.09.04-.05.06-.09.06-.14v-.05s-.11-.26-.11-.26c-.06-.14-.25-.55-.4-.91-.28-.62-.3-.66-.32-.69Z"/>
        <path class="cls-2" d="M70.14,79.41c.05.31.11.77.2,1.41.15,1.17.17,1.38.14,1.44-.03.04.01.03-.76.15-.79.11-.87.12-1.29.17-.28.04-.3.04-.32.03-.04-.02-.05-.04-.07-.17-.02-.11-.07-.53-.07-.66,0-.06,0-.1.03-.12.02-.02.09-.03.69-.1.45-.05.55-.06.68-.11.15-.05.16-.12.11-.45-.04-.28-.08-.35-.19-.37-.04,0-.1,0-.58.06-.52.07-.54.07-.57.06-.02,0-.04-.02-.05-.04-.02-.03-.02-.04-.03-.15,0-.07-.01-.17-.02-.22,0-.05,0-.17-.02-.25-.02-.18,0-.22.05-.25.03-.02.18-.06.47-.1.55-.09.62-.11.68-.16.04-.03.05-.08.06-.14.01-.06-.04-.38-.06-.44-.04-.08-.1-.11-.23-.12-.1,0-.36.02-.58.06-.13.02-.25.05-.42.07-.22.02-.24.02-.27.01-.03,0-.06-.04-.07-.08-.01-.03-.02-.05-.08-.44-.05-.34-.05-.47-.01-.53.04-.05.09-.07.42-.12.55-.08.73-.11.92-.12.1,0,.3-.03.46-.05.38-.05.47-.05.53,0,.05.04.04.02.13.68.04.33.11.8.14,1.06Z"/>
        <path class="cls-2" d="M65.51,78.49c.02.15.02.23.02.35-.02.32-.07.56-.22.99-.22.61-.56,1.29-1.12,1.66-.46.31-1.12.31-1.63.13-.36-.12-.86-.38-.92-.78-.01-.08,0-.11.1-.17.07-.05.32-.25.45-.36.04-.04.09-.08.11-.09.04-.01.06,0,.1.06.12.21.33.37.55.45.69.19,1.2-.36,1.41-.97.05-.12.06-.16.07-.23.07-.41-.13-.85-.5-1.05-.08-.05-.1-.05-.25-.11-.21-.07-.5-.12-.72-.12-.09,0-.11,0-.13-.05-.02-.03-.02-.08,0-.19.01-.1.04-.4.05-.52,0-.06,0-.13.01-.16,0-.03,0-.09,0-.13,0-.05.01-.08.02-.09.05-.07.37-.14.66-.13.26,0,.52.04.75.12.64.22,1.11.68,1.19,1.37h0Z"/>
        <path class="cls-2" d="M62.86,76.98s-.12.11-.18.16c-.06.06-.15.15-.22.2-.15.14-.31.27-.42.38-.06.06-.14.12-.18.16-.03.03-.09.08-.12.11s-.1.08-.15.13c-.05.04-.13.11-.18.15-.08.08-.37.33-.54.46-.23.2-.31.26-.39.32-.03.03-.13.12-.2.19-.08.06-.17.15-.22.19-.22.21-.3.28-.43.39-.21.17-.26.21-.33.19-.07-.02-.52-.35-.83-.61-.23-.19-.27-.23-.28-.27-.01-.03,0-.08.02-.1.01-.02.04-.08.08-.15.04-.07.08-.15.1-.19.02-.04.06-.09.08-.13.02-.03.09-.13.15-.21.19-.29.27-.43.55-.97.15-.29.23-.43.37-.67.19-.34.37-.69.53-1.04.06-.14.22-.45.31-.57.02-.05.08-.11.1-.12.04-.02.07,0,.13.04.61.49.59.48.61.53.02.03,0,.07-.07.2-.06.11-.17.31-.23.43-.04.09-.05.22-.02.29.03.07.05.09.25.24.18.14.18.14.24.18.09.04.15.05.2.04.02,0,.06-.02.07-.03.03-.01.25-.2.35-.3.12-.11.24-.2.28-.21.04,0,.08.02.2.13.05.05.11.11.14.12.03.03.25.18.27.19.02.01.03.03.04.04.01.04,0,.05-.08.12ZM60.6,77.89s.04-.09.03-.11c0-.01-.02-.02-.07-.05-.03-.03-.12-.1-.2-.16-.13-.1-.15-.11-.16-.11-.03,0-.07.02-.1.05-.04.05-.14.22-.18.29-.05.11-.15.29-.2.38-.14.25-.18.33-.19.4-.01.07.03.12.1.12.04,0,.08-.02.2-.12.04-.04.14-.12.19-.17.2-.17.52-.46.56-.51Z"/>
        <path class="cls-2" d="M59.6,75.28c-.98.77-2.33,1.84-2.46,1.95-.07.06-.19.16-.28.23-.14.11-.17.12-.2.14-.04,0-.07,0-.1-.02-.09-.05-.08-.05-.74-.88-.42-.54-.62-.81-.64-.83-.04-.07-.04-.1-.02-.14.02-.02.03-.04.16-.14.08-.06.17-.12.2-.14.03-.02.13-.09.21-.16.16-.12.16-.12.2-.13.02,0,.05,0,.06,0,.03,0,.09.07.3.33.4.5.52.64.58.67.07.02.1.01.26-.12.11-.09.12-.1.1-.16-.02-.07-.06-.13-.26-.38l-.18-.23v-.04c-.03-.09,0-.12.29-.34.22-.17.28-.21.34-.22.04-.01.08,0,.1.01.01,0,.09.1.17.2.26.31.3.35.39.36.04,0,.06,0,.1-.02.06-.02.03,0,.83-.63.43-.34.67-.53.68-.54,0,0,.03,0,.04,0,.02,0,.03.02.16.19.08.1.15.21.18.23.02.03.08.09.11.13.06.07.07.09.06.1,0,.02,0,.03,0,.04,0,.01-.19.16-.65.53h0Z"/>
        <path class="cls-2" d="M54,74.1c-.04.05-.07.08-.1.08-.02,0-.03,0-.07-.04-.04-.04-.08-.07-.12-.1-.09-.05-.16-.09-.26-.12-.04-.01-.06-.03-.07-.03,0-.01,0-.02,0-.05.03-.09.06-.15.08-.17.02,0,.03,0,.08,0,.18.03.35.13.48.27.02.01.04.05.04.06,0,.02,0,.05-.05.09ZM55.19,73.57c.09.13.15.13.46-.01.26-.12.31-.17.3-.28,0-.04-.03-.09-.22-.54-.21-.48-.21-.5-.21-.53,0-.02.01-.04.02-.06.02-.02.03-.03.14-.07.06-.03.16-.06.21-.08.06-.02.16-.05.24-.09.16-.06.21-.07.26-.02.03.02.11.16.23.42.23.51.27.57.33.61.04.03.09.03.16.02.07-.01.36-.15.4-.18.06-.06.08-.13.05-.25-.02-.1-.12-.34-.22-.54-.05-.11-.11-.23-.17-.38-.09-.21-.09-.22-.09-.25s.02-.07.06-.09c.02-.02.04-.03.4-.2.31-.15.44-.19.5-.16.06.03.09.07.23.37.23.51.31.68.37.85.03.09.11.29.17.43.15.35.18.44.15.51-.02.05,0,.05-.61.31-.31.13-.74.33-.98.43-.28.13-.71.32-1.31.58-1.08.46-1.28.54-1.35.53-.05-.01-.03.02-.35-.69-.32-.73-.35-.8-.52-1.2-.11-.26-.12-.28-.11-.3.01-.04.03-.06.15-.12.1-.05.48-.21.6-.25.06-.02.1-.02.12,0,.03.02.05.07.28.63.17.41.21.51.29.63h0Z"/>
      </g>
    </g>
  </g>
</svg>