<?xml version="1.0" encoding="UTF-8"?>
<svg id="Capa_2" data-name="Capa 2" xmlns="http://www.w3.org/2000/svg" viewBox="0 0 120.82 96.1">
  <defs>
    <style>
      .cls-1 {
        fill: #a41f25;
      }

      .cls-2 {
        fill: #e8dbca;
      }
    </style>
  </defs>
  <g id="Capa_1-2" data-name="Capa 1">
    <g>
      <path class="cls-2" d="M120.41,48.4c-1.48-8.66-7.47-15.46-16.42-18.96-.79-2.03-2.06-4.24-4.01-6.52C86.77,7.41,55.1.66,38.24.05,30.33-.23,15.99.41,8.75,7.97c-3.26,3.4-3.98,6.71-4.46,8.9-.08.37-.17.77-.28,1.2C-3.4,46.36-.51,67.89,12.36,80.33c6.62,6.4,16.99,11.29,27.82,13.83,9.68,2.27,19.73,2.66,27.79.56,6.79-1.77,12.84-5.45,18.39-11.22,2.54.05,5.31-.02,8.25-.57,17.22-3.24,28.55-18.41,25.8-34.54Z"/>
      <g>
        <path class="cls-1" d="M98.23,35.58c7.66,1.58,14.79,6.09,16.18,14.25,2.17,12.73-7.73,23.42-19.72,25.67-3.7.7-7.26.4-10.99.32-4.73,5.73-10.3,10.3-17.61,12.2-14.59,3.8-38.8-2.31-49.69-12.83C2.18,61.45,5.64,35.95,10.15,18.75c.72-2.73.64-4.41,2.72-6.57,4.87-5.09,17.28-5.72,23.98-5.47,16.73.61,46.94,7.59,58.17,20.78,1.89,2.22,3.58,5.07,3.21,8.1ZM51.27,12.55c-7.76-1.47-23.57-3.35-30.58.64-3.23,1.84-3.76,4.15-1.39,7.07.22.11,1.83-1.17,2.3-1.42,10.72-5.63,37.3.59,48.21,4.68,6.66,2.5,14.75,6.21,18.29,12.64,4.04-2.12,2.5-5.52.06-8.22-7.53-8.33-26.07-13.34-36.88-15.39ZM51.09,24.04c-6.53-1.81-13.37-2.26-19.9-.36-.31.09-3.79,1.15-3.56,1.51l5.18,2.41c2.56-1.17,5.27-1.97,8.02-2.56l10.27-1ZM76.79,32.29c-8.75-3.51-18.59-4.24-27.86-2.89l-7.45,1.99,7.45,2.19c8.85-2.68,17.91-3.03,27-1.25.28.06.83.38.87-.04ZM14.49,19.14c-1.62,8.81,8.72,14.65,15.55,17.64,14.42,6.31,43.27,12.92,58.23,6.44,2.53-1.09,6.35-3.38,7.16-6.19.27-.96-.79.47-1.01.63-13.65,9.64-47.21,1.24-61.51-4.65-7.19-2.97-14.57-6.81-18.41-13.86ZM101.67,40.34c-1.07-.35-2.31-.47-3.39-.8l-.6,2.57,4.09.96c1.9.45,3.88,2.62,5.43,3.23,1.58.62,2.09-.06,1.23-1.42-1.13-1.81-4.76-3.88-6.76-4.55ZM100.45,48.69c-1.15-.48-2.87-.52-4.09-.96-1.51,5.73-3.42,11.36-5.91,16.74,6.59,2.29,12.92-2.34,13.74-9.11.31-2.53-1.37-5.68-3.74-6.67ZM23.43,69.34c-4.41-10.09-3-21.58-.89-32.11l-5.46-3.9c-2.33,10.73-2.96,24.6,4.05,33.75.23.3,2.1,2.38,2.3,2.27ZM96.37,68.7c-2.59-.21-5.19.27-7.73-.55l-1.04,2.19c1.64.29,3.46.28,5.1,0,.32-.05,4.16-.97,3.67-1.65Z"/>
        <path class="cls-1" d="M98.23,35.58c7.66,1.58,14.79,6.09,16.18,14.25,2.17,12.73-7.73,23.42-19.72,25.67-3.7.7-7.26.4-10.99.32-4.73,5.73-10.3,10.3-17.61,12.2-14.59,3.8-38.8-2.31-49.69-12.83C2.18,61.45,5.64,35.95,10.15,18.75c.72-2.73.64-4.41,2.72-6.57,4.87-5.09,17.28-5.72,23.98-5.47,16.73.61,46.94,7.59,58.17,20.78,1.89,2.22,3.58,5.07,3.21,8.1ZM51.27,12.55c-7.76-1.47-23.57-3.35-30.58.64-3.23,1.84-3.76,4.15-1.39,7.07.22.11,1.83-1.17,2.3-1.42,10.72-5.63,37.3.59,48.21,4.68,6.66,2.5,14.75,6.21,18.29,12.64,4.04-2.12,2.5-5.52.06-8.22-7.53-8.33-26.07-13.34-36.88-15.39ZM51.09,24.04c-6.53-1.81-13.37-2.26-19.9-.36-.31.09-3.79,1.15-3.56,1.51l5.18,2.41c2.56-1.17,5.27-1.97,8.02-2.56l10.27-1ZM76.79,32.29c-8.75-3.51-18.59-4.24-27.86-2.89l-7.45,1.99,7.45,2.19c8.85-2.68,17.91-3.03,27-1.25.28.06.83.38.87-.04ZM14.49,19.14c-1.62,8.81,8.72,14.65,15.55,17.64,14.42,6.31,43.27,12.92,58.23,6.44,2.53-1.09,6.35-3.38,7.16-6.19.27-.96-.79.47-1.01.63-13.65,9.64-47.21,1.24-61.51-4.65-7.19-2.97-14.57-6.81-18.41-13.86ZM101.67,40.34c-1.07-.35-2.31-.47-3.39-.8l-.6,2.57,4.09.96c1.9.45,3.88,2.62,5.43,3.23,1.58.62,2.09-.06,1.23-1.42-1.13-1.81-4.76-3.88-6.76-4.55ZM100.45,48.69c-1.15-.48-2.87-.52-4.09-.96-1.51,5.73-3.42,11.36-5.91,16.74,6.59,2.29,12.92-2.34,13.74-9.11.31-2.53-1.37-5.68-3.74-6.67ZM23.43,69.34c-4.41-10.09-3-21.58-.89-32.11l-5.46-3.9c-2.33,10.73-2.96,24.6,4.05,33.75.23.3,2.1,2.38,2.3,2.27ZM96.37,68.7c-2.59-.21-5.19.27-7.73-.55l-1.04,2.19c1.64.29,3.46.28,5.1,0,.32-.05,4.16-.97,3.67-1.65Z"/>
      </g>
    </g>
  </g>
</svg>