<?xml version="1.0" encoding="UTF-8"?>
<svg id="Capa_2" data-name="Capa 2" xmlns="http://www.w3.org/2000/svg" viewBox="0 0 154.96 141.16">
  <defs>
    <style>
      .cls-1 {
        fill: #a41f25;
      }

      .cls-2 {
        fill: #e8dbca;
      }
    </style>
  </defs>
  <g id="Capa_1-2" data-name="Capa 1">
    <g>
      <path class="cls-2" d="M154.75,110.32l.08-.51c.45-2.86-.29-5.84-2.04-8.16-1.62-2.16-4.04-3.61-6.89-4.1-.06-.01-.12-.02-.18-.03-1.36-.17-2.42-.32-3.87-.57s-4.25-.71-5.47-.87c-5.05-.64-9.82,2.4-11.36,7.23l-.1.29c-.28.88-.5,1.57-.94,2.61,0,.01-.75,1.29-3.93,2.02-5.29,1.23-10.06.56-14.17-2.01-6.29-3.92-8.94-7.86-11.34-16.88-1.85-6.97-1.08-13.31-.09-21.33l.32-2.63c.94-7.96,2.35-16.13,3.71-24.03l.96-5.63c.54-3.12,1.09-6.35,1.43-9.76.37-3.71.99-9.93-2.79-15.69C92.62,1.96,81.83-1.83,71.25.85c-9.85,2.5-15.03,9.96-18.06,15.36-3.49,6.2-6.25,12.67-8.98,19.07-1.33,3.12-2.6,6.08-3.93,8.97-1-.18-1.99-.37-2.98-.56l-2.83-.53c-.81-.14-2.32-.48-4.16-.9-4.82-1.09-11.42-2.57-14.44-2.57-4.36,0-8.39,1.67-11.33,4.69C1.6,47.37,0,51.44,0,55.84c.01,7.7,4.98,14.03,12.19,15.67-5.07,2.84-6.96,7.07-7.58,10.63-.77,4.46.52,9.35,3.44,13.08,2.8,3.57,6.72,5.69,10.98,5.97,14.69,1.03,28-6.64,39.57-22.83.75-.03,1.49-.06,2.23-.11-.11,8.44.75,15.58,2.68,22.34,5.65,19.79,19.49,33.93,37.99,38.8,1.5.4,3.04.73,4.57,1,20.9,3.61,40.22-6.09,46.96-23.58,1.22-3.17,1.51-5.1,1.73-6.5Z"/>
      <g>
        <path class="cls-1" d="M145.54,108.34c.1-.65-.33-1.4-1-1.48-1.5-.19-2.68-.36-4.29-.64-1.3-.22-3.95-.67-5.06-.81-.54-.07-1.05.25-1.21.76-.33,1.02-.66,2.15-1.39,3.84-.44,1.02-2.65,5.6-10.26,7.36-2.26.52-11.72,2.89-21.42-3.15-8.06-5.02-12.38-10.88-15.46-22.45-2.55-9.6-1.17-17.83-.02-27.49,1.16-9.8,2.93-19.51,4.59-29.23.57-3.32,1.16-6.65,1.49-10,.33-3.28.62-6.69-1.29-9.6-3.56-5.43-10.62-7-16.65-5.47-5.83,1.48-9.38,5.89-12.18,10.85-6.1,10.84-9.93,22.84-15.75,33.84-4.2-.58-8.42-1.42-12.63-2.21-3.76-.71-6.68,1.02-7.75,4.85-.95,3.42.8,7.71,4.58,8.42,2.62.49,5.2.97,7.74,1.41-.88,1.1-1.8,2.18-2.77,3.23-2.07,2.24-4.06,4.11-6.74,5.76-1.84,1.14-4.03,1.65-6.03,1.96-3.78.59-7.49,1.68-8.18,5.66-.59,3.42,1.96,7.8,5.8,8.07,13.71.96,24.2-8.93,31.51-19.28.83-1.18,1.63-2.37,2.4-3.58,5.78.2,11.5-.25,17.29-1.78-.01.13-.03.25-.04.38-.93,10.26-1.15,20.45,1.7,30.47,4.51,15.82,15.2,28.04,31.34,32.29,16.36,4.31,34.33-1.23,40.37-16.88.98-2.54,1.05-3.59,1.29-5.1ZM72.75,51.86c-3.8,1.79-7.66,2.79-11.54,3.25,2.55-5.28,4.89-10.68,7.26-16.06,1.96-4.43,3.74-9.26,6.4-13.35.11-.14.53-.73.63-.84.88-.85,1.82-.54,1.69.44-.54,3.9-1.24,7.78-1.91,11.66-.86,4.95-1.71,9.9-2.47,14.87-.02,0-.04.02-.06.03Z"/>
        <path class="cls-1" d="M15.88,49.1c-8.63.02-8.63,13.43.02,13.42,8.63-.02,8.63-13.43-.02-13.42Z"/>
      </g>
    </g>
  </g>
</svg>