<?xml version="1.0" encoding="UTF-8"?>
<svg id="Capa_2" data-name="Capa 2" xmlns="http://www.w3.org/2000/svg" viewBox="0 0 180.66 176.69">
  <defs>
    <style>
      .cls-1 {
        fill: #a41f25;
      }

      .cls-2 {
        fill: #e8dbca;
      }
    </style>
  </defs>
  <g id="Capa_1-2" data-name="Capa 1">
    <g>
      <g>
        <path class="cls-1" d="M165.45,121.06l-10.01-15.28c-1.11-1.69-.59-3.95,1.14-5l15.64-9.45c2.29-1.39,2.29-4.71,0-6.1l-15.65-9.43c-1.73-1.04-2.25-3.31-1.14-5l9.99-15.3c1.38-2.11.18-4.88-2.18-5.41-.15-.03-.31-.06-.47-.08l-18.19-1.7c-.16-.01-.31-.04-.46-.07-1.76-.4-2.98-2.09-2.74-3.93l2.36-18.12c.25-1.93-1.05-3.55-2.75-3.94-.64-.15-1.33-.12-2.02.14l-17.13,6.36c-.67.25-1.37.28-2.02.14-1.17-.27-2.19-1.12-2.59-2.35l-5.74-17.35c-.42-1.27-1.44-2.09-2.59-2.35-1.15-.26-2.42.04-3.35,1l-12.67,13.16c-.9.93-2.18,1.27-3.36,1-.65-.15-1.27-.48-1.77-1l-12.7-13.14c-.51-.53-1.12-.85-1.76-1-1.7-.39-3.57.51-4.18,2.36l-5.71,17.36c-.58,1.77-2.4,2.76-4.17,2.36-.15-.03-.3-.08-.45-.13l-17.14-6.33c-.15-.06-.31-.1-.46-.14-2.36-.54-4.63,1.45-4.3,3.94l2.39,18.12c.26,2-1.18,3.82-3.19,4.01l-18.19,1.73c-2.67.25-4.11,3.25-2.64,5.49l10.01,15.28c1.11,1.69.59,3.95-1.14,5l-15.64,9.45c-2.29,1.39-2.29,4.71,0,6.1l15.65,9.43c1.73,1.04,2.25,3.31,1.14,5l-9.99,15.3c-1.38,2.11-.18,4.88,2.18,5.41.15.03.31.06.47.08l18.19,1.7c.16.01.31.04.46.07,1.76.4,2.98,2.09,2.74,3.93l-2.36,18.12c-.25,1.93,1.05,3.55,2.75,3.94.64.15,1.33.12,2.02-.14l17.13-6.36c.67-.25,1.37-.28,2.02-.14,1.17.27,2.19,1.12,2.59,2.35l5.74,17.35c.42,1.27,1.44,2.09,2.59,2.35,1.15.26,2.42-.04,3.35-1l12.67-13.16c.9-.93,2.18-1.27,3.36-1,.65.15,1.27.48,1.77,1l12.7,13.14c.51.53,1.12.85,1.76,1,1.7.39,3.57-.51,4.18-2.36l5.71-17.36c.58-1.76,2.4-2.76,4.17-2.36.15.03.3.08.45.13l17.14,6.33c.15.06.31.1.46.14,2.36.54,4.63-1.45,4.3-3.94l-2.39-18.12c-.26-2,1.18-3.82,3.19-4.01l18.19-1.73c2.67-.25,4.11-3.25,2.64-5.49Z"/>
        <path class="cls-2" d="M108.86,6.83c1.15.26,2.17,1.08,2.59,2.35l5.74,17.35c.41,1.23,1.42,2.09,2.59,2.35.65.15,1.35.11,2.02-.14l17.13-6.36c.69-.26,1.38-.29,2.02-.14,1.7.39,3,2.01,2.75,3.94l-2.36,18.12c-.24,1.84.97,3.53,2.74,3.93.15.03.3.06.46.07l18.19,1.7c.16.02.32.04.47.08,2.36.54,3.55,3.31,2.18,5.41l-9.99,15.3c-1.1,1.69-.58,3.95,1.14,5l15.65,9.43c2.3,1.38,2.3,4.71,0,6.1l-15.64,9.45c-1.73,1.04-2.24,3.31-1.14,5l10.01,15.28c1.47,2.24.03,5.24-2.64,5.49l-18.19,1.73c-2.01.19-3.46,2.01-3.19,4.01l2.39,18.12c.33,2.5-1.94,4.48-4.3,3.94-.15-.03-.31-.08-.46-.14l-17.14-6.33c-.15-.06-.3-.1-.45-.13-1.76-.4-3.59.6-4.17,2.36l-5.71,17.36c-.61,1.85-2.49,2.75-4.18,2.36-.64-.15-1.25-.47-1.76-1l-12.7-13.14c-.5-.52-1.12-.85-1.77-1-1.17-.27-2.46.07-3.36,1l-12.67,13.16c-.93.97-2.2,1.26-3.35,1-1.15-.26-2.17-1.08-2.59-2.35l-5.74-17.35c-.41-1.23-1.42-2.09-2.59-2.35-.65-.15-1.35-.11-2.02.14l-17.13,6.36c-.69.26-1.38.29-2.02.14-1.7-.39-3-2.01-2.75-3.94l2.36-18.12c.24-1.84-.97-3.53-2.74-3.93-.15-.03-.3-.06-.46-.07l-18.19-1.7c-.16-.02-.32-.04-.47-.08-2.36-.54-3.55-3.31-2.18-5.41l9.99-15.3c1.1-1.69.58-3.95-1.14-5l-15.65-9.43c-2.3-1.38-2.3-4.71,0-6.1l15.64-9.45c1.73-1.04,2.24-3.31,1.14-5l-10.01-15.28c-1.47-2.24-.03-5.24,2.64-5.49l18.19-1.73c2.01-.19,3.46-2.01,3.19-4.01l-2.39-18.12c-.33-2.5,1.94-4.48,4.3-3.94.15.03.31.08.46.14l17.14,6.33c.15.05.3.1.45.13,1.76.4,3.59-.6,4.17-2.36l5.71-17.36c.61-1.85,2.49-2.75,4.18-2.36.64.15,1.25.47,1.76,1l12.7,13.14c.5.52,1.12.85,1.77,1,1.17.27,2.46-.07,3.36-1l12.67-13.16c.93-.97,2.21-1.26,3.35-1M110.35.26c-3.55-.81-7.18.28-9.7,2.9l-10.39,10.79-10.41-10.77c-1.4-1.45-3.17-2.45-5.11-2.89-5.21-1.19-10.4,1.75-12.07,6.83l-4.68,14.23-14.05-5.19c-.43-.16-.86-.29-1.3-.39-3.27-.74-6.72.17-9.21,2.44-2.49,2.27-3.71,5.61-3.27,8.95l1.96,14.85-14.91,1.42c-3.62.35-6.73,2.51-8.3,5.79-1.58,3.28-1.33,7.06.67,10.1l8.21,12.53-12.82,7.75C1.85,81.49,0,84.79,0,88.43c0,3.64,1.87,6.93,4.98,8.81l12.83,7.73-8.19,12.54c-1.84,2.82-2.19,6.37-.92,9.49,1.26,3.13,3.97,5.44,7.25,6.18.44.1.89.17,1.34.21l14.91,1.39-1.93,14.85c-.69,5.3,2.72,10.19,7.94,11.37,1.95.44,3.97.31,5.86-.39l14.04-5.21,4.7,14.22c1.14,3.46,3.94,6,7.49,6.81,3.55.81,7.18-.28,9.7-2.9l10.39-10.79,10.41,10.77c1.4,1.45,3.17,2.45,5.11,2.89,5.21,1.19,10.4-1.75,12.07-6.83l4.68-14.23,14.05,5.19c.43.16.86.29,1.3.39,3.27.74,6.72-.17,9.21-2.44,2.49-2.27,3.71-5.61,3.27-8.95l-1.96-14.85,14.91-1.42c3.62-.35,6.73-2.51,8.3-5.79,1.58-3.28,1.33-7.06-.67-10.1l-8.21-12.53,12.82-7.75c3.11-1.88,4.97-5.18,4.97-8.82,0-3.64-1.87-6.93-4.98-8.81l-12.83-7.73,8.19-12.54c1.84-2.82,2.19-6.37.92-9.49-1.26-3.13-3.97-5.44-7.25-6.18-.44-.1-.89-.17-1.34-.21l-14.91-1.39,1.93-14.85c.69-5.3-2.72-10.19-7.94-11.37-1.95-.44-3.97-.31-5.86.39l-14.04,5.21-4.7-14.22c-1.14-3.46-3.94-6-7.49-6.81h0Z"/>
      </g>
      <g>
        <g>
          <path class="cls-2" d="M50.31,72.84c-.06.71-.09.82-.22.99-.11.13-.45.35-.67.44-.61.19-1.21.25-1.85.19-.23-.01-.77-.14-1.01-.21-2.11-.79-2.91-1.92-2.8-4.3.02-.35.17-1.12.3-1.5.28-.78.64-1.34,1.2-1.92,1.15-1.19,2.37-1.48,3.92-1.13.32.07.63.16.79.22.43.18,1.87.84,1.72,1.49-.02.09-.08.18-.26.35-.05.07-.27.31-.46.54-.38.48-.49.61-.6.65-.11.04-.16.02-.32-.15-.18-.18-.36-.32-.6-.49-.41-.25-.64-.36-.94-.43-1.17-.27-1.77.21-2.07,1.33-.11.41-.11.74-.01,1.1.06.25.24.49.44.67.25.19.81.4,1.44.54.56.13,1.15.2,1.62.19.26-.02.35,0,.43.1.09.1.09.22.03.63-.05.2-.08.51-.1.7Z"/>
          <path class="cls-2" d="M58.92,72.29c-.22.97-.44,1.52-.83,2.2-.82,1.28-2.22,2.02-3.75,1.67-1.23-.28-2.25-1.04-2.7-2.24-.08-.25-.19-.71-.22-.99-.09-.96.09-2.21.5-3.14.82-1.79,2.3-2.98,4.41-2.5.65.15,1.24.32,1.75.75,1.18,1.01,1.17,2.85.86,4.25ZM56.7,71.51c.2-.88.15-2.02-.91-2.27-.22-.05-.46-.04-.7.04-.15.06-.43.24-.55.37-.36.37-.66,1.02-.78,1.61-.16.98.05,1.68,1.07,1.91.67.15,1.19-.04,1.53-.69.14-.28.23-.52.34-.96Z"/>
          <path class="cls-2" d="M69.3,73.37c-.06.44-.68,3.33-.88,4.05-.23.93-.34,1.24-.49,1.4-.15.14-.28.19-.54.15-.25-.02-1.23-.26-1.36-.31-.2-.08-.26-.23-.24-.49.03-.31.28-1.48.6-2.88.29-1.29.32-1.48.34-1.69.03-.56-.05-.97-.24-1.11-.1-.08-.27-.12-.35-.08-.14.03-.29.23-.39.5-.08.16-.3,1.17-.42,1.84-.07.3-.16.81-.22,1.13-.18.96-.31,1.52-.37,1.72-.26.7-.8.6-1.4.46-.37-.08-1.06-.26-1.09-.72-.03-.32.13-.99.45-1.98.44-1.41.68-2.75.6-3.23-.04-.24-.2-.42-.37-.46-.3-.07-.44.2-.55.43-.14.26-.47,1.79-.8,3.62-.18.96-.23,1.12-.42,1.34-.1.11-.3.27-.42.28-.13.05-.32.03-.65-.05-.78-.18-1.03-.31-1.05-.63-.01-.2.06-.52.49-2.34.22-.95.61-2.6.86-3.68l.47-1.97.05-.07c.24-.18,1.13.02,1.43.09.2.05.25.1.35.2.13.15.14.15.37.1.35-.08.49-.08.89-.01.6.14,1.15.38,1.52.89.07.11.18.24.21.28q.08.06.19.04c.06,0,.16-.02.21-.07.57-.26,1.16-.35,1.77-.21,1.75.4,1.74,1.92,1.47,3.43v.02Z"/>
          <path class="cls-2" d="M77.28,76.46c-.22.97-.44,1.52-.83,2.2-.82,1.28-2.22,2.02-3.75,1.67-1.23-.28-2.25-1.04-2.7-2.24-.08-.25-.19-.71-.22-.99-.09-.96.09-2.21.5-3.14.82-1.79,2.3-2.98,4.41-2.5.65.15,1.24.32,1.75.75,1.18,1.01,1.17,2.85.86,4.25ZM75.07,75.68c.2-.88.15-2.02-.91-2.27-.22-.05-.46-.04-.69.04-.15.06-.43.24-.55.36-.36.37-.66,1.02-.78,1.61-.16.98.05,1.68,1.07,1.91.67.15,1.18-.04,1.53-.69.14-.28.23-.52.34-.96Z"/>
          <path class="cls-2" d="M90.57,75.44c.03.11.01.28-.09.49-.13.32-.74,1.77-1.04,2.51-.08.2-.25.57-.37.84-.12.29-.3.73-.43,1.02-.58,1.42-1.01,2.28-1.27,2.57-.2.21-.42.32-.71.35-.36.02-.45.01-1.33-.19l-.97-.22c-.62-.22-.75-.39-.79-1-.07-.8-.07-1.95.01-3.43.04-.79.1-2.78.12-3.99.01-.41.03-.48.13-.56.07-.04.21-.07.43-.06.15.02.27.02.67.13,1.02.25,1.4.42,1.54.62.16.25.17.65.02,1.53-.02.09-.05.32-.05.5-.02.17-.08.59-.12.95-.11,1.01-.12,1.81-.01,1.96,0,.04.05.05.14.07s.11.03.18-.04c.34-.28.98-1.91,1.14-2.33.01-.06.08-.18.13-.32.07-.12.23-.51.37-.87.45-1.03.42-1,.51-1.04.14-.09.25-.08.79.04.75.17.92.25.98.44v.02Z"/>
          <path class="cls-2" d="M97.62,81.08c-.22.97-.44,1.52-.83,2.2-.82,1.28-2.22,2.02-3.75,1.67-1.23-.28-2.25-1.04-2.7-2.24-.08-.25-.19-.71-.22-.99-.09-.96.09-2.21.5-3.14.82-1.79,2.3-2.98,4.41-2.5.65.15,1.24.32,1.75.75,1.18,1.01,1.17,2.85.86,4.25ZM95.4,80.31c.2-.88.15-2.02-.91-2.27-.22-.05-.46-.04-.7.04-.15.06-.43.24-.55.37-.36.37-.66,1.02-.78,1.61-.16.98.05,1.68,1.07,1.91.67.15,1.19-.04,1.53-.69.14-.28.23-.52.34-.96Z"/>
          <path class="cls-2" d="M104.68,85.2c-.06.71-.09.82-.22.99-.11.13-.45.35-.67.44-.61.19-1.21.25-1.85.19-.23-.01-.77-.14-1.01-.21-2.11-.79-2.91-1.92-2.8-4.3.02-.35.18-1.12.3-1.5.28-.78.64-1.34,1.2-1.92,1.15-1.19,2.37-1.48,3.92-1.13.32.07.63.16.79.22.43.18,1.87.84,1.72,1.49-.02.09-.08.18-.26.35-.05.07-.27.31-.46.54-.38.48-.49.61-.6.65-.11.04-.16.02-.32-.15-.18-.18-.36-.32-.6-.49-.41-.25-.64-.36-.94-.43-1.17-.27-1.77.21-2.07,1.33-.11.41-.11.74-.01,1.1.06.25.24.49.44.67.25.19.81.4,1.44.54.56.13,1.15.2,1.62.19.26-.02.35,0,.43.1.09.1.09.22.03.63-.05.2-.08.51-.1.7Z"/>
          <path class="cls-2" d="M113.39,84.73c-.25,1.18-.35,1.61-.5,2.18-.36,1.43-.49,1.79-.66,1.95-.1.11-.14.11-.83-.03-.41-.09-.63-.14-.69-.17-.11-.04-.19-.18-.26-.33-.08-.24-.24-.33-.54-.4-.15-.01-.17-.02-.49.07-.39.09-.63.11-.95.12-.18,0-.46-.05-.65-.09-.67-.15-1.25-.62-1.61-1.19-.77-1.27-.64-3.3.27-5.05.92-1.71,2.39-2.5,4.27-2.07.34.08.57.17.91.4.12.09.23.13.32.15.13.03.24,0,.38-.11.16-.12.29-.15.53-.11.23.03.66.13.83.23.3.13.44.31.45.59,0,.08-.09.47-.25,1.26-.14.61-.39,1.79-.55,2.6v.02ZM111.15,83.38c.12-.36.15-.75.09-1.02-.14-.44-.44-.67-.86-.76-.6-.14-1.13.08-1.53.52-.46.56-.57,1.28-.27,1.72.21.28.53.51.88.59.5.11,1.05-.07,1.38-.47.14-.18.21-.3.31-.58Z"/>
          <path class="cls-2" d="M120.71,88.84c-.06.71-.09.82-.22.99-.11.13-.45.35-.67.44-.61.19-1.21.25-1.85.19-.23-.01-.77-.14-1.01-.21-2.11-.79-2.91-1.92-2.8-4.3.02-.35.17-1.12.3-1.5.28-.78.64-1.34,1.2-1.92,1.15-1.19,2.37-1.48,3.92-1.13.32.07.63.16.79.22.43.18,1.87.84,1.72,1.49-.02.09-.08.18-.26.35-.05.07-.27.31-.46.54-.38.48-.49.61-.6.65-.11.04-.16.02-.32-.15-.18-.18-.36-.32-.6-.49-.41-.25-.64-.36-.94-.43-1.17-.27-1.77.21-2.07,1.33-.11.41-.11.74-.01,1.1.06.25.24.49.44.67.25.19.81.4,1.44.54.56.13,1.15.2,1.62.19.26-.02.35,0,.43.1.09.1.09.22.03.63-.05.2-.08.51-.1.7Z"/>
          <path class="cls-2" d="M123.77,81.17c-.24-.43-.27-.87-.14-1.38.25-.86.91-1.24,1.8-1.04.97.22,1.39.88,1.16,1.89-.2.88-.89,1.42-1.8,1.22-.17-.02-.28-.06-.37-.1-.29-.12-.49-.33-.65-.58ZM125.35,84.39c-.21.99-.99,4.54-1.24,5.62-.2.86-.32,1.24-.51,1.45-.16.18-.27.23-.5.22-.19,0-1.08-.23-1.27-.29-.41-.19-.54-.4-.48-.83,0-.27,1.39-6.11,1.74-7.4.15-.49.23-.59.78-.49.55.09,1.27.29,1.46.41.1.06.19.18.19.28,0,.06-.04.36-.18,1.04Z"/>
          <path class="cls-2" d="M133.01,89.13c-.22.97-.44,1.52-.83,2.2-.82,1.28-2.22,2.02-3.75,1.67-1.23-.28-2.25-1.04-2.7-2.24-.08-.25-.19-.71-.22-.99-.09-.96.09-2.21.5-3.14.82-1.79,2.3-2.98,4.41-2.5.65.15,1.24.32,1.75.75,1.18,1.01,1.17,2.85.86,4.25ZM130.8,88.35c.2-.88.15-2.02-.91-2.27-.22-.05-.46-.04-.69.04-.15.06-.43.24-.55.36-.36.37-.66,1.02-.78,1.61-.17,1,.05,1.68,1.09,1.91.67.15,1.17-.07,1.51-.7.14-.28.23-.52.34-.96ZM130.64,83.12c-.04-.17-.05-.3-.02-.36.03-.03.09-.06.21-.07.14-.03.29-.07.42-.14.26-.1.44-.23.7-.41.1-.08.14-.11.2-.09.04,0,.06.01.1.08.17.19.25.37.25.45,0,.06-.02.09-.12.19-.37.33-.89.56-1.4.64-.08,0-.18,0-.21-.01-.03-.03-.07-.11-.13-.28ZM135.03,97.37c-.07-.29-.09-.54-.03-.63.05-.06.16-.1.38-.12.25-.05.51-.12.75-.24.45-.17.79-.41,1.24-.72.17-.13.25-.19.35-.16.07-.02.1.02.18.15.3.34.44.65.44.79,0,.11-.04.17-.22.33-.65.58-1.58.99-2.48,1.14-.14,0-.31,0-.38-.02-.06-.05-.13-.2-.23-.5Z"/>
          <path class="cls-2" d="M140.53,93.42c-.3,1.31-.44,1.68-.65,1.81-.09.06-.15.06-.38.05-.14,0-1.13-.18-1.28-.21-.02,0-.09-.04-.16-.06-.22-.07-.35-.18-.41-.37-.1-.32-.08-.59.21-2.11.27-1.37.39-2.15.39-2.59.02-.52-.01-1.32-.65-1.46-.56-.13-.82.34-.95.8-.15.49-.75,3.02-.87,3.64-.12.62-.21,1.03-.27,1.11-.06.1-.16.18-.26.2-.17.04-.56-.01-1.07-.11-.41-.09-.47-.11-.61-.18-.26-.14-.37-.26-.39-.54-.01-.12-.01-.2.12-.85.11-.5.22-.97.37-1.52.1-.43.25-1.1.33-1.45.27-1.27.91-4.09.96-4.15.04-.09.14-.2.22-.2.21-.05.53,0,1.22.16.78.18.98.26,1.07.46.05.11.1.16.21.2.06.01.11.03.32,0,.45-.07.76-.06,1.17.03,1.32.3,2.15,1.15,2.14,2.54,0,.77-.33,2.84-.78,4.8Z"/>
          <path class="cls-2" d="M143.49,96.7c-.39.26-.73.36-1.33.44-.24.02-.37.01-.49-.01-.06-.01-.11-.03-.14-.07-.08-.06-.09-.12-.14-.4-.03-.14-.06-.35-.07-.45-.04-.24-.04-.32,0-.39.06-.08.15-.12.26-.12.14.01.45-.02.46-.03,0,0-.01-.02-.05-.03-.09-.06-.23-.19-.34-.31-.31-.36-.36-1-.11-1.49.11-.21.32-.48.47-.6.42-.32.86-.35,1.35-.24.38.13.72.3.95.66.27.37.35.79.35,1.24-.05.65-.51,1.39-1.16,1.81Z"/>
        </g>
        <g>
          <path class="cls-2" d="M48.62,54.41c.19-1.02.53-2.53,1-4.62.86-3.79,1.04-4.49,1.21-4.64.14-.11,0-.11,2.54.42,2.59.57,2.83.62,4.21.96.92.21.99.22,1.02.28.09.11.1.18.02.61-.06.38-.39,1.71-.53,2.12-.07.19-.14.31-.24.34-.1.04-.3,0-2.24-.49-1.44-.35-1.79-.43-2.25-.44-.53,0-.64.18-.87,1.28-.19.93-.15,1.17.18,1.36.12.07.3.11,1.88.47,1.69.38,1.75.4,1.83.46.06.04.1.09.12.19.02.1.01.14-.07.51-.05.22-.15.54-.19.72-.06.17-.17.54-.23.8-.15.57-.23.69-.44.73-.13.04-.64-.03-1.57-.22-1.81-.34-2.04-.37-2.29-.29-.15.03-.25.17-.34.38-.11.18-.32,1.22-.32,1.43.03.28.2.46.57.64.31.14,1.14.35,1.88.47.42.07.82.14,1.37.26.72.19.76.2.84.26.08.06.14.19.13.33,0,.09,0,.16-.24,1.47-.23,1.1-.37,1.53-.56,1.65s-.35.11-1.43-.12c-1.81-.36-2.4-.5-2.99-.66-.3-.09-.98-.27-1.48-.38-1.23-.28-1.53-.37-1.67-.59-.1-.16-.11-.12.37-2.24.24-1.07.57-2.62.76-3.45Z"/>
          <path class="cls-2" d="M62.98,59.61c.59.13,1.3.27,1.56.33.46.1.5.14.58.2.1.07.1.09.11.21.02.12,0,.18-.37,1.85-.43,1.89-.41,1.82-.58,1.85-.13.04-.61-.05-2.74-.53-1.08-.24-2.37-.54-2.92-.64l-1.21-.27c-.3-.09-.5-.23-.54-.35-.04-.12,0-.37.13-1.06.08-.37.22-1.06.3-1.52.11-.67.36-1.79.96-4.53.79-3.49,1.05-4.61,1.58-6.75.27-1.09.26-1.05.45-1.05.19,0,2.26.49,2.39.54q.18.11.05.68c-.65,3.06-.89,4.11-1.09,4.78-.09.42-.38,1.55-.6,2.54-.61,2.58-.64,2.83-.36,3.1.25.22.45.26,2.31.62Z"/>
          <path class="cls-2" d="M78.78,62.17c0-.37-.18-.71-.53-1-.24-.17-.71-.44-1.27-.7-.98-.45-1.47-.73-1.96-1.14-1.36-1.1-1.94-2.54-1.68-4.19.25-1.49,1.25-2.85,2.62-3.49,1.04-.5,2.25-.57,3.37-.32,1.36.31,2.7,1.21,3.22,2.58.23.61.35,1.39.26,1.81l-.03.15-.13.09c-.16.08-.26.13-.85.38-.17.05-.38.17-.49.21-.38.17-.53.2-.64.18-.13-.03-.15-.06-.34-.52-.31-.86-1.19-1.88-2.13-2.1-.5-.11-1.11.02-1.46.43-.53.62-.49,1.73.09,2.46.18.22.31.37.58.57.45.36.84.56,2.22,1.17.88.39,1.3.67,1.7,1.06.37.41.78,1.15.9,1.73.15.56.09,1.22-.01,1.77-.18.88-.41,1.38-.98,2.08-.81,1.04-1.91,1.62-3.21,1.74-.46,0-.76.01-1.19-.04-.33-.05-1.22-.21-1.39-.27-.04-.01-.17-.06-.32-.12-1.55-.49-2.98-1.51-3.64-3.04-.17-.36-.21-.51-.16-.7.04-.15.07-.19.16-.31.07-.1.19-.23.28-.31.09-.1.3-.3.46-.5.4-.44,1.2-1.23,1.43-1.43.11-.09.23-.11.34-.06.06.04.12.1.28.39.64,1.02,1.75,1.62,2.91,1.89.22.05.44.1.65.1.66.04.93-.13.96-.57Z"/>
          <path class="cls-2" d="M83.6,62.36c.19-1.02.53-2.53,1-4.62.86-3.79,1.04-4.49,1.21-4.64.14-.11,0-.11,2.54.42,2.59.57,2.83.62,4.21.96.92.21.99.22,1.02.28.09.11.1.18.02.61-.06.38-.39,1.71-.53,2.12-.07.19-.14.31-.24.34-.1.04-.3,0-2.24-.49-1.44-.35-1.79-.43-2.25-.44-.53,0-.64.18-.87,1.28-.19.93-.15,1.17.18,1.36.12.07.3.11,1.88.47,1.69.38,1.75.4,1.83.46.06.04.1.09.12.19.02.1.01.14-.07.51-.05.22-.15.54-.19.72-.06.17-.17.54-.23.8-.15.57-.23.69-.44.73-.12.04-.64-.03-1.56-.22-1.81-.34-2.04-.37-2.29-.29-.15.03-.25.17-.34.38-.11.18-.32,1.22-.32,1.43.03.28.2.46.57.64.31.14,1.14.35,1.88.47.42.07.82.14,1.37.26.72.19.76.2.84.26.08.06.14.19.13.33,0,.09,0,.16-.24,1.47-.23,1.1-.37,1.53-.56,1.65s-.35.11-1.43-.12c-1.81-.36-2.4-.5-2.99-.66-.3-.09-.98-.27-1.48-.38-1.23-.28-1.53-.37-1.67-.59-.1-.16-.11-.12.37-2.24.24-1.07.57-2.62.76-3.45Z"/>
          <path class="cls-2" d="M92.41,66.9c.37-1.62.76-3.33,1.48-6.4.55-2.3,1.03-4.42,1.1-4.73q.12-.55.18-.6c.11-.07.22-.06.66.01.62.1,3.43.73,3.88.88,1.02.3,1.39.48,1.88.77,1.37.89,1.96,2.43,1.76,4.02-.04.29-.19.93-.27,1.21-.43,1.26-1.4,2.5-2.65,3.04-.28.12-.42.21-.53.39-.11.16-.15.47-.11.8.03.26.21,1.2.38,1.98.08.36.61,2.38.73,2.87.25.82.22,1.16-.1,1.25-.07.03-.16,0-.68-.06-.53-.1-1.61-.34-2.02-.46-.09-.02-.28-.09-.43-.12-.41-.14-.55-.24-.59-.43-.08-.36-.31-1.5-.55-2.96-.18-1.15-.2-1.25-.35-1.72-.09-.3-.12-.37-.18-.41-.1-.07-.17-.06-.23.02-.11.16-.21.53-.62,2.31-.36,1.58-.41,1.8-.49,1.94-.13.25-.19.33-.32.37-.17.03-.77-.06-1.49-.22-.66-.15-.75-.17-.9-.3-.07-.09-.19-.28-.19-.37,0-.02.03-.25.08-.44.05-.22.32-1.4.59-2.61h-.02ZM96.55,61.59c-.02.41.05.59.3.69.12.07.61.16.86.17.78.02,1.77-.06,2.1-.91.12-.34.09-.72-.09-1.01-.27-.43-.71-.65-1.74-.88l-.55-.1-.13.04c-.15.06-.24.15-.34.38-.12.23-.4,1.36-.41,1.61Z"/>
          <path class="cls-2" d="M104.71,59.27c.08-1.27.13-1.59.27-1.69.11-.09.14-.11,1.02.09,1.22.23,1.32.3,1.42.65.04.15.04.65.01,1.16-.01.16-.01.46,0,.69,0,.23-.02.99-.04,1.7-.05,1.56-.06,2.29-.06,2.91-.02.57-.03,1.75-.05,2.25,0,.21,0,.41.01.46.06.24.26.27.4.07.03-.04.17-.33.3-.62.11-.3.34-.78.45-1.07.37-.82.63-1.45.85-2.02.13-.29.26-.63.31-.74.17-.33.47-1.07.82-1.89.36-.86.75-1.77.84-1.88.08-.14.21-.23.36-.26.16,0,.5.02,1.2.18.37.08,1.8.41,1.93.55.17.18.13.35-.27,1.3-.16.4-.39.93-.5,1.2-.13.27-.29.67-.39.92-.72,1.75-1.49,3.49-2.27,5.23-1.09,2.47-2.41,5.24-2.58,5.46-.26.31-.55.29-2.78-.26-1.71-.41-1.67-.38-1.71-1.1-.04-.33-.07-1.93-.08-2.6,0-.18.01-.66.03-1.05,0-.39.02-1.1.04-1.61.07-2.24.1-2.98.25-4.74.07-1.02.18-2.61.21-3.27Z"/>
          <path class="cls-2" d="M117.97,64.66c-.07.33-.17.86-.22,1.15-.16.82-1.12,5.05-1.39,6.12-.13.48-.37,1.44-.55,2.13-.3,1.32-.34,1.4-.46,1.53-.12.11-.19.12-.81,0-.71-.14-1.26-.26-1.46-.36-.4-.16-.5-.32-.44-.81.04-.38,1.97-8.57,2.48-10.51.34-1.28.58-2.27.73-2.9.23-.92.18-.88.93-.76.26.06.75.15,1.08.22.69.13.77.17.85.31l.07.09-.13.59c-.07.33-.22,1.06-.34,1.61-.1.55-.26,1.26-.34,1.58Z"/>
          <path class="cls-2" d="M118.13,73.47c-.12-.49-.15-.75-.18-1.15-.06-1.05.03-1.86.39-3.33.52-2.1,1.38-4.46,3.11-5.87,1.4-1.18,3.57-1.4,5.3-1.01,1.23.28,2.97.95,3.32,2.25.06.24,0,.37-.27.58-.23.18-.97.93-1.35,1.35-.13.16-.27.28-.33.32-.13.06-.19.03-.35-.17-.48-.64-1.2-1.1-1.97-1.28-2.33-.39-3.83,1.62-4.3,3.68-.12.41-.15.57-.15.77-.09,1.39.71,2.75,2.02,3.27.27.13.34.15.86.27.72.16,1.68.22,2.41.13.31-.02.37,0,.46.1.07.11.08.25.07.62,0,.32,0,1.34.02,1.73.03.19.02.42.02.53,0,.09,0,.3.02.42-.01.16-.02.27-.03.32-.13.25-1.17.59-2.11.67-.85.11-1.72.05-2.53-.14-2.19-.5-3.89-1.85-4.42-4.1h-.02Z"/>
          <path class="cls-2" d="M133.47,68.19c-.07.33-.17.86-.22,1.15-.16.82-1.12,5.05-1.39,6.12-.13.48-.37,1.44-.55,2.13-.3,1.32-.34,1.4-.46,1.53-.12.11-.19.12-.81,0-.71-.14-1.26-.26-1.46-.36-.4-.16-.5-.32-.44-.81.04-.38,1.97-8.57,2.48-10.51.34-1.28.58-2.27.73-2.9.23-.92.18-.88.93-.76.26.06.75.15,1.08.22.69.13.77.17.85.31l.07.09-.13.59c-.07.33-.22,1.06-.34,1.61-.1.55-.26,1.26-.34,1.58Z"/>
          <path class="cls-2" d="M145.89,74.33c-.31,1.47-.57,2.2-1.13,3.27-.55,1.1-1.21,1.96-1.95,2.58-1.2,1.02-3.25,1.31-4.74.97s-3.23-1.31-3.95-2.72c-.79-1.59-.84-3.63-.17-6.34.58-2.34,1.5-4.57,3.63-5.91,1.43-.9,2.72-1.09,4.34-.72.92.21,1.67.66,2.41,1.29,2.33,1.91,2.19,4.86,1.57,7.58ZM143.07,72.95c.45-1.97.36-4.32-2.05-4.87-.48-.11-1.01-.14-1.5-.02-1.42.46-2.22,2.54-2.57,3.82-.4,1.34-.4,2.38-.04,3.33.31.78.97,1.3,1.98,1.53,1.95.44,3.05-.44,3.75-2.28.14-.43.36-1.16.44-1.52Z"/>
        </g>
        <g>
          <path class="cls-2" d="M39.44,92.62c.29-1.62.84-4.01,1.59-7.32,1.37-6.02,1.66-7.12,1.93-7.35.22-.17,0-.18,4.02.66,4.11.9,4.49.98,6.68,1.52,1.46.33,1.56.36,1.62.44.14.18.15.29.04.96-.1.6-.62,2.71-.84,3.36-.11.3-.22.5-.38.54-.16.07-.48,0-3.56-.77-2.29-.56-2.84-.68-3.57-.7-.84,0-1.02.28-1.38,2.03-.3,1.47-.24,1.85.28,2.15.19.12.47.18,2.97.75,2.68.61,2.78.63,2.9.73.1.06.15.14.19.3.04.15.02.22-.11.82-.08.35-.23.86-.3,1.14-.1.27-.27.85-.36,1.27-.24.9-.36,1.09-.7,1.16-.2.07-1.01-.05-2.48-.34-2.88-.54-3.23-.59-3.63-.46-.23.06-.39.28-.54.61-.18.29-.51,1.93-.51,2.26.04.45.31.73.9,1.01.5.22,1.81.56,2.97.75.67.12,1.3.22,2.17.42,1.14.3,1.21.31,1.33.41.12.1.22.31.21.52,0,.15.01.26-.38,2.33-.36,1.75-.59,2.43-.89,2.61-.3.19-.55.17-2.26-.19-2.87-.58-3.81-.79-4.74-1.04-.48-.15-1.55-.42-2.35-.61-1.95-.44-2.43-.59-2.64-.93-.16-.26-.18-.19.59-3.56.39-1.7.91-4.14,1.21-5.47Z"/>
          <path class="cls-2" d="M62.21,100.86c.94.21,2.06.43,2.48.53.73.17.79.22.91.32.16.11.15.14.18.33.03.19,0,.29-.6,2.94-.68,2.99-.66,2.89-.92,2.93-.2.07-.97-.07-4.34-.84-1.7-.39-3.75-.85-4.63-1.02-.63-.14-1.29-.29-1.91-.43-.48-.15-.8-.36-.86-.56-.07-.2-.01-.59.2-1.67.13-.59.34-1.68.48-2.41.17-1.06.57-2.83,1.52-7.19,1.26-5.53,1.66-7.3,2.5-10.69.43-1.73.41-1.66.71-1.67.29,0,3.59.78,3.79.86q.29.17.08,1.08c-1.03,4.85-1.41,6.52-1.72,7.58-.15.66-.59,2.46-.95,4.03-.97,4.1-1.02,4.49-.57,4.92.4.35.71.42,3.65.98Z"/>
          <path class="cls-2" d="M76.82,106.27c-.19-.77-.24-1.19-.28-1.82-.1-1.67.05-2.95.61-5.27.83-3.32,2.19-7.07,4.93-9.3,2.22-1.87,5.66-2.22,8.41-1.6,1.95.44,4.7,1.51,5.26,3.57.09.39.01.59-.43.93-.36.29-1.54,1.48-2.13,2.15-.2.25-.43.45-.52.5-.21.1-.3.04-.56-.27-.76-1.01-1.91-1.75-3.12-2.03-3.7-.62-6.07,2.57-6.81,5.84-.18.65-.24.9-.24,1.22-.13,2.2,1.13,4.35,3.21,5.19.43.21.53.23,1.37.42,1.15.26,2.66.35,3.83.21.48-.04.59-.01.73.17.11.17.13.39.11.97,0,.51,0,2.12.03,2.75.04.3.03.67.03.85,0,.15,0,.48.03.67-.02.25-.02.43-.04.5-.2.39-1.86.93-3.35,1.07-1.35.17-2.72.08-4.01-.22-3.48-.79-6.17-2.94-7.01-6.49h-.03Z"/>
          <path class="cls-2" d="M91.59,113.54c.1-.27.33-.8.49-1.17.13-.41.38-1.05.58-1.44.41-1,.85-1.96,1.14-2.74.16-.4.39-.9.48-1.13s.25-.6.33-.8.28-.59.39-.93c.14-.3.36-.79.5-1.09.2-.58,1.02-2.4,1.5-3.39.66-1.46.88-1.96,1.1-2.42.09-.24.34-.84.52-1.34.22-.46.47-1.1.62-1.43.56-1.52.79-2.02,1.15-2.81.59-1.29.76-1.58,1.11-1.65.38-.06,3.25.48,5.33.99,1.52.38,1.79.48,1.94.63.12.1.17.37.13.54-.02.1-.03.47-.02.87-.02.4-.06.9-.07,1.12s-.06.57-.07.79c-.04.17-.11.82-.2,1.34-.26,1.81-.31,2.64-.41,5.83-.06,1.71-.11,2.57-.22,4.01-.14,2.05-.2,4.09-.11,6.12.04.78-.01,2.63-.19,3.4.01.26-.11.67-.18.8-.15.18-.3.19-.68.1-3.99-.94-3.85-.91-4.11-1.08-.16-.11-.18-.33-.11-1.12.05-.68.1-1.88.1-2.54,0-.51-.25-1.15-.59-1.41-.31-.25-.45-.28-1.73-.58-1.15-.26-1.18-.27-1.55-.28-.52.03-.79.11-1.02.28-.09.09-.23.2-.29.3-.1.12-.71,1.52-.97,2.19-.29.81-.67,1.49-.84,1.6s-.42.09-1.24-.17c-.37-.12-.78-.25-.93-.25-.21-.05-1.61-.29-1.73-.28-.1-.02-.21-.05-.27-.1-.15-.14-.13-.21.1-.75ZM100.17,104.08c-.05.21,0,.51.12.61.06.05.13.07.45.1l1.32.3c.83.19.95.18,1.02.16.16-.07.27-.23.33-.47.07-.31.16-1.35.18-1.75,0-.62.02-1.71.07-2.25.09-1.52.08-1.96-.02-2.31-.1-.35-.43-.5-.76-.36-.21.1-.31.26-.68,1.05-.11.3-.38.86-.54,1.23-.58,1.26-1.42,3.34-1.5,3.68Z"/>
          <path class="cls-2" d="M110.1,113.83c1.45-6.4,3.38-15.21,3.55-16.09.07-.46.26-1.29.38-1.85.21-.94.28-1.07.35-1.2.14-.15.27-.23.5-.25.53-.1.49-.07,5.92,1.16,3.48.79,5.21,1.22,5.38,1.26.37.16.49.26.55.49,0,.15.01.26-.18,1.09-.12.52-.28,1.07-.35,1.24-.04.17-.22.79-.34,1.35-.26,1-.27,1.04-.42,1.19-.06.1-.19.18-.23.2-.16.07-.59.01-2.33-.35-3.31-.72-4.22-.89-4.58-.78-.36.14-.47.3-.67,1.35-.17.73-.15.81.11.97.32.22.69.34,2.33.71l1.49.34.19.15c.37.3.36.52-.1,2.36-.36,1.42-.44,1.77-.64,2.01-.11.16-.32.29-.43.27-.08.02-.67-.12-1.37-.24-2.1-.41-2.39-.43-2.77-.19-.17.11-.26.16-.35.4-.18.29-.14.12-1.31,5.3l-1.01,4.45s-.13.08-.17.11c-.12.05-.19.03-1.29-.26-.63-.14-1.31-.34-1.49-.34-.17-.04-.6-.1-.88-.16-.49-.11-.56-.13-.61-.21-.05-.08-.07-.16-.1-.21-.02-.08.25-1.26.9-4.29v.03Z"/>
          <path class="cls-2" d="M124.95,112.05c.29-1.62.84-4.01,1.59-7.32,1.37-6.02,1.66-7.12,1.93-7.35.22-.17,0-.18,4.02.66,4.11.9,4.49.98,6.68,1.52,1.46.33,1.56.36,1.62.44.14.18.15.29.04.96-.1.6-.62,2.71-.84,3.36-.11.3-.22.5-.38.54-.16.07-.48,0-3.56-.77-2.29-.56-2.84-.68-3.57-.7-.84,0-1.02.28-1.38,2.03-.3,1.47-.24,1.85.28,2.15.19.12.47.18,2.97.75,2.68.61,2.78.63,2.9.73.1.06.15.14.19.3.04.15.02.22-.11.82-.08.35-.23.86-.3,1.14-.1.27-.27.85-.36,1.27-.24.9-.36,1.09-.7,1.16-.2.07-1.01-.05-2.48-.34-2.88-.54-3.23-.59-3.63-.46-.23.06-.39.28-.54.61-.18.29-.51,1.93-.51,2.26.04.45.31.73.9,1.01.5.22,1.81.56,2.97.75.67.12,1.3.22,2.17.42,1.14.3,1.21.31,1.33.41.12.1.22.31.21.52,0,.15.01.26-.38,2.33-.36,1.75-.59,2.43-.89,2.61-.3.19-.55.17-2.26-.19-2.87-.58-3.81-.79-4.74-1.04-.48-.15-1.55-.42-2.35-.61-1.95-.44-2.43-.59-2.64-.93-.16-.26-.18-.19.59-3.56.39-1.7.91-4.14,1.21-5.47Z"/>
        </g>
        <g>
          <path class="cls-2" d="M42.18,115.28c-.07.82-.1.96-.26,1.15-.13.15-.52.4-.77.51-.71.23-1.41.29-2.14.22-.27-.02-.9-.16-1.17-.24-2.45-.92-3.38-2.22-3.25-4.99.02-.4.2-1.3.35-1.74.32-.91.74-1.56,1.39-2.23,1.34-1.38,2.76-1.72,4.55-1.31.37.08.73.19.92.25.5.2,2.17.97,2,1.73-.02.11-.09.21-.3.41-.06.08-.31.36-.53.63-.45.56-.57.71-.69.75-.12.04-.19.03-.37-.18-.2-.2-.42-.37-.69-.57-.48-.29-.75-.42-1.09-.5-1.36-.31-2.05.24-2.4,1.55-.13.47-.13.86-.01,1.27.07.29.28.56.51.77.29.23.94.46,1.68.63.65.15,1.33.24,1.88.22.3-.02.41,0,.5.11.11.12.1.25.04.74-.05.24-.09.59-.12.81Z"/>
          <path class="cls-2" d="M52.17,114.64c-.26,1.12-.52,1.77-.97,2.56-.95,1.49-2.58,2.35-4.35,1.94-1.43-.32-2.61-1.21-3.14-2.6-.09-.29-.22-.82-.26-1.15-.11-1.12.11-2.57.58-3.64.95-2.08,2.68-3.46,5.12-2.91.76.17,1.44.37,2.03.87,1.37,1.18,1.36,3.31.99,4.93ZM49.6,113.74c.23-1.02.17-2.35-1.06-2.63-.26-.06-.53-.05-.81.04-.18.07-.49.27-.64.42-.42.43-.77,1.19-.9,1.87-.19,1.14.06,1.95,1.25,2.22.78.18,1.38-.05,1.77-.8.17-.33.27-.6.39-1.12Z"/>
          <path class="cls-2" d="M64.21,115.9c-.07.51-.79,3.87-1.02,4.7-.27,1.08-.39,1.44-.57,1.62-.17.17-.32.22-.63.18-.29-.02-1.43-.3-1.58-.36-.23-.1-.3-.27-.28-.56.03-.36.32-1.72.69-3.35.34-1.49.37-1.71.4-1.96.04-.65-.06-1.13-.28-1.29-.11-.09-.31-.14-.41-.09-.17.03-.33.27-.45.58-.09.18-.35,1.35-.49,2.14-.08.35-.19.93-.25,1.31-.21,1.11-.36,1.76-.43,1.99-.3.82-.93.7-1.62.54-.43-.1-1.23-.3-1.27-.83-.03-.37.15-1.15.52-2.29.51-1.64.79-3.19.69-3.75-.05-.28-.23-.48-.43-.53-.35-.08-.51.23-.64.49-.16.31-.54,2.08-.93,4.2-.21,1.11-.27,1.3-.49,1.55-.12.13-.34.31-.48.32-.15.06-.37.03-.76-.06-.91-.21-1.19-.36-1.22-.73-.02-.23.07-.6.57-2.71.25-1.1.71-3.02,1-4.28l.54-2.29.06-.08c.28-.21,1.31.03,1.66.1.24.05.29.11.4.23.14.17.16.17.43.12.41-.09.57-.1,1.03-.02.69.16,1.33.44,1.77,1.04.08.13.21.28.24.33q.1.07.22.05c.07,0,.19-.03.25-.08.66-.3,1.34-.4,2.06-.24,2.03.46,2.02,2.23,1.71,3.98v.02Z"/>
          <path class="cls-2" d="M73.47,119.48c-.26,1.12-.52,1.77-.97,2.56-.95,1.49-2.58,2.35-4.35,1.94-1.43-.32-2.61-1.21-3.14-2.6-.09-.29-.22-.82-.26-1.15-.11-1.12.11-2.57.58-3.64.95-2.08,2.68-3.46,5.12-2.91.76.17,1.44.37,2.03.87,1.37,1.18,1.36,3.31.99,4.93ZM70.9,118.58c.23-1.02.17-2.35-1.06-2.63-.26-.06-.53-.05-.81.04-.18.07-.49.27-.64.42-.42.43-.77,1.19-.9,1.87-.19,1.14.06,1.95,1.25,2.22.78.18,1.38-.05,1.77-.8.17-.33.27-.6.39-1.12Z"/>
          <path class="cls-2" d="M87.74,124.54s.07.08.08.15c.02.1.01.14-.26,1.24l-.29,1.16-.1.12c-.35.44-2.45.28-2.96.21-.31-.05-.91-.18-1.25-.28-2.58-.84-3.28-2.27-3.06-4.86.02-.4.25-1.4.4-1.77.89-2.3,3.03-4.11,5.6-3.53,1.51.34,2.61,1.21,2.84,2.83.08.93-.14,1.9-.66,2.81-.2.37-.35.56-.46.62-.15.08-.22.06-.54-.03-.89-.29-2.24-.65-3.03-.8l-.57-.11-.1.05c-.25.1-.33.24-.34.58,0,.82.46,1.06,1.2,1.23l.15.03c.63.14,1.39.2,2.71.21.36.01.56.06.63.12v.02ZM83.76,120.02s.32.07,1.14.19c.9.14,1.1.16,1.16.08.09-.09-.04-.42-.27-.63-.15-.15-.33-.26-.57-.31-.43-.1-.84,0-1.21.3-.22.16-.3.3-.27.37Z"/>
          <path class="cls-2" d="M96.53,129.86c.03.19-.12.34-.34.4-.24.06-.59-.02-1.88-.34-.62-.16-.75-.22-.94-.37-.15-.13-.19-.18-.25-.31-.06-.13-.32-.89-.4-1.23-.14-.49-.25-.72-.33-.76-.1-.07-.19-.04-.29.07-.06.05-.27.3-.49.55-.72.86-.77.89-.96.94-.12.04-.53.02-.88-.02-.39-.07-1.37-.29-1.57-.38-.29-.11-.41-.3-.34-.49.11-.27.75-1.01,2.57-2.92.78-.82.84-.88.96-1.15.13-.27.13-.36-.15-1.44-.19-.86-.36-1.61-.45-2.11-.02-.12-.08-.36-.11-.52-.15-.76-.2-1.21-.19-1.27.02-.11.1-.14.3-.14.2.02,1.75.42,2.19.57.34.1.4.14.5.32.13.21.22.41.42,1.17.1.34.22.64.23.69.02.03.06.06.08.06.06.01.23-.13.82-.72.68-.69.73-.72,1.01-.75.13,0,.55.08.96.17.45.1.95.24,1.11.32.12.07.2.21.2.32q0,.11-.6.73c-.63.65-1.23,1.31-1.82,2-.66.69-.66.71-.73.99l-.07.21.06.24c.04.14.18.61.31,1.05.56,1.93,1.07,3.81,1.07,4.11Z"/>
          <path class="cls-2" d="M105.06,129.57c-.07.82-.1.96-.26,1.15-.13.15-.52.4-.77.51-.71.23-1.41.29-2.14.22-.27-.02-.9-.16-1.17-.24-2.45-.92-3.38-2.22-3.25-4.99.02-.4.2-1.3.35-1.74.32-.91.74-1.56,1.39-2.23,1.34-1.38,2.76-1.72,4.55-1.31.37.08.73.19.92.25.5.2,2.17.97,2,1.73-.02.11-.09.21-.3.41-.06.08-.31.36-.53.63-.45.56-.57.71-.69.75-.12.04-.19.03-.37-.18-.2-.2-.42-.37-.69-.57-.48-.29-.75-.42-1.09-.5-1.36-.31-2.05.24-2.4,1.55-.13.47-.13.86-.01,1.27.07.29.28.56.51.77.29.23.94.46,1.68.63.65.15,1.33.24,1.88.22.3-.02.41,0,.5.11.11.12.1.25.04.74-.05.24-.09.59-.12.81Z"/>
          <path class="cls-2" d="M114.37,131.51c-.1.34-.24.95-.34,1.29-.17.73-.19.75-.37.94-.12.11-.24.17-.43.18-.24.04-.59,0-.96-.08-.35-.08-.95-.22-1.08-.54-.06-.15-.18-.31-.28-.36-.12-.07-.28-.06-.66-.01-.52.07-1.01.04-1.51-.07-2.38-.54-2.54-2.22-2.23-4.4.1-.64.77-3.51,1.04-4.49.12-.43.25-.9.29-1.07.11-.39.19-.53.34-.58l.1-.02.91.21c1.01.25,1.22.32,1.42.48q.17.15.03.78c-.06.28-.14.61-.19.73-.11.27-.65,2.56-.75,3.2-.17.87-.13,1.38.84,1.6.26.06.3.07.47.04.23-.02.52-.09.62-.13.11-.07.25-.22.33-.33.2-.37.33-.74.7-2.39.17-.74.39-1.62.49-1.96.19-.73.2-.79.42-.84.24-.06.76-.03,1.28.09.11.02.21.07.32.09.6.18.7.21.6.84-.04.19-.09.5-.1.66-.07.6-.96,4.83-1.29,6.17Z"/>
          <path class="cls-2" d="M123.16,133.09c-.87,2.33-2.61,2.68-4.9,2.16-1.04-.24-2.96-.99-2.96-2.2-.03-.37.27-1.17.59-1.71.25-.4.48-.62.64-.63.14-.01.27.04.58.27.63.44,1.08.65,1.81.82.43.1,1.38.24,1.61-.18.12-.24-.25-.51-1.1-.75-.85-.26-1.28-.47-1.73-.87-.29-.22-.5-.5-.64-.8-.58-1.15-.26-2.74.73-3.72.85-.74,1.94-.85,3.03-.61.8.18,1.66.58,2.23,1.21.17.15.6.84.68,1.02.1.25.09.52-.06.67-.19.23-1.43,1.08-1.69,1.03-.1-.05-.16-.08-.2-.11-.02-.03-.14-.17-.25-.31-.42-.46-1.01-.87-1.46-.97-.19-.04-.29-.02-.46,0-.18.07-.27.19-.33.36-.18.8.99,1.25,1.56,1.42,1.34.42,1.4.45,1.74.74.4.34.7.84.78,1.38.1.57.05,1.1-.2,1.77Z"/>
          <path class="cls-2" d="M133.03,133.09c-.29,1.37-.4,1.86-.58,2.53-.42,1.66-.56,2.08-.76,2.26-.12.13-.16.12-.97-.04-.48-.11-.74-.17-.8-.2-.12-.05-.22-.21-.3-.39-.1-.27-.28-.38-.62-.46-.18-.02-.2-.02-.56.08-.46.1-.73.13-1.1.14-.2,0-.53-.05-.75-.1-.78-.18-1.45-.72-1.87-1.38-.89-1.48-.74-3.83.31-5.87,1.06-1.99,2.77-2.89,4.96-2.4.39.09.66.2,1.05.47.14.1.26.15.37.17.15.03.28,0,.44-.13.19-.14.34-.17.62-.13.26.04.76.15.96.27.35.15.51.37.53.69,0,.09-.1.55-.29,1.46-.16.71-.45,2.08-.64,3.02v.02ZM130.43,131.52c.14-.42.17-.87.11-1.18-.16-.51-.51-.77-1-.89-.69-.16-1.32.09-1.77.6-.54.65-.66,1.49-.32,2,.24.33.62.6,1.03.69.58.13,1.22-.09,1.6-.55.16-.21.24-.35.36-.67Z"/>
        </g>
      </g>
      <path class="cls-2" d="M68.76,135.85c-2.07,3.85.71,9.37,6.21,12.33,5.5,2.96,11.64,2.24,13.71-1.6,2.07-3.85-.71-9.37-6.21-12.33-5.5-2.96-11.64-2.25-13.71,1.6ZM77.2,137.1c1.46.45,2.56,1.57,3.26,3.33.93,2.35,4.64,2.14,4.68,2.13.6-.04,1.13.37,1.24.95,0,.04.01.09.02.14.05.65-.44,1.21-1.09,1.26-.22.02-5.47.36-7.04-3.62-.43-1.08-1-1.71-1.75-1.95-1.3-.4-2.99.45-3.53.82-.54.36-1.27.22-1.63-.32-.36-.54-.22-1.27.31-1.63.12-.08,2.89-1.94,5.54-1.12Z"/>
      <path class="cls-2" d="M113.69,41.82c.13-4.37-4.82-8.06-11.07-8.25-6.25-.19-11.42,3.2-11.55,7.56-.13,4.37,4.82,8.06,11.07,8.25,6.25.19,11.42-3.2,11.55-7.56ZM105.58,44.47c-1.51.25-2.99-.26-4.4-1.53-1.88-1.69-5.11.16-5.14.18-.52.31-1.18.18-1.54-.29-.03-.04-.05-.07-.08-.11-.33-.56-.15-1.28.41-1.61.19-.11,4.73-2.77,7.92.08.86.77,1.66,1.09,2.44.96,1.34-.22,2.47-1.74,2.79-2.31.32-.57,1.04-.77,1.6-.45.57.32.77,1.03.45,1.6-.07.12-1.72,3.02-4.45,3.48Z"/>
    </g>
  </g>
</svg>