<?xml version="1.0" encoding="UTF-8"?>
<svg id="Capa_2" data-name="Capa 2" xmlns="http://www.w3.org/2000/svg" viewBox="0 0 151.23 139.54">
  <defs>
    <style>
      .cls-1 {
        fill: #a41f25;
      }

      .cls-2 {
        fill: #e8dbca;
      }
    </style>
  </defs>
  <g id="Capa_1-2" data-name="Capa 1">
    <g>
      <path class="cls-1" d="M75.61,6.72C37.72,6.72,6.72,37.72,6.72,75.61v41.05c0,8.89,7.28,16.17,16.17,16.17h105.46c8.89,0,16.17-7.28,16.17-16.17v-41.05c0-37.89-31-68.9-68.9-68.9Z"/>
      <path class="cls-2" d="M75.61,6.72c37.89,0,68.9,31,68.9,68.9v41.05c0,8.89-7.28,16.17-16.17,16.17H22.88c-8.89,0-16.17-7.28-16.17-16.17v-41.05C6.72,37.72,37.72,6.72,75.61,6.72M75.61,0C33.92,0,0,33.92,0,75.61v41.05c0,12.62,10.27,22.88,22.88,22.88h105.46c12.62,0,22.88-10.27,22.88-22.88v-41.05C151.23,33.92,117.31,0,75.61,0h0Z"/>
      <g>
        <g>
          <path class="cls-2" d="M29.78,73.85c.06-.46.23-1.36.34-1.99.06-.68.23-1.76.4-2.44.28-1.7.62-3.35.8-4.66.11-.68.28-1.53.34-1.93.06-.4.17-1.02.23-1.36.06-.34.23-1.02.28-1.59.11-.51.28-1.36.4-1.87.11-.97.74-4.09,1.14-5.8.51-2.5.68-3.35.85-4.15.06-.4.23-1.42.34-2.27.17-.79.34-1.87.46-2.44.34-2.56.51-3.41.79-4.77.46-2.22.63-2.73,1.14-2.95.57-.23,5.23-.4,8.64-.34,2.5.06,2.95.11,3.24.28.23.11.4.51.4.79,0,.17.11.74.28,1.36.11.62.23,1.42.28,1.76.06.34.11.91.17,1.25,0,.28.11,1.31.17,2.16.23,2.9.45,4.2,1.42,9.2.51,2.67.74,4.03,1.08,6.31.51,3.24,1.14,6.42,1.99,9.55.34,1.19.91,4.09.91,5.34.11.4.06,1.08,0,1.31-.17.34-.4.4-1.02.4-6.53-.06-6.31-.06-6.76-.23-.28-.11-.4-.46-.57-1.71-.17-1.08-.51-2.95-.74-3.98-.17-.79-.8-1.71-1.42-1.99-.57-.28-.8-.28-2.9-.28-1.87,0-1.93,0-2.5.11-.8.23-1.19.45-1.48.8-.11.17-.28.4-.34.57-.11.23-.57,2.61-.74,3.75-.17,1.36-.51,2.56-.74,2.78s-.62.28-1.99.17c-.62-.06-1.31-.11-1.53-.06-.34,0-2.61.11-2.79.17-.17,0-.34,0-.45-.06-.28-.17-.28-.28-.11-1.19ZM39.78,56.12c0,.34.17.8.4.91.11.06.23.06.74,0h2.16c1.36,0,1.53-.06,1.65-.11.23-.17.34-.46.34-.85,0-.51-.23-2.16-.34-2.78-.23-.97-.57-2.67-.68-3.52-.4-2.39-.57-3.07-.85-3.58-.28-.51-.85-.63-1.31-.28-.28.23-.4.51-.68,1.87-.06.51-.28,1.48-.4,2.1-.46,2.16-1.02,5.68-1.02,6.25Z"/>
          <path class="cls-2" d="M58.59,48.79c0-2.61-.06-6.42-.06-8.47,0-3.41,0-3.75.11-3.98.11-.34.28-.51.57-.62.34-.11,8.92-.06,9.38.06.34.06.8.28.97.46.4.45,1.93,3.98,2.9,6.7s1.99,5.45,3.01,8.18c1.25,3.24,1.25,3.3,1.31,3.41.06.11.17-7.16.17-13.07,0-5.4,0-5.28.34-5.63.34-.34.57-.34,3.12-.34,1.93,0,2.44,0,2.78.11.85.17,1.02.28,1.19.85.06.28.06,1.65.06,18.53v18.18l-.11.45c-.23.8-.68,1.08-1.93,1.19-1.19.06-5.57.17-6.99.17-1.14-.06-1.36-.06-1.76-.17-1.31-.4-1.53-.8-2.56-4.15-.34-1.19-.8-2.84-1.02-3.58-.23-.8-.62-2.27-.91-3.24s-.68-2.44-.91-3.24c-.91-3.24-1.82-6.42-2.39-8.13-.11-.51-.17-.17-.11,1.82,0,1.08.06,3.58.06,5.51.11,5.51.17,9.94.17,12.27v2.16l-.17.28c-.11.17-.23.28-.34.34-.46.23-4.77.28-5.4.11-1.08-.28-1.31-1.02-1.36-4.89-.06-2.22-.11-15.34-.11-21.31Z"/>
          <path class="cls-2" d="M89,67.77c0-10.46-.11-24.83-.17-26.25-.06-.74-.06-2.1-.06-3.01,0-1.53.06-1.76.11-1.99.17-.28.34-.46.68-.57.8-.34.74-.28,9.6-.28,5.68,0,8.52.06,8.81.06.62.11.85.23,1.02.57.06.23.11.4.11,1.76,0,.85-.06,1.76-.11,2.04,0,.28-.06,1.31-.06,2.22-.06,1.65-.06,1.7-.23,1.99-.06.17-.23.34-.28.4-.23.17-.91.23-3.75.28-5.4.06-6.87.11-7.39.4-.51.34-.62.62-.57,2.33,0,1.19.06,1.31.51,1.48.57.23,1.19.28,3.86.28h2.44l.34.17c.68.34.74.68.68,3.69-.06,2.33-.06,2.9-.28,3.35-.11.28-.4.57-.57.57-.11.06-1.08.06-2.22.11-3.41.11-3.86.17-4.38.68-.23.23-.34.34-.4.74-.17.51-.17.23-.17,8.69v7.27c-.06.06-.17.17-.23.23-.17.11-.28.11-2.1.06-1.02,0-2.16-.06-2.44,0-.28,0-.97.06-1.42.06-.8,0-.91,0-1.02-.11s-.17-.23-.23-.28c-.06-.11-.06-2.05-.11-6.99v.06Z"/>
          <path class="cls-2" d="M118.94,46.18c0,.85.06,2.22.11,2.95.06,2.1.06,13.07,0,15.85-.06,1.25-.11,3.75-.17,5.57,0,3.41-.06,3.64-.28,4.03-.23.34-.4.4-1.99.46-1.82.06-3.24.06-3.81-.06-1.08-.17-1.42-.51-1.53-1.76-.11-.97.06-22.22.23-27.27.11-3.35.17-5.91.17-7.56.06-2.39-.06-2.27,1.87-2.39.68,0,1.93-.06,2.79-.06,1.76-.06,1.99,0,2.27.28l.23.17v1.53c0,.85.06,2.73.06,4.15.06,1.42.06,3.24.06,4.09Z"/>
          <path class="cls-2" d="M28.05,95.29c-.06,1.59-.06,3.35,0,5.8.06,1.93.11,4.89.11,6.59.06,1.65.11,3.75.11,4.6.06,2.33,0,5.57-.11,6.31-.28,1.59-.74,2.05-2.33,2.22-.79.11-2.73.11-3.47.06-1.08-.06-1.71-.34-2.05-.97-.23-.34-.4-1.19-.4-1.99,0-.4,0-1.48-.06-2.39-.17-2.78-.11-14.94.06-20.4.06-1.48,0-1.71-.28-2.16-.17-.28-.4-.51-.74-.62-.79,0-4.26-.06-4.66-.28-.17-.06-.46-.17-.57-.28-.68-.46-1.08-1.82-1.19-4.09-.17-3.18.06-4.77.8-5.51.34-.28.68-.45,1.31-.51.74-.11,18.47-.17,19.26-.06.85.06,1.14.23,1.42.74.17.28.17,1.36.23,4.72,0,1.99,0,2.78-.06,3.07-.17.91-.51,1.53-1.02,1.82-.34.17-1.14.23-3.41.23-1.19,0-1.87,0-2.04.06-.34.11-.63.34-.74.57s-.11.4-.17,2.5Z"/>
          <path class="cls-2" d="M37.76,111.83c0-4.2,0-8.64.06-16.59.06-5.97.06-11.48.06-12.27q0-1.42.11-1.59c.23-.23.51-.28,1.65-.34,1.59-.11,8.86-.11,10.06,0,2.67.17,3.69.4,5.06.85,3.86,1.42,6.19,4.89,6.59,8.92.06.74.06,2.39,0,3.12-.34,3.35-2.05,6.93-4.83,8.98-.62.45-.91.74-1.08,1.25-.17.45-.11,1.25.17,2.04.23.62,1.19,2.84,2.05,4.66.4.85,2.84,5.51,3.41,6.65,1.08,1.87,1.19,2.73.46,3.12-.17.11-.4.11-1.71.23-1.36.06-4.15.06-5.23,0-.23,0-.74-.06-1.14-.06-1.08-.11-1.48-.28-1.71-.74-.4-.85-1.59-3.52-3.01-6.99-1.08-2.73-1.19-2.96-1.82-4.03-.4-.68-.51-.85-.68-.91-.28-.11-.45-.06-.57.17-.17.46-.23,1.42-.23,6.02,0,4.09,0,4.66-.11,5.06-.17.68-.28.91-.57,1.08-.4.17-1.93.28-3.81.28-1.71,0-1.93,0-2.39-.23-.23-.17-.62-.57-.68-.8,0-.06-.06-.62-.06-1.14v-6.76h-.06ZM44.98,96.43c.17,1.02.46,1.42,1.14,1.53.34.11,1.59.06,2.22-.06,1.93-.4,4.32-1.14,4.66-3.41.11-.91-.17-1.82-.8-2.44-.91-.91-2.1-1.19-4.77-1.19l-1.42.06-.28.17c-.34.23-.51.51-.62,1.14-.17.62-.23,3.58-.11,4.2Z"/>
          <path class="cls-2" d="M72.6,92c0,.85.06,2.22.11,2.95.06,2.1.06,13.07,0,15.85-.06,1.25-.11,3.75-.17,5.57,0,3.41-.06,3.64-.28,4.03-.23.34-.4.4-1.99.46-1.82.06-3.24.06-3.81-.06-1.08-.17-1.42-.51-1.53-1.76-.11-.97.06-22.22.23-27.27.11-3.35.17-5.91.17-7.56.06-2.39-.06-2.27,1.87-2.39.68,0,1.93-.06,2.79-.06,1.76-.06,1.99,0,2.27.28l.23.17v1.53c0,.85.06,2.73.06,4.15.06,1.42.06,3.24.06,4.09Z"/>
          <path class="cls-2" d="M109.99,94.61c0-2.61-.06-6.42-.06-8.47,0-3.41,0-3.75.11-3.98.11-.34.28-.51.57-.62.34-.11,8.92-.06,9.38.06.34.06.8.28.97.46.4.45,1.93,3.98,2.9,6.7s1.99,5.45,3.01,8.18c1.25,3.24,1.25,3.3,1.31,3.41.06.11.17-7.16.17-13.07,0-5.4,0-5.28.34-5.63.34-.34.57-.34,3.12-.34,1.93,0,2.44,0,2.79.11.85.17,1.02.28,1.19.85.06.28.06,1.65.06,18.52v18.18l-.11.45c-.23.8-.68,1.08-1.93,1.19-1.19.06-5.57.17-6.99.17-1.14-.06-1.36-.06-1.76-.17-1.31-.4-1.53-.8-2.56-4.15-.34-1.19-.8-2.84-1.02-3.58-.23-.8-.62-2.27-.91-3.24s-.68-2.44-.91-3.24c-.91-3.24-1.82-6.42-2.39-8.13-.11-.51-.17-.17-.11,1.82,0,1.08.06,3.58.06,5.51.11,5.51.17,9.94.17,12.27v2.16l-.17.28c-.11.17-.23.28-.34.34-.45.23-4.77.28-5.4.11-1.08-.28-1.31-1.02-1.36-4.89-.06-2.22-.11-15.34-.11-21.31Z"/>
          <path class="cls-2" d="M106.96,81.67l-4.64-2.16c-.55-.26-1.2-.11-1.58.36l-2.1,2.59s-.08-.05-.12-.07c-2.16-1.14-4.26-1.82-6.65-1.82-4.2,0-7.27,1.19-10.28,4.2-4.49,4.49-5.51,10.51-5.62,16.59-.11,7.05,1.14,12.05,3.98,15.51,2.56,3.07,7.39,4.49,11.25,4.49s8.75-1.87,11.14-5.06c1.48-1.93,2.61-4.43,3.35-7.44.79-2.95,1.02-4.89.97-8.69,0-4.76-.6-9.64-3.09-13.37l3.68-2.91c.77-.61.63-1.82-.26-2.23ZM98.68,102.34c-.68,4.94-2.9,7.73-7.96,7.73-2.61,0-4.55-.91-5.74-2.67-1.42-2.16-1.99-4.72-1.76-8.24.17-3.35.97-8.92,4.2-10.85,1.14-.57,2.44-.79,3.69-.79,6.25,0,7.78,5.74,7.78,10.85,0,.91-.11,2.84-.23,3.98Z"/>
        </g>
        <path class="cls-2" d="M14.72,60.17c-2.65,1.81-2.69,6.36-.1,10.15,2.6,3.79,6.85,5.39,9.5,3.57,2.65-1.81,2.69-6.36.1-10.15-2.6-3.79-6.85-5.39-9.5-3.57ZM19.81,63.83c.8.79,1.14,1.89,1,3.28-.19,1.85,2.31,2.96,2.34,2.97.41.17.61.62.49,1.04,0,.03-.02.06-.03.09-.19.44-.7.65-1.13.46-.15-.06-3.7-1.61-3.38-4.74.08-.85-.08-1.45-.49-1.86-.71-.7-2.11-.71-2.58-.66-.47.06-.9-.28-.96-.76-.05-.48.28-.9.75-.96.1-.01,2.54-.29,4,1.13Z"/>
        <path class="cls-2" d="M125.21,63.74c-2.6,3.79-2.55,8.33.1,10.15,2.65,1.81,6.9.21,9.5-3.57,2.6-3.79,2.55-8.33-.1-10.15-2.65-1.82-6.9-.21-9.5,3.57ZM133.61,62.7c.47.06.81.49.75.96-.06.47-.49.81-.96.76-.48-.05-1.87-.04-2.58.66-.41.41-.57,1.02-.49,1.86.31,3.13-3.23,4.67-3.38,4.74-.44.19-.95-.02-1.13-.46-.01-.03-.02-.06-.03-.09-.12-.42.08-.87.49-1.04.02-.01,2.52-1.12,2.34-2.97-.14-1.39.2-2.49,1-3.28,1.46-1.43,3.89-1.15,4-1.13Z"/>
      </g>
    </g>
  </g>
</svg>