<?xml version="1.0" encoding="UTF-8"?>
<svg id="Capa_2" data-name="Capa 2" xmlns="http://www.w3.org/2000/svg" viewBox="0 0 351.1 124.44">
  <defs>
    <style>
      .cls-1 {
        fill: #a41f25;
      }

      .cls-2 {
        fill: #e8dbca;
      }
    </style>
  </defs>
  <g id="Capa_1-2" data-name="Capa 1">
    <g>
      <rect class="cls-2" x="74.79" y="61.5" width="276.14" height="52.9" rx="19.63" ry="19.63" transform="translate(7.36 -16.04) rotate(4.39)"/>
      <g>
        <path class="cls-1" d="M93.84,93.6c-.08-.09.11-2.46.46-7.13.67-8.74,1.23-14.9,1.36-16.06.14-.7.18-1.24.25-2.7.06-1.88.12-2.13.26-2.28.13-.07.44-.22.73-.24.68-.07,1.93-.06,3.39.05s3.08.32,4.52.56c1.62.12,4.02.52,5.29,1.49,1.7,1.3,2.19,3.6,2.04,5.64-.12,1.62-.6,2.93-1.7,4.14-.42.51-.52.8-.37.98,0,.08.23.27.47.46,2.09,1.71,2.8,3.94,2.67,6.61,0,.5-.04,1.04-.11,1.42-.91,5.29-4.53,8.28-9.94,8.37-.63.04-2.42-.06-2.63-.12-.25-.06-2.61-.33-4.19-.49-1.16-.13-1.91-.19-1.99-.24-.24-.1-.44-.28-.51-.46ZM99.52,85.66c.05.42.16.64.44.79.24.15.45.2.82.23,2.33.18,4.85-.46,5.06-3.21.06-.79.03-1-.38-1.62-.34-.53-1.53-1.29-2.43-1.57-.33-.07-.62-.13-1.16-.17-.75-.06-1.47.01-1.82.82-.21.53-.27.82-.45,2.65-.12,1.54-.13,1.75-.08,2.09ZM100.62,75.07c.11.22.31.32.64.38.33.07,1.42.11,1.75.09.68-.07,1.45-.35,2.03-.77,1.11-.75,1.64-2.26,1.18-3.34-.14-.31-.53-.71-.94-.91-.6-.38-1.34-.56-2.46-.65-.58-.04-.67-.05-.93.05-.55.12-.87.39-1.07.88-.06.25-.12.45-.16.99-.03.42-.12.95-.18,1.24-.15.83-.08,1.63.14,2.02Z"/>
        <path class="cls-1" d="M113.43,94.81c.07-.33.24-.99.36-1.44.08-.5.27-1.28.43-1.77.3-1.23.65-2.42.85-3.37.12-.49.29-1.11.36-1.4.06-.29.18-.74.24-.99.06-.25.22-.74.3-1.15.11-.37.28-.98.4-1.35.14-.7.77-2.96,1.16-4.18.51-1.8.69-2.42.86-2.99.06-.29.25-1.03.38-1.65.17-.57.35-1.35.47-1.77.39-1.85.57-2.47.85-3.45.46-1.6.61-1.96,1-2.1.43-.13,3.85,0,6.35.24,1.83.18,2.16.25,2.36.39.16.1.26.4.25.6,0,.12.04.55.13,1.02.05.46.09,1.05.11,1.31.02.25.03.67.05.93-.02.21,0,.96,0,1.59,0,2.14.1,3.11.52,6.82.22,1.98.31,3,.43,4.68.19,2.4.47,4.77.92,7.11.18.89.44,3.05.37,3.96.06.3-.02.79-.07.96-.14.24-.31.27-.77.24-4.78-.41-4.62-.4-4.94-.55-.2-.1-.27-.36-.32-1.28-.06-.8-.21-2.19-.32-2.96-.08-.59-.49-1.29-.93-1.54-.4-.24-.57-.25-2.11-.37-1.37-.11-1.42-.11-1.84-.06-.6.12-.9.27-1.13.5-.09.12-.23.28-.28.4-.1.16-.56,1.88-.75,2.71-.2.99-.52,1.84-.7,2s-.47.17-1.47.01c-.45-.08-.95-.16-1.12-.13-.25-.02-1.92-.06-2.05-.03-.12,0-.25-.02-.33-.07-.2-.14-.19-.22-.02-.88ZM121.75,82.38c-.02.25.08.59.24.69.08.05.16.05.54.04l1.58.12c1,.08,1.13.05,1.21.01.18-.11.27-.31.3-.61.03-.38-.05-1.59-.09-2.06-.11-.72-.27-1.99-.3-2.62-.16-1.77-.24-2.28-.42-2.67-.18-.39-.59-.51-.94-.28-.22.15-.32.35-.61,1.34-.07.37-.29,1.07-.41,1.52-.45,1.56-1.07,4.1-1.1,4.52Z"/>
        <path class="cls-1" d="M134.98,90.68c.24-3.08.49-6.33.97-12.15.38-4.37.69-8.41.73-8.99q.08-1.04.17-1.16c.18-.15.39-.18,1.23-.16,1.17,0,6.5.42,7.37.57,1.95.28,2.68.5,3.66.91,2.75,1.26,4.26,3.93,4.33,6.91,0,.54-.09,1.75-.18,2.29-.44,2.44-1.89,4.96-4.04,6.31-.48.3-.71.49-.86.85-.15.32-.15.91,0,1.51.13.47.72,2.15,1.24,3.53.24.65,1.77,4.2,2.12,5.06.69,1.43.72,2.07.16,2.31-.13.07-.3.06-1.26.07-1-.03-3.04-.19-3.83-.29-.17-.01-.54-.08-.83-.1-.78-.14-1.07-.29-1.21-.64-.24-.65-.97-2.67-1.81-5.29-.64-2.06-.71-2.23-1.1-3.06-.25-.52-.33-.65-.45-.7-.2-.1-.33-.07-.43.09-.15.32-.25,1.03-.51,4.4-.23,3-.26,3.41-.37,3.7-.16.49-.26.65-.48.76-.3.1-1.43.1-2.8,0-1.25-.1-1.42-.11-1.74-.3-.16-.14-.43-.45-.46-.62,0-.04,0-.46.02-.84.03-.42.2-2.66.38-4.95h-.04ZM141.13,79.81c.07.76.25,1.07.75,1.19.24.1,1.16.13,1.63.08,1.44-.18,3.23-.59,3.61-2.24.14-.66-.02-1.34-.44-1.84-.62-.72-1.47-.99-3.43-1.14l-1.04-.04-.22.11c-.26.15-.4.35-.52.8-.16.45-.37,2.61-.32,3.07Z"/>
        <path class="cls-1" d="M154.96,92.22c.24-3.08.49-6.33.97-12.15.38-4.37.69-8.41.73-8.99q.08-1.04.17-1.16c.18-.15.39-.18,1.23-.16,1.17,0,6.5.42,7.37.57,1.95.28,2.68.5,3.66.91,2.75,1.26,4.26,3.93,4.33,6.91,0,.54-.09,1.75-.18,2.29-.44,2.44-1.89,4.96-4.04,6.31-.48.3-.71.49-.86.85-.15.32-.15.91,0,1.51.13.47.72,2.15,1.24,3.53.24.65,1.77,4.2,2.12,5.06.69,1.43.72,2.07.16,2.31-.13.07-.3.06-1.26.07-1-.03-3.04-.19-3.83-.29-.17-.01-.54-.08-.83-.1-.78-.14-1.07-.29-1.21-.64-.24-.65-.97-2.67-1.81-5.29-.64-2.06-.71-2.23-1.1-3.06-.25-.52-.33-.65-.45-.7-.2-.1-.33-.07-.43.09-.15.32-.25,1.03-.51,4.4-.23,3-.26,3.41-.37,3.7-.16.49-.26.65-.48.76-.3.1-1.43.1-2.8,0-1.25-.1-1.42-.11-1.74-.3-.16-.14-.43-.45-.46-.62,0-.04,0-.46.02-.84.03-.42.2-2.66.38-4.95h-.04ZM161.11,81.34c.07.76.25,1.07.75,1.19.24.1,1.16.13,1.63.08,1.44-.18,3.23-.59,3.61-2.24.14-.66-.02-1.34-.44-1.84-.62-.72-1.47-.99-3.43-1.14l-1.04-.04-.22.11c-.26.15-.4.35-.52.8-.16.45-.37,2.61-.32,3.07Z"/>
        <path class="cls-1" d="M173.21,99.4c.07-.33.24-.99.36-1.44.08-.5.27-1.28.43-1.77.3-1.23.65-2.42.85-3.37.12-.49.29-1.11.36-1.4.06-.29.18-.74.24-.99.06-.25.22-.74.3-1.15.11-.37.28-.98.4-1.35.14-.7.77-2.96,1.16-4.18.51-1.8.69-2.42.86-2.99.06-.29.25-1.03.38-1.65.17-.57.35-1.35.47-1.77.39-1.85.57-2.47.85-3.45.46-1.6.61-1.96,1-2.1.43-.13,3.85,0,6.35.24,1.83.18,2.16.25,2.36.39.16.1.26.4.25.6,0,.12.04.55.13,1.02.05.46.09,1.05.11,1.31.02.25.03.67.05.93-.02.21,0,.96,0,1.59,0,2.14.1,3.11.52,6.82.22,1.98.31,3,.43,4.68.19,2.4.47,4.77.92,7.11.18.89.44,3.05.37,3.96.06.3-.02.79-.07.96-.14.24-.31.27-.77.24-4.78-.41-4.62-.4-4.94-.55-.2-.1-.27-.36-.32-1.28-.06-.8-.21-2.19-.32-2.96-.08-.59-.49-1.29-.93-1.54-.4-.24-.57-.25-2.11-.37-1.37-.11-1.42-.11-1.84-.06-.6.12-.9.27-1.13.5-.09.12-.23.28-.28.4-.1.16-.56,1.88-.75,2.71-.2.99-.52,1.84-.7,2s-.47.17-1.47.01c-.45-.08-.95-.16-1.12-.13-.25-.02-1.92-.06-2.05-.03-.12,0-.25-.02-.33-.07-.2-.14-.19-.22-.02-.88ZM181.54,86.98c-.02.25.08.59.24.69.08.05.16.05.54.04l1.58.12c1,.08,1.13.05,1.21.01.18-.11.27-.31.3-.61.03-.38-.05-1.59-.09-2.06-.11-.72-.27-1.99-.3-2.62-.16-1.77-.24-2.28-.42-2.67-.18-.39-.59-.51-.94-.28-.22.15-.32.35-.61,1.34-.07.37-.29,1.07-.41,1.52-.45,1.56-1.07,4.1-1.1,4.52Z"/>
        <path class="cls-1" d="M205.68,101.9c-.03-.21.66-9.67,1.12-15.7.25-3.21.83-9.74.99-10.77.11-.95.17-1.12.43-1.27.71-.53,3.63-.39,4.67-.31,2.42.19,5.72.82,7.72,2.02,4.34,2.89,5.01,7.29,4.88,12.23-.06,1.38-.2,3.13-.4,4.12-.63,3.26-1.4,6.72-3.88,9.12-1.49,1.43-2.96,2.03-5.33,2.27-.34.02-.8.06-1.01.05-.38-.03-5.04-.34-5.37-.37-.16-.05-1.9-.31-2.15-.33-1.24-.18-1.6-.42-1.68-1.05ZM211.64,93.06c.18.89.65,1.39,1.43,1.62.41.07,1.79.14,2.38.1,1.43-.14,2.3-.49,3.2-1.3.81-.73,1.09-1.63,1.33-4.25.23-2.45.22-4-.08-5.45-.49-2.84-2.77-3.77-5.38-4.1-.79-.06-.83-.06-1.05.04-.35.14-.57.33-.71.57l-.14.24-.18,1.75c-.07.96-.28,3.7-.51,6.12-.32,4.16-.34,4.41-.27,4.67Z"/>
        <path class="cls-1" d="M227.66,93.2c.06-1.92.29-4.79.59-8.75.55-7.2.7-8.53.97-8.85.23-.23-.03-.21,4.77.07,4.91.34,5.37.37,7.99.61,1.75.13,1.87.14,1.95.23.2.18.23.31.21,1.1-.01.71-.25,3.25-.39,4.03-.07.37-.17.61-.35.68-.18.11-.55.08-4.25-.28-2.75-.25-3.41-.3-4.26-.2-.97.14-1.13.5-1.24,2.58-.09,1.75.04,2.18.69,2.44.24.1.58.13,3.57.36,3.21.25,3.33.26,3.49.35.12.05.2.14.27.31.07.17.06.26.01.96-.03.42-.12,1.04-.15,1.37-.07.33-.16,1.04-.2,1.53-.12,1.08-.23,1.32-.61,1.46-.22.11-1.18.12-2.93.03-3.42-.14-3.84-.13-4.28.09-.26.11-.41.39-.52.8-.15.37-.26,2.32-.21,2.71.13.51.48.79,1.22,1.01.61.17,2.19.34,3.57.36.79.02,1.55.03,2.59.11,1.37.15,1.45.15,1.61.25.16.1.31.32.33.57.03.17.06.3-.04,2.76-.12,2.09-.27,2.91-.58,3.18s-.61.29-2.65.17c-3.42-.18-4.54-.27-5.66-.39-.58-.09-1.87-.23-2.82-.3-2.33-.18-2.91-.27-3.22-.62-.23-.27-.24-.19.07-4.22.16-2.04.34-4.96.46-6.54Z"/>
        <path class="cls-1" d="M256.9,101.35c-.35-.86-.48-1.34-.64-2.06-.4-1.91-.45-3.43-.19-6.21.39-3.99,1.33-8.57,4.12-11.62,2.25-2.55,6.18-3.54,9.47-3.29,2.33.18,5.71.94,6.7,3.24.18.43.12.68-.34,1.15-.37.39-1.53,1.98-2.1,2.85-.19.32-.42.6-.51.67-.22.15-.34.1-.69-.22-1.05-1.04-2.51-1.7-3.96-1.81-4.39-.09-6.59,4.02-6.89,7.93-.1.79-.13,1.08-.07,1.46.22,2.57,2.06,4.85,4.61,5.46.53.17.66.18,1.66.25,1.37.11,3.14-.05,4.47-.41.55-.12.68-.11.87.07.15.18.22.44.29,1.11.08.59.36,2.46.51,3.18.1.34.15.77.18.98.03.17.08.55.15.76.02.29.05.51.04.59-.16.49-1.99,1.4-3.7,1.81-1.54.43-3.14.55-4.68.44-4.16-.32-7.65-2.35-9.23-6.32h-.04Z"/>
        <path class="cls-1" d="M275.25,107.24c.07-.33.24-.99.36-1.44.08-.5.27-1.28.43-1.77.3-1.23.65-2.42.85-3.37.12-.49.29-1.11.36-1.4.06-.29.18-.74.24-.99.06-.25.22-.74.3-1.15.11-.37.28-.98.4-1.35.14-.7.77-2.96,1.16-4.18.51-1.8.69-2.42.86-2.99.06-.29.25-1.03.38-1.65.17-.57.35-1.35.47-1.77.39-1.85.57-2.47.85-3.45.46-1.6.61-1.96,1-2.1.43-.13,3.85,0,6.35.24,1.83.18,2.16.25,2.36.39.16.1.26.4.25.6,0,.12.04.55.13,1.02.05.46.09,1.05.11,1.31.02.25.03.67.05.93-.02.21,0,.96,0,1.59,0,2.14.1,3.11.52,6.82.22,1.98.31,3,.43,4.68.19,2.4.47,4.77.92,7.11.18.89.44,3.05.37,3.96.06.3-.02.79-.07.96-.14.24-.31.27-.77.24-4.78-.41-4.62-.4-4.94-.55-.2-.1-.27-.36-.32-1.28-.06-.8-.21-2.19-.32-2.96-.08-.59-.49-1.29-.93-1.54-.4-.24-.57-.25-2.11-.37-1.37-.11-1.42-.11-1.84-.06-.6.12-.9.27-1.13.5-.09.12-.23.28-.28.4-.1.16-.56,1.88-.75,2.71-.2.99-.52,1.84-.7,2s-.47.17-1.47.01c-.45-.08-.95-.16-1.12-.13-.25-.02-1.92-.06-2.05-.03-.12,0-.25-.02-.33-.07-.2-.14-.19-.22-.02-.88ZM283.57,94.81c-.02.25.08.59.24.69.08.05.16.05.54.04l1.58.12c1,.08,1.13.05,1.21.01.18-.11.27-.31.3-.61.03-.38-.05-1.59-.09-2.06-.11-.72-.27-1.99-.3-2.62-.16-1.77-.24-2.28-.42-2.67-.18-.39-.59-.51-.94-.28-.22.15-.32.35-.61,1.34-.07.37-.29,1.07-.41,1.52-.45,1.56-1.07,4.1-1.1,4.52Z"/>
        <path class="cls-1" d="M296.74,104.41c.59-7.66,1.31-18.2,1.35-19.24,0-.55.08-1.54.13-2.21.09-1.12.14-1.29.2-1.45.14-.2.27-.31.53-.38.6-.2.56-.17,7.05.33,4.16.32,6.24.52,6.45.54.45.12.61.21.72.47.03.17.06.3-.02,1.3-.05.62-.14,1.29-.2,1.49-.02.21-.12.95-.17,1.62-.13,1.2-.14,1.25-.28,1.44-.05.12-.19.24-.23.28-.18.11-.68.12-2.76,0-3.96-.26-5.04-.3-5.43-.12-.39.22-.49.42-.55,1.67-.07.87-.03.96.29,1.11.4.2.86.28,2.81.43l1.79.14.24.14c.48.29.5.54.29,2.74-.17,1.7-.21,2.12-.4,2.44-.1.2-.32.39-.45.38-.09.04-.79-.02-1.63-.04-2.5-.11-2.84-.09-3.24.25-.18.15-.27.23-.33.52-.15.37-.14.16-.61,6.36-.26,3.33-.4,5.24-.41,5.33-.05.04-.13.12-.18.15-.13.07-.21.07-1.54-.08-.75-.06-1.58-.16-1.79-.14-.21-.02-.71-.01-1.04-.04-.58-.04-.67-.05-.74-.14s-.11-.18-.15-.22c-.04-.09.07-1.5.31-5.13v.04Z"/>
        <path class="cls-1" d="M320.87,88.51c-.97.09-1.12.46-1.24,2.54-.09,1.75.04,2.18.69,2.44.24.1.58.13,3.57.36,3.21.25,3.33.26,3.49.35.12.09.2.18.27.31.07.17.06.26.01.96-.03.42-.12,1.04-.15,1.37-.07.37-.16,1.04-.2,1.53-.12,1.08-.23,1.32-.61,1.46-.22.11-1.18.12-2.98.06-3.42-.18-3.84-.17-4.23.05-.26.15-.41.39-.56.79-.11.41-.22,2.37-.17,2.71.13.51.48.83,1.22,1.01.61.17,2.19.34,3.57.36.75.02,1.55.03,2.58.16,1.37.11,1.46.11,1.62.21.16.1.31.32.33.57.03.17.06.3-.09,2.76-.08,2.13-.22,2.91-.54,3.18s-.61.29-2.65.17c-3.42-.18-4.54-.27-5.66-.39-.58-.09-1.87-.23-2.82-.3-2.33-.18-2.91-.27-3.22-.62-.23-.27-.24-.19.07-4.22.16-2.04.34-4.96.46-6.54.06-1.88.29-4.79.59-8.75.55-7.2.7-8.53.97-8.85.23-.23-.03-.21,4.77.07,4.91.34,5.37.37,7.99.61,1.75.13,1.87.14,1.95.23.2.18.23.31.2,1.15,0,.67-.25,3.21-.39,3.99-.07.37-.17.61-.35.68-.18.11-.55.08-4.25-.28-2.75-.25-3.41-.3-4.26-.2v.04ZM322.39,78.99c-.18-.35-.24-.65-.15-.77.05-.08.14-.16.4-.26.3-.1.6-.25.87-.39.53-.34.93-.64,1.38-1.11.18-.19.31-.27.4-.3.08,0,.12.05.28.15.39.41.65.76.68.93,0,.12-.06.21-.24.4-.69.87-1.71,1.54-2.82,1.84-.13.07-.38.1-.42.05-.12,0-.24-.19-.38-.53Z"/>
      </g>
    </g>
    <g>
      <path class="cls-2" d="M92.07,63.87c-.06-1.01-.12-1.95-.17-2.79-.05-.81-.09-1.67-.13-2.54-.1-2.09-.2-4.26-.41-6.25l-.03-.34c-.35-3.44-.77-7.55-4.4-10.72v-.3c.58-.61,1.13-1.27,1.6-1.97h0c2.58-3.85,3.29-8.83,1.95-13.68-1.03-3.72-3.1-6.9-5.87-9.13-2.09-11.96-12.69-14.13-16.88-14.99-15.17-3.11-37.86.15-52.76,7.56C10.34,11.04-.02,16.19,2.22,28.96c-1.07,1.69-1.78,3.7-2.07,5.94-.64,4.96.78,10.37,3.64,13.77,1.22,1.46,2.73,2.42,3.94,3.2.17.11.38.24.57.37.06.18.12.38.18.59-.9,1.89-1.75,4.46-1.31,7.94l.07.55.17.52c.93,2.93,1.84,5.94,2.72,8.86,1.32,4.37,2.68,8.89,4.17,13.32.25.74.48,1.53.73,2.34,1.25,4.18,3.02,10.12,7.85,13.33.31,1.37.64,2.71.96,4.03.29,1.17.57,2.34.84,3.51.18.78.29,1.5.4,2.2.6,3.77,1.51,7.17,6.59,10.51,5.04,3.31,12.28,4.52,19.53,4.52,5.33,0,10.66-.65,15.12-1.61,6.49-1.39,18.13-4.9,23.22-12.88,3.32-5.21,1.89-12.75.62-19.41-.1-.55-.21-1.09-.3-1.6,1.21-1.69,2.19-3.68,2.52-6.24.63-4.8.11-12.91-.27-18.83Z"/>
      <g>
        <path class="cls-1" d="M83.57,35.64c-.65.97-1.84,2.03-2.73,2.79l.24,6.06c3.77,1.85,3.93,4.42,4.34,8.42.27,2.64.36,5.8.51,8.52.31,5.42,1.13,15.5.48,20.5-.29,2.23-1.52,3.77-2.92,5.3.59,5,3.68,15.27.97,19.52-7.2,11.29-38.79,15.25-49.54,8.19-4.2-2.77-3.44-4.6-4.45-9.03-.78-3.43-1.74-6.83-2.36-10.29-5.39-1.56-6.53-8.57-8.18-13.5-2.45-7.29-4.52-14.75-6.85-22.09-.24-1.96.13-3.36.98-5.04.19-.38.86-.63.89-1.05.02-.25-1.19-4.32-1.38-4.8-.64-1.55-3.81-2.64-5.21-4.31-2.88-3.43-3.62-11.43.4-14.27-2.93-9.18,1.97-13.04,8.87-16.48,13.03-6.49,34.6-9.98,48.9-7.06,6.98,1.43,12.1,4.04,12.45,12.61,5.53,2.62,8.09,10.79,4.59,16.01ZM67.81,13.48c.53-.74-3.12-1.98-3.5-2.1-11.79-3.63-33.83.16-44.42,6.34-1.26.74-3.86,2.37-3.84,4.06,1.02-.49,1.85-1.32,2.89-1.84,9.41-4.76,26.16-7.26,36.67-7.5,4.06-.09,8.23.08,12.2,1.04ZM18.44,27.49c-.87,1.04,3.85,1.86,4.19,1.92,12.59,2.36,39.64-2.08,48.53-12.46,1.86-2.17,1-4.06-1.77-3.69,2.21,4.19-5.97,7.23-8.79,8.27-7.51,2.79-15.96,3.96-23.84,5.17l-18.31.78ZM54.38,18.42c.56-1.1-3.15-1.17-3.57-1.19-4.76-.16-18.45,1.33-22.25,3.97-.22.15-.79.66-.62.84,3.29,1.63,25.55-1.92,26.43-3.63ZM21.13,26.09c-1.03.06-2.06-.39-3-.79-.69-.29-3.55-2.37-3.64-.88s4.54,2.2,5.59,2.15c.35-.02,1.21.09,1.05-.48ZM11.12,32.63c-2.26,2.45.62,3.61,2.51,4.31,9.15,3.42,29.68,1.34,39.18-.74,6.47-1.42,18.94-4.02,23.91-8.09,1.87-1.53,3.82-3.71.45-4.89-.56,3.56-5.65,5.77-8.53,7-12.24,5.26-42.91,10.59-55.2,4.57-.94-.46-2.14-.93-2.32-2.16ZM73.61,32.32c-14.61,5.62-30.32,9.05-46.02,8.63-3.4-.09-6.84-.81-10.14-.94-.23,0-1.23-.37-1.08.34.18.89,5.5,2.26,6.5,2.47,14.64,3.13,37.21-.31,49.53-9.24.45-.32,1.12-.61,1.21-1.26ZM77.91,40.33c-15.45,9.47-36.03,13.2-53.84,10.46-2.35-.36-4.76-.88-7-1.76-.25-.05-.13.28-.09.53.17,1.04,2.12,7.45,2.57,8.06,1.53,2.07,13.8,3.47,16.55,3.55,11.8.34,24.2-1.97,34.89-7.15,1.45-.7,6.19-3.11,7.09-4.11.8-.89.05-2.7-.02-3.92-.1-1.86-.17-3.8-.14-5.66ZM31.41,96.3c-.27.41,2.28,8.75,2.69,9.7.84,1.92,6,3.28,7.95,3.65,10.24,1.95,22.54-.34,31.8-4.97,1.74-.87,8.06-4.53,8.14-6.56.12-2.75-1.21-6.79-1.63-9.58-14.21,9.02-32.66,11.26-48.95,7.76Z"/>
        <path class="cls-1" d="M73.41,103.27c1.34-2.67,1.2-5.5,1.25-8.45l3.96-2.59c1.43,4.95-.76,9.45-5.21,11.04Z"/>
        <path class="cls-1" d="M75.76,43.38l.35,3.74c-1.09,1.23-2.43,2.15-3.96,2.61-.7-1.24-.15-2.47.21-3.73l3.4-2.62Z"/>
      </g>
    </g>
  </g>
</svg>