<?xml version="1.0" encoding="UTF-8"?>
<svg id="Capa_2" data-name="Capa 2" xmlns="http://www.w3.org/2000/svg" viewBox="0 0 282.96 109.24">
  <defs>
    <style>
      .cls-1 {
        fill: #a41f25;
      }

      .cls-2 {
        fill: #e8dbca;
      }
    </style>
  </defs>
  <g id="Capa_1-2" data-name="Capa 1">
    <g>
      <path class="cls-2" d="M277.56,6.36l-.27-.71c-1-2.28-3.15-5.05-7.78-5.56-1.41-.21-2.62-.06-5.13.24-3.11.38-5.65.69-7.84,2.78-1.21-.55-2.55-.87-3.83-.93v.04c-2.59.04-11.04.8-13.78,1.77-.14-.05-.27-.12-.41-.16l-5.18-1.69c-3.59-1.18-7.45-.12-9.94,2.59-1.07-.03-2.14.02-3.21.15-5.73.7-10.25,2.85-14.03,6.66l-2.09-1.2c-2.92-1.93-5.82-1.52-8-1.18-.54.07-1.18.16-1.78.25-.44.07-.85.13-1.14.17l-.71.11c-2.19.39-4.54,1.3-6.17,3.21-1.26-.62-2.6-1.11-4.01-1.44l-.24-.05c-2.48-.51-4.37-.61-7.75-.41-2.23.11-9.97,1.07-12.1,1.47-1.08.18-2.58.46-4.09,1.31-.4-.02-.8-.04-1.23-.01v.02c-3.56.26-19.25,2.22-22.5,2.82v-.02c-.89.19-1.69.48-2.44.84-1.75-.32-3.38-.08-4.74.13-.54.07-1.17.16-1.78.25-.43.07-.85.13-1.14.17l-.71.11c-.69.12-1.39.3-2.09.54-.12-.03-.23-.06-.35-.08-1.04-.2-2.13-.24-3.24-.12l-.17.02c-1.15.12-4.21.45-9.35,1.08l-3.66.44c-6.87.83-7.78.94-9.79,2.08,0,0-.02.01-.03.02-.64-.2-1.33-.37-2.11-.46-1.41-.21-2.61-.06-5.13.24-3.11.38-5.65.69-7.84,2.78-.86-.39-2.22-.86-3.83-.93v.04c-2,.03-7.48.49-11.15,1.15-.81-2.01-2.09-4.12-4.22-5.91-5.9-4.96-14.71-5.38-21.91-1.06-6.68,4.01-8.81,10.55-9.84,15.12-1.14,5.06-1.7,10.1-2.24,14.96-.23,2.05-.45,4.05-.71,6-.55.06-1.1.12-1.66.18l-1.3.14c-.07,0-.15.02-.22.02-2,.24-10.82.64-13.7,1.51-6.83,2.07-10.54,9.11-8.45,16.03,1.5,4.96,5.53,8.32,10.21,9.05-1.71,2.72-1.95,5.52-1.67,7.81.44,3.59,2.54,7.03,5.62,9.2,2.96,2.09,6.46,2.81,9.83,2.05,7.23-1.63,16.96-7.03,22.93-23.35,1.39,4.39,3.28,8.89,6.02,13.17,8.22,12.82,21.06,19.89,35.23,19.39,1.18-.04,2.33-.13,3.47-.27,15.66-1.91,27.29-12.88,28.51-27.09.09-1.04.17-2.16.12-3.54,0,0,3.37-.72,5.86-.6.87.05,4.41-.52,5.92-.71.71-.09,1.53-.2,2.51-.35,1.92-.31,5.37-.86,7.54-4.19,1.6,1.34,4.06,2.55,7.71,2.32.47-.03,1.22-.09,2.06-.19,1.08-.13,2.3-.32,3.23-.56,2.8-.67,4.93-2.07,6.36-4.05.41.35.78.62,1.03.79.77.52,1.62.92,2.56,1.2,2.04.59,3.51.41,5.74.14,2.34-.28,4.15-.63,5.38-1.04.98-.32,1.87-.79,2.67-1.39,1.39.6,3,.89,4.82.87l1.16-.07c.25-.01.48-.03.68-.05.77-.06,1.93-.18,3.1-.32,1.26-.15,2.53-.33,3.36-.46l.94-.19c.91-.19,1.89-.4,2.92-.88.56.11,1.13.18,1.73.21.87.05,1.88,0,3.4-.19.71-.09,1.53-.2,2.51-.35,2.01-.32,5.68-.91,7.83-4.65,4.92,2.49,10.64,2.98,15.02,2.44s10.08-2.79,14.15-6.66c1.3,1.63,3.2,2.9,6.02,3.28.7.1,2.69.08,4.89-.19,2.42-.29,5.11-.88,6.68-1.92.28-.18.54-.38.8-.6.71.28,1.49.5,2.36.66l.14.02c1.32.21,2.26.14,3.44.06l.76-.06c1.67-.2,6.58-.93,8.07-1.18l.34-.07c6.26-1.35,7.86-5.72,8.26-8.21l.09-.65c.09-.72.1-1.45.01-2.17l-2.44-20q-2.55-20.92-2.9-21.99Z"/>
      <g>
        <path class="cls-1" d="M66.33,47.49c-.35-2.88-.93-7.08-1.2-9.33-.46-3.76-.5-4.14-.41-4.4.08-.39.24-.6.54-.77.36-.17,9.84-1.26,10.35-1.2.3.01.7.14.96.27.11.06.21.14.29.24.66.81,2.64,4.19,3.98,6.88,1.43,2.88,2.93,5.75,4.42,8.62,1.81,3.41,1.82,3.47,1.9,3.59.08.12-.77-7.92-1.57-14.44-.73-5.96-.71-5.83-.38-6.25s.58-.45,3.4-.8c2.13-.26,2.7-.33,3.09-.25.96.07,1.17.18,1.43.78.1.31.28,1.81,2.55,20.43l2.43,19.94c.01.09.01.17,0,.26l-.05.39c-.14.91-.61,1.28-1.97,1.58-1.31.22-6.12.94-7.69,1.13-1.26.09-1.51.12-1.97.05-1.5-.26-1.8-.67-3.38-4.23-.54-1.27-1.26-3.03-1.61-3.81-.36-.85-1-2.42-1.44-3.45-.44-1.03-1.08-2.6-1.44-3.45-1.44-3.45-2.87-6.84-3.73-8.65-.19-.55-.21-.17.12,2.02.15,1.19.54,3.94.8,6.07.87,6.07,1.52,10.95,1.84,13.52l.29,2.38-.15.34c-.1.2-.21.34-.33.42-.47.31-5.23.95-5.94.85-1.23-.17-1.58-.95-2.16-5.21-.36-2.44-2.19-16.91-2.99-23.5Z"/>
        <path class="cls-1" d="M132.56,36.5c.11.94.36,2.44.52,3.25.35,2.31,1.82,14.41,2.13,17.49.11,1.39.38,4.15.56,6.17.46,3.76.43,4.02.23,4.49-.21.41-.39.49-2.13.77-2,.31-3.57.5-4.21.45-1.21-.04-1.64-.37-1.93-1.74-.26-1.05-2.92-24.52-3.41-30.13-.33-3.71-.61-6.54-.83-8.36-.26-2.64-.37-2.5,1.75-2.89.75-.09,2.12-.32,3.06-.44,1.94-.3,2.19-.27,2.55,0l.27.16.21,1.69c.11.94.43,3,.62,4.57.25,1.56.5,3.57.61,4.51Z"/>
        <path class="cls-1" d="M120.26,26.92c-.16-.25-.34-.37-.68-.43-.28-.05-.56-.05-.84-.02-.98.11-4.05.43-9.41,1.09-9.78,1.19-9.73,1.12-10.56,1.6-.21.1-.35.21-.46.35-.17.21-.24.48-.24.75,0,.29.04.79.17,1.83s.31,2.51.47,3.32c.22,1.33,1.75,13.13,3.07,23.74.47,4.89,1.23,11.77,1.37,12.18.22.73.64.89,1.88.84.66-.01,2.1-.19,4.17-.47,1.81-.26,2.17-.33,2.41-.57.23-.27.28-.41.03-2.46-.07-1.1-.36-2.59-.38-3.35-.14-1.68-.94-8.26-1.16-9.51-.12-.44-.25-2.93.12-3.5.43-.68.85-.52,4.6-1.11,1.25-.22,2.31-.35,2.43-.42.19-.02.46-.37.55-.7.19-.53.11-1.16-.14-3.74-.34-3.33-.45-3.7-1.25-3.98l-.16-.06c-.15-.06-.32-.07-.48-.05l-2.45.3c-2.95.36-3.64.38-4.3.21-.52-.13-.6-.24-.76-1.56-.29-1.87-.2-2.2.31-2.65.53-.38,2.15-.64,8.1-1.43,2.19-.31,3.21-.48,3.71-.63.25-.07.46-.24.58-.47.03-.06.06-.13.07-.2.15-.34.14-.4-.02-2.22-.11-.93-.19-1.98-.23-2.37v-.16c0-.39-.05-1.32-.16-2.19-.18-1.51-.27-1.69-.36-1.93Z"/>
        <path class="cls-1" d="M152.76,37.74c.15,1.76.39,3.71.78,6.4.32,2.12.78,5.38,1.01,7.26.28,1.81.63,4.12.74,5.06.38,2.56.75,6.14.72,6.97-.1,1.79-.54,2.36-2.27,2.76-.86.23-2.99.49-3.82.53-1.2.08-1.93-.15-2.39-.79-.3-.35-.6-1.26-.71-2.14-.05-.44-.2-1.63-.38-2.63-.56-3.05-2.13-16.48-2.68-22.52-.14-1.64-.23-1.88-.6-2.34-.16-.21-.35-.38-.59-.49-.17-.08-.35-.1-.54-.08-1.17.13-4.52.47-4.96.29-.2-.04-.52-.13-.66-.24-.81-.41-1.44-1.86-1.87-4.35-.6-3.4-.58-5.19.09-6.12.03-.05.07-.09.11-.13.32-.32.67-.54,1.31-.68.8-.22,20.35-2.67,21.25-2.65.95-.05,1.28.1,1.67.62.23.29.37,1.48.88,5.17.27,2.19.37,3.07.35,3.39-.07,1.03-.36,1.76-.88,2.14-.35.23-1.22.4-3.73.71-1.32.16-2.07.25-2.25.34-.36.17-.64.46-.74.73-.1.27-.07.45.15,2.78Z"/>
        <path class="cls-1" d="M165.7,54.67c-.56-4.64-1.16-9.53-2.17-18.32-.74-6.59-1.48-12.67-1.59-13.55q-.19-1.57-.09-1.77c.22-.28.53-.38,1.77-.6,1.74-.34,9.77-1.32,11.1-1.35,2.97-.17,4.13-.06,5.7.26,4.45,1.05,7.49,4.56,8.47,8.96.16.81.38,2.63.42,3.45.07,3.75-1.33,7.92-4.12,10.56-.63.59-.9.94-1.02,1.52-.13.52.04,1.39.46,2.23.33.66,1.7,2.97,2.88,4.87.55.89,3.88,5.7,4.66,6.88,1.44,1.92,1.68,2.85.92,3.39-.17.15-.42.18-1.85.48-1.5.25-4.57.62-5.77.7-.24.03-.78.04-1.21.08-.03,0-.07,0-.1,0-1.17.01-1.62-.12-1.93-.59-.55-.89-2.23-3.67-4.26-7.31-1.56-2.86-1.71-3.1-2.55-4.21-.53-.7-.68-.87-.87-.91-.33-.09-.51,0-.6.26-.13.52-.06,1.6.56,6.68.55,4.51.63,5.14.55,5.6-.04.32-.08.55-.13.73-.09.32-.35.57-.66.67-.68.22-2.13.49-3.85.7-1.69.21-2.06.25-2.51.12-.1-.03-.2-.08-.29-.14-.15-.1-.34-.24-.48-.38s-.25-.33-.29-.54c-.05-.24-.13-.65-.17-1.03-.08-.63-.49-4.01-.91-7.46h-.06ZM171.59,36.71c.33,1.11.69,1.51,1.46,1.54.39.08,1.76-.15,2.44-.36,2.08-.7,4.61-1.83,4.68-4.39,0-1.02-.43-1.98-1.21-2.59-1.13-.88-2.48-1.03-5.43-.68l-1.56.25-.29.23c-.35.3-.5.63-.54,1.34-.1.71.23,3.98.44,4.66Z"/>
        <path class="cls-1" d="M201.47,28.11c.11.94.36,2.44.52,3.25.35,2.31,1.82,14.41,2.13,17.49.11,1.39.38,4.15.56,6.17.46,3.76.43,4.02.23,4.49-.21.41-.39.49-2.13.77-2,.31-3.57.5-4.21.45-1.21-.04-1.64-.37-1.93-1.74-.26-1.05-2.92-24.52-3.41-30.13-.33-3.71-.61-6.54-.83-8.36-.26-2.64-.37-2.5,1.75-2.89.75-.09,2.12-.32,3.06-.44,1.94-.3,2.19-.27,2.55,0l.27.16.21,1.69c.11.94.43,3,.62,4.57.25,1.56.5,3.57.61,4.51Z"/>
        <path class="cls-1" d="M243.08,25.97c-.35-2.88-.93-7.08-1.2-9.33-.46-3.76-.5-4.14-.41-4.4.08-.39.24-.6.54-.77.36-.17,9.84-1.26,10.35-1.2.3.01.7.14.96.27.11.06.21.14.29.24.66.81,2.64,4.19,3.98,6.88,1.43,2.88,2.93,5.75,4.42,8.62,1.81,3.41,1.82,3.47,1.9,3.59.08.12-.77-7.92-1.57-14.44-.73-5.96-.71-5.83-.38-6.25s.58-.45,3.4-.8c2.13-.26,2.7-.33,3.09-.25.96.07,1.17.18,1.43.78.1.31.28,1.81,2.55,20.43l2.43,19.94c.01.09.01.17,0,.26l-.05.39c-.14.91-.61,1.28-1.97,1.58-1.31.22-6.12.94-7.69,1.13-1.26.09-1.51.12-1.97.05-1.5-.26-1.8-.67-3.38-4.23-.54-1.27-1.26-3.03-1.61-3.81-.36-.85-1-2.42-1.44-3.45-.44-1.03-1.08-2.6-1.44-3.45-1.44-3.45-2.87-6.84-3.73-8.65-.19-.55-.21-.17.12,2.02.15,1.19.54,3.94.8,6.07.87,6.07,1.52,10.95,1.84,13.52l.29,2.38-.15.34c-.1.2-.21.34-.33.42-.47.31-5.23.95-5.94.85-1.23-.17-1.58-.95-2.16-5.21-.36-2.44-2.19-16.91-2.99-23.5Z"/>
        <g>
          <path class="cls-1" d="M112.5,77.47c-.06-.47-.51-.89-.99-.81-1.07.18-1.91.31-3.08.45-.94.11-2.85.36-3.63.49-.38.06-.67.39-.67.77-.01.77-.01,1.61-.16,2.92-.09.79-.66,4.38-5.52,7.16-1.44.83-7.44,4.4-15.34,2.26-6.56-1.78-10.74-4.91-15.23-12.21-3.73-6.06-4.48-11.98-5.69-18.84-1.22-6.96-2.01-13.98-2.88-20.99-.3-2.39-.58-4.8-1.04-7.17-.45-2.32-.96-4.71-2.87-6.32-3.56-2.99-8.73-2.61-12.55-.32-3.69,2.22-5.22,5.97-6.11,9.95-1.95,8.69-2.1,17.71-3.82,26.45-3,.47-6.06.76-9.11,1.09-2.72.29-4.37,2.08-4.31,4.92.05,2.54,2.14,5.12,4.88,4.83,1.9-.2,3.76-.4,5.6-.63-.38.94-.79,1.87-1.23,2.79-.95,1.96-1.94,3.66-3.43,5.34-1.03,1.16-2.42,1.96-3.73,2.59-2.47,1.19-4.79,2.69-4.44,5.57.3,2.47,2.95,4.95,5.65,4.34,9.6-2.17,14.76-11.12,17.63-19.72.33-.98.63-1.96.91-2.95,4.01-1.05,7.83-2.54,11.49-4.79.02.09.03.18.05.27,1.48,7.23,3.43,14.26,7.45,20.54,6.36,9.92,16.21,16.09,28.15,15.68,12.11-.42,23.29-7.92,24.2-19.9.15-1.95-.02-2.68-.17-3.76ZM50.94,53.75c-2.24,2.01-4.68,3.49-7.24,4.61.66-4.15,1.15-8.33,1.67-12.51.43-3.44.65-7.12,1.64-10.47.04-.12.21-.61.26-.7.43-.76,1.14-.75,1.25-.05.44,2.79.75,5.59,1.09,8.39.43,3.57.87,7.14,1.37,10.71-.01.01-.03.02-.04.03Z"/>
          <path class="cls-1" d="M11.37,63.59c-5.92,1.79-3.14,10.99,2.78,9.2,5.92-1.79,3.14-10.99-2.78-9.2Z"/>
        </g>
        <path class="cls-1" d="M240.13,32.56c-.72-5.91-2.3-11.9-6.52-15.68l2.99-3.02c.73-.74.43-2-.56-2.33l-5.19-1.69c-.61-.2-1.29.04-1.63.59l-1.94,3.1c-2-.6-3.97-.86-6.08-.6-4.64.56-7.87,2.29-10.78,6.02-4.35,5.56-4.67,12.34-3.98,19.06.82,7.79,2.87,13.14,6.47,16.58,3.23,3.04,8.75,3.96,13.02,3.44,4.26-.52,9.4-3.24,11.61-7.08,1.37-2.33,2.29-5.24,2.7-8.66.48-3.37.47-5.53-.1-9.72ZM231.64,36.01c-.09,5.55-2.16,8.92-7.74,9.6-2.88.35-5.14-.39-6.69-2.18-1.86-2.19-2.83-4.94-3.05-8.86-.26-3.7-.13-9.9,3.12-12.49.04-.03.08-.06.12-.09,1.16-.75,2.55-1.17,3.91-1.33,6.9-.84,9.36,5.29,10.05,10.93.12,1,.26,3.15.28,4.42Z"/>
      </g>
    </g>
  </g>
</svg>