<?xml version="1.0" encoding="UTF-8"?>
<svg id="Capa_2" data-name="Capa 2" xmlns="http://www.w3.org/2000/svg" viewBox="0 0 99.24 65.45">
  <defs>
    <style>
      .cls-1 {
        fill: #a41f25;
      }

      .cls-2 {
        fill: #e8dbca;
      }
    </style>
  </defs>
  <g id="Capa_1-2" data-name="Capa 1">
    <g>
      <g>
        <path class="cls-1" d="M45.75,63.65c-23.69,0-42.56-11.52-43.88-26.79C.41,19.96,20.63,4.36,46.96,2.08c2.17-.19,4.37-.28,6.52-.28,23.69,0,42.56,11.52,43.88,26.79.72,8.35-3.68,16.57-12.4,23.16-8.47,6.4-20.08,10.53-32.69,11.63-2.17.19-4.37.28-6.52.28Z"/>
        <path class="cls-2" d="M53.48,3.59c22.55,0,40.83,10.56,42.09,25.15,1.38,15.94-18.07,30.64-43.46,32.84-2.15.19-4.28.28-6.37.28-22.55,0-40.83-10.56-42.09-25.15C2.28,20.77,21.73,6.07,47.12,3.87c2.15-.19,4.28-.28,6.37-.28M53.49,0v3.59V0h0c-2.21,0-4.45.1-6.68.29-12.94,1.12-24.88,5.38-33.62,11.98C3.96,19.25-.69,28.04.08,37.02c.71,8.2,5.97,15.59,14.81,20.82,8.29,4.9,19.25,7.61,30.86,7.61,2.21,0,4.45-.1,6.68-.29,12.94-1.12,24.88-5.38,33.62-11.98,9.23-6.97,13.88-15.76,13.1-24.75-.71-8.2-5.97-15.59-14.81-20.82C76.05,2.7,65.09,0,53.49,0h0Z"/>
      </g>
      <g>
        <path class="cls-2" d="M22.29,43.48c.92.08,2.07.16,2.49.2.74.07.82.13.97.24.17.12.19.17.28.43.09.26.11.42.45,4.34.38,4.44.34,4.27.13,4.37-.16.08-.97.03-4.42-1.14-1.74-.59-3.84-1.4-4.68-1.73-.62-.25-1.31-.54-1.91-.84-.48-.24-.84-.56-.96-.79-.12-.23-.21-.65-.32-1.75-.06-.6-.18-1.73-.28-2.48-.15-1.08-.33-2.91-.73-7.31-.51-5.6-.64-7.41-.88-10.93-.12-1.79-.12-1.72.13-1.97s3.26-2.16,3.45-2.23c.3-.05.29-.04.39,1.04.53,5.77.72,7.88.79,9.16.05.78.23,2.99.39,4.88.41,4.94.47,5.43,1.02,5.86.45.36.84.39,3.7.64Z"/>
        <path class="cls-2" d="M27.48,52.47c0-.4.05-1.24.06-1.79,0-.6.02-1.62.06-2.22.08-1.51.11-3.08.12-4.28,0-.63.05-1.43.06-1.8,0-.37.02-.96.03-1.28,0-.32.04-.99.05-1.5,0-.47.08-1.31.09-1.78.02-.89.14-3.94.23-5.59.13-2.42.14-3.3.18-4.09,0-.39,0-1.43.02-2.25.02-.78.05-1.87.07-2.45,0-2.55.03-3.42.08-4.82.09-2.27.15-2.83.44-3.16.32-.35,3.19-1.55,5.32-2.08,1.56-.39,1.87-.36,2.06-.24.14.09.3.49.33.79.02.18.16.79.31,1.43.14.64.28,1.5.34,1.86s.18.98.23,1.33c.04.29.19,1.4.31,2.31.4,3.1.68,4.48,1.77,9.85.58,2.87.85,4.35,1.29,6.81.63,3.51,1.34,6.98,2.19,10.41.33,1.31.89,4.62,1.1,5.88.07.41.14,1.19.12,1.44-.08.37-.22.44-.63.43-4.21-.12-4.1-.26-4.4-.47-.19-.13-.29-.52-.53-1.85-.2-1.15-.61-3.17-.84-4.26-.18-.85-.68-1.82-1.1-2.13-.39-.3-.54-.31-1.88-.37-1.2-.05-1.27-.07-1.59.04-.47.16-.72.41-.87.74-.06.17-.15.38-.17.55-.05.22-.15,2.58-.15,3.69,0,1.33-.11,2.48-.23,2.68-.13.2-.38.21-1.26-.08-.4-.13-.87-.26-.99-.26-.18,0-1.66-.28-1.76-.26-.11-.03-.22-.05-.29-.12-.19-.2-.18-.32-.17-1.12ZM32.32,35.71c.03.35.18.8.33.91.08.05.17.02.47-.03.2-.03.83-.05,1.37-.09.87-.06.97-.13,1.04-.19.13-.19.18-.49.14-.91-.05-.54-.33-2.27-.47-2.9-.21-.98-.6-2.75-.75-3.63-.47-2.46-.64-3.14-.86-3.64-.22-.5-.59-.54-.85-.14-.16.27-.2.58-.26,2.01.01.53-.05,1.54-.06,2.19-.09,2.25-.14,5.86-.09,6.43Z"/>
        <path class="cls-2" d="M50.77,26.72c.12,1.78.29,3.76.56,6.48.22,2.16.53,5.48.71,7.37.18,1.82.43,4.19.52,5.14.24,2.58.55,6.23.54,7.06-.02,1.79-.32,2.33-1.29,2.63-.49.16-1.76.26-2.23.24-.69-.03-1.14-.32-1.42-1.01-.18-.37-.37-1.32-.45-2.21-.04-.44-.14-1.65-.27-2.66-.38-3.1-1.53-16.67-1.94-22.76-.11-1.65-.17-1.9-.39-2.39-.14-.31-.35-.62-.54-.65-.38-.06-2.74.27-3.02.05-.11-.05-.31-.15-.39-.26-.48-.44-.86-1.9-1.15-4.38-.41-3.47-.42-5.24-.02-6.14.19-.35.42-.57.78-.72.45-.18,11.9-1.33,12.41-1.25.52.09.76.25.99.81.14.31.26,1.52.6,5.21.2,2.19.27,3.08.26,3.39-.02,1.01-.18,1.71-.49,2.04-.2.2-.71.28-2.18.37-.77.05-1.21.08-1.32.15-.21.14-.37.41-.42.67-.05.26-.03.46.13,2.81Z"/>
        <path class="cls-2" d="M66.7,25.98c.11,1.6.25,3.39.51,5.84.2,1.94.48,4.93.65,6.63.16,1.64.39,3.76.47,4.61.22,2.32.49,5.6.48,6.36-.02,1.64-.31,2.21-1.25,2.72-.48.26-1.69.65-2.15.73-.67.12-1.1-.06-1.37-.66-.17-.32-.36-1.2-.43-2.05-.04-.42-.14-1.57-.26-2.53-.37-2.93-1.46-15.91-1.84-21.7-.1-1.57-.16-1.81-.38-2.29-.14-.3-.34-.62-.53-.66-.38-.09-2.75,0-3.03-.24-.12-.06-.31-.18-.39-.3-.48-.48-.87-1.97-1.16-4.47-.41-3.49-.42-5.25,0-6.04.19-.31.42-.47.8-.53.45-.08,11.92,1.31,12.42,1.5.52.19.75.38.97.9.13.29.24,1.32.53,4.46.17,1.86.23,2.61.21,2.88-.03.84-.2,1.42-.5,1.67-.2.15-.69.17-2.13.11-.76-.03-1.19-.04-1.29.01-.21.11-.37.33-.42.56-.05.23-.03.4.11,2.52Z"/>
        <path class="cls-2" d="M73.66,35.38c-.24-2.35-.59-5.97-1.02-10.91-.78-9-.89-10.67-.71-11.01.14-.26,0-.42,4.06.84,4.19,1.3,4.58,1.61,6.76,2.6,1.44.65,1.56.71,1.63.82.18.22.23.35.32,1.03.08.61.24,2.76.23,3.41,0,.31-.07.5-.18.54-.12.05-.41-.05-3.47-.76-2.26-.53-2.85-.61-3.53-.54-.78.08-.86.51-.61,2.86.2,1.97.39,2.45.96,2.69.21.09.51.09,2.95.15,2.62.07,2.7.09,2.84.17.1.04.18.12.26.27.08.15.09.23.14.86.03.37.06.95.07,1.24,0,.29.02.95.06,1.4.07.96,0,1.22-.28,1.42-.15.14-.91.35-2.3.66-2.71.59-3.08.72-3.4,1.06-.19.18-.25.55-.29,1.01-.04.42.15,2.67.26,3.05.15.51.52.72,1.13.7.51-.02,1.78-.42,2.86-.89.62-.27,1.21-.54,2.01-.83,1.05-.38,1.13-.4,1.26-.38.13.02.27.16.33.35.04.13.1.24.33,2.3.2,1.75.19,2.51-.01,2.92-.2.4-.41.61-1.95,1.66-2.59,1.77-3.51,2.27-4.39,2.69-.45.21-1.49.71-2.26,1.1-1.87.95-2.36,1.09-2.66.8-.23-.22-.22-.12-.66-5.15-.22-2.54-.54-6.2-.74-8.14Z"/>
      </g>
    </g>
  </g>
</svg>