<?xml version="1.0" encoding="UTF-8"?>
<svg id="Capa_2" data-name="Capa 2" xmlns="http://www.w3.org/2000/svg" viewBox="0 0 92.64 124.44">
  <defs>
    <style>
      .cls-1 {
        fill: #a41f25;
      }

      .cls-2 {
        fill: #e8dbca;
      }
    </style>
  </defs>
  <g id="Capa_1-2" data-name="Capa 1">
    <g>
      <path class="cls-2" d="M92.07,63.87c-.06-1.01-.12-1.95-.17-2.79-.05-.81-.09-1.67-.13-2.54-.1-2.09-.2-4.26-.41-6.25l-.03-.34c-.35-3.44-.77-7.55-4.4-10.72v-.3c.58-.61,1.13-1.27,1.6-1.97h0c2.58-3.85,3.29-8.83,1.95-13.68-1.03-3.72-3.1-6.9-5.87-9.13-2.09-11.96-12.69-14.13-16.88-14.99-15.17-3.11-37.86.15-52.76,7.56C10.34,11.04-.02,16.19,2.22,28.96c-1.07,1.69-1.78,3.7-2.07,5.94-.64,4.96.78,10.37,3.64,13.77,1.22,1.46,2.73,2.42,3.94,3.2.17.11.38.24.57.37.06.18.12.38.18.59-.9,1.89-1.75,4.46-1.31,7.94l.07.55.17.52c.93,2.93,1.84,5.94,2.72,8.86,1.32,4.37,2.68,8.89,4.17,13.32.25.74.48,1.53.73,2.34,1.25,4.18,3.02,10.12,7.85,13.33.31,1.37.64,2.71.96,4.03.29,1.17.57,2.34.84,3.51.18.78.29,1.5.4,2.2.6,3.77,1.51,7.17,6.59,10.51,5.04,3.31,12.28,4.52,19.53,4.52,5.33,0,10.66-.65,15.12-1.61,6.49-1.39,18.13-4.9,23.22-12.88,3.32-5.21,1.89-12.75.62-19.41-.1-.55-.21-1.09-.3-1.6,1.21-1.69,2.19-3.68,2.52-6.24.63-4.8.11-12.91-.27-18.83Z"/>
      <g>
        <path class="cls-1" d="M83.57,35.64c-.65.97-1.84,2.03-2.73,2.79l.24,6.06c3.77,1.85,3.93,4.42,4.34,8.42.27,2.64.36,5.8.51,8.52.31,5.42,1.13,15.5.48,20.5-.29,2.23-1.52,3.77-2.92,5.3.59,5,3.68,15.27.97,19.52-7.2,11.29-38.79,15.25-49.54,8.19-4.2-2.77-3.44-4.6-4.45-9.03-.78-3.43-1.74-6.83-2.36-10.29-5.39-1.56-6.53-8.57-8.18-13.5-2.45-7.29-4.52-14.75-6.85-22.09-.24-1.96.13-3.36.98-5.04.19-.38.86-.63.89-1.05.02-.25-1.19-4.32-1.38-4.8-.64-1.55-3.81-2.64-5.21-4.31-2.88-3.43-3.62-11.43.4-14.27-2.93-9.18,1.97-13.04,8.87-16.48,13.03-6.49,34.6-9.98,48.9-7.06,6.98,1.43,12.1,4.04,12.45,12.61,5.53,2.62,8.09,10.79,4.59,16.01ZM67.81,13.48c.53-.74-3.12-1.98-3.5-2.1-11.79-3.63-33.83.16-44.42,6.34-1.26.74-3.86,2.37-3.84,4.06,1.02-.49,1.85-1.32,2.89-1.84,9.41-4.76,26.16-7.26,36.67-7.5,4.06-.09,8.23.08,12.2,1.04ZM18.44,27.49c-.87,1.04,3.85,1.86,4.19,1.92,12.59,2.36,39.64-2.08,48.53-12.46,1.86-2.17,1-4.06-1.77-3.69,2.21,4.19-5.97,7.23-8.79,8.27-7.51,2.79-15.96,3.96-23.84,5.17l-18.31.78ZM54.38,18.42c.56-1.1-3.15-1.17-3.57-1.19-4.76-.16-18.45,1.33-22.25,3.97-.22.15-.79.66-.62.84,3.29,1.63,25.55-1.92,26.43-3.63ZM21.13,26.09c-1.03.06-2.06-.39-3-.79-.69-.29-3.55-2.37-3.64-.88s4.54,2.2,5.59,2.15c.35-.02,1.21.09,1.05-.48ZM11.12,32.63c-2.26,2.45.62,3.61,2.51,4.31,9.15,3.42,29.68,1.34,39.18-.74,6.47-1.42,18.94-4.02,23.91-8.09,1.87-1.53,3.82-3.71.45-4.89-.56,3.56-5.65,5.77-8.53,7-12.24,5.26-42.91,10.59-55.2,4.57-.94-.46-2.14-.93-2.32-2.16ZM73.61,32.32c-14.61,5.62-30.32,9.05-46.02,8.63-3.4-.09-6.84-.81-10.14-.94-.23,0-1.23-.37-1.08.34.18.89,5.5,2.26,6.5,2.47,14.64,3.13,37.21-.31,49.53-9.24.45-.32,1.12-.61,1.21-1.26ZM77.91,40.33c-15.45,9.47-36.03,13.2-53.84,10.46-2.35-.36-4.76-.88-7-1.76-.25-.05-.13.28-.09.53.17,1.04,2.12,7.45,2.57,8.06,1.53,2.07,13.8,3.47,16.55,3.55,11.8.34,24.2-1.97,34.89-7.15,1.45-.7,6.19-3.11,7.09-4.11.8-.89.05-2.7-.02-3.92-.1-1.86-.17-3.8-.14-5.66ZM31.41,96.3c-.27.41,2.28,8.75,2.69,9.7.84,1.92,6,3.28,7.95,3.65,10.24,1.95,22.54-.34,31.8-4.97,1.74-.87,8.06-4.53,8.14-6.56.12-2.75-1.21-6.79-1.63-9.58-14.21,9.02-32.66,11.26-48.95,7.76Z"/>
        <path class="cls-1" d="M73.41,103.27c1.34-2.67,1.2-5.5,1.25-8.45l3.96-2.59c1.43,4.95-.76,9.45-5.21,11.04Z"/>
        <path class="cls-1" d="M75.76,43.38l.35,3.74c-1.09,1.23-2.43,2.15-3.96,2.61-.7-1.24-.15-2.47.21-3.73l3.4-2.62Z"/>
      </g>
    </g>
  </g>
</svg>