<?xml version="1.0" encoding="UTF-8"?>
<svg id="Capa_2" data-name="Capa 2" xmlns="http://www.w3.org/2000/svg" viewBox="0 0 236.26 161.08">
  <defs>
    <style>
      .cls-1 {
        fill: #a41f25;
      }

      .cls-2 {
        fill: #e8dbca;
      }
    </style>
  </defs>
  <g id="Capa_1-2" data-name="Capa 1">
    <g>
      <g>
        <path class="cls-2" d="M213.19,48.37c-66.28-12.71-123.88,33.51-190.13,20.8C9.41,64.2.71,49.85,0,35.7h0c0-12.74,10.33-16.39,23.07-12.66C89.31,35.74,146.91-10.48,213.19,2.24c13.66,4.97,22.36,19.32,23.07,33.46h0c0,12.74-10.33,16.39-23.07,12.67Z"/>
        <g>
          <path class="cls-1" d="M17.68,59.37c.06-.35.22-1.09.28-1.56.07-.52.22-1.42.33-1.92.28-1.27.51-2.64.66-3.66.08-.53.24-1.2.29-1.52.05-.32.14-.81.19-1.07.05-.27.17-.82.24-1.25.06-.37.26-1.08.33-1.46.13-.73.64-3.23.95-4.53.45-1.92.57-2.62.71-3.24.05-.32.17-1.16.28-1.81.11-.6.29-1.48.38-1.93.28-2.05.43-2.72.66-3.79.38-1.74.53-2.14.95-2.2.46-.07,4.38.82,7.22,1.43,2.09.45,2.47.55,2.71.72.18.13.33.48.33.72,0,.14.12.65.24,1.18.11.51.19,1.22.24,1.51.05.29.12.8.14,1.07.02.22.09,1.11.14,1.83.17,2.44.38,3.58,1.19,7.86.43,2.29.61,3.46.9,5.39.42,2.75.95,5.49,1.66,8.18.29,1.03.64,3.65.76,4.55.04.3.05.91,0,1.09-.14.27-.34.3-.85.24-5.44-.63-5.27-.78-5.65-.99-.24-.13-.32-.45-.47-1.51-.13-.92-.43-2.55-.62-3.44-.14-.69-.68-1.55-1.19-1.89-.47-.32-.66-.36-2.42-.76-1.57-.36-1.64-.4-2.09-.41-.64,0-1,.12-1.24.34-.09.12-.24.27-.28.4-.1.16-.49,2.06-.62,2.96-.15,1.08-.43,2.02-.62,2.15-.19.13-.53.1-1.66-.35-.52-.21-1.12-.42-1.28-.45-.26-.05-2.18-.65-2.33-.65-.14-.05-.29-.1-.38-.18-.24-.23-.21-.34-.09-1.03ZM26.04,47.14c0,.28.14.7.33.84.09.07.22.08.62.15.27.05,1.09.26,1.81.42,1.14.25,1.28.23,1.38.2.19-.1.29-.32.29-.65,0-.43-.18-1.86-.29-2.39-.17-.83-.47-2.33-.57-3.06-.33-2.07-.47-2.67-.71-3.15-.24-.48-.71-.68-1.09-.49-.24.13-.33.35-.57,1.43-.05.42-.24,1.18-.33,1.68-.38,1.71-.86,4.54-.86,5.01Z"/>
          <path class="cls-1" d="M53.53,41.05c.28,1.61.52,3.02.57,3.21.14.57.38.69.76.54.28-.11.41-.37.62-1.5.1-.56.38-2.21.66-3.6.29-1.43.64-3.19.76-3.89.11-.65.28-1.44.33-1.68.14-.34.21-.44.43-.69.29-.33.47-.46,1.23-.71.33-.12.59-.16,1.76-.29,1.53-.17,5.67-.55,6.13-.55.5,0,.77.14.9.45.1.22.12.34.14,1.79.01.84.05,2.13.09,2.84.05.8.05,2.98.05,5.36,0,3.7.04,5.08-.14,8.76-.04.76-.07,2.64-.05,4.09.02,1.44.05,3.98.05,5.6,0,2.9,0,2.99-.09,3.2-.24.51-.38.59-2.61.87-1.66.2-2.05.2-2.61.11-.33-.05-.46-.22-.57-.46-.07-.17-.09-.47-.09-3.17,0-2.9.06-7.27.19-12.03.04-1.32.05-2.9.05-3.42,0-.86,0-.95-.09-1.08-.19-.31-.52-.33-.76-.02-.57.62-1.71,5.85-1.9,6.86-.05.24-.19.92-.33,1.45-.33,1.4-.59,2.38-.71,3-.26,1.27-.42,1.72-.57,1.8-.13.07-3.42.42-4.65.46-.81.02-1.47-.02-1.71-.15-.05,0-.14-.09-.19-.19-.14-.33-.66-2.61-1.14-5.17-.52-2.8-.99-5-1.33-5.99-.32-.95-.43-1.1-.71-1.1-.14,0-.19.04-.24.14-.14.24-.18,2.29-.14,8.93.06,11,.05,10.69-.19,10.92-.14.14-.81.19-3.13.07-1.66-.09-2.28-.2-2.37-.25-.05,0-.14-.11-.19-.21-.1-.1-.14-.25-.14-.96,0-.81,0-3.37.14-7.64.03-1.03.07-5.24.1-9.3.02-4.01.07-8,.1-8.73.05-1.37,0-3.04.1-4.36.04-.61.22-.83.66-1.04.37-.18,1.04-.31,2.14-.3.5,0,1,0,1.04,0,.19-.04,2.34.03,3.37.12,1.36.12,1.76.14,2.09.28.85.32,1.23,1.69,2.23,7.69Z"/>
          <path class="cls-1" d="M71.67,51.15c-.05-2.12-.09-5.45-.09-9.96,0-8.22.05-9.76.33-10.17.23-.32-.03-.17,5.41-1.33,5.57-1.18,6.15-1.33,9.12-2.03,1.98-.47,2.14-.53,2.23-.46.24.13.28.26.33,1.15.04.79,0,3.71-.1,4.63-.05.44-.17.75-.33.89-.19.16-.64.32-4.84,1.22-3.13.67-3.9.82-4.84,1.21-1.09.45-1.24.92-1.19,3.28.04,1.98.24,2.42,1,2.5.28.04.66-.01,4.08-.79,3.66-.83,3.8-.9,3.99-.85.14.01.24.08.33.25.09.17.09.26.09,1.07,0,.47-.03,1.22-.05,1.58-.02.37-.08,1.22-.1,1.78-.02,1.22-.14,1.55-.57,1.85-.24.2-1.34.56-3.32,1.07-3.88,1-4.37,1.14-4.84,1.53-.29.2-.41.6-.52,1.06-.11.44-.11,2.71,0,3.09.15.51.63.74,1.47.74.7,0,2.52-.36,4.08-.8.9-.26,1.77-.52,2.94-.79,1.54-.35,1.66-.36,1.85-.31.19.05.37.25.43.51.04.17.11.33.19,3.09.06,2.34-.05,3.34-.38,3.75-.33.42-.67.56-2.99,1.16-3.89,1.02-5.19,1.3-6.46,1.49-.65.1-2.14.34-3.23.55-2.66.51-3.33.55-3.71.24-.28-.24-.28-.14-.28-4.75,0-2.33,0-5.68-.05-7.45Z"/>
          <path class="cls-1" d="M91.95,51.91c0-3.51,0-7.23.05-13.88.04-4.99.05-9.61.05-10.27q0-1.19.09-1.35c.19-.24.44-.34,1.38-.65,1.32-.44,7.42-2.16,8.4-2.37,2.21-.47,3.09-.58,4.23-.54,3.23.22,5.18,2.51,5.51,5.78.05.6.05,1.98,0,2.61-.29,2.89-1.71,6.32-4.04,8.74-.52.54-.76.86-.9,1.32-.13.42-.1,1.08.14,1.67.19.46,1,2.07,1.71,3.38.33.61,2.37,3.88,2.85,4.68.9,1.29,1,1.97.38,2.5-.14.14-.35.23-1.42.63-1.11.41-3.49,1.09-4.37,1.33-.19.05-.63.16-.95.24-.85.21-1.24.13-1.42-.19-.33-.61-1.36-2.56-2.52-5.1-.91-1.99-1-2.18-1.52-2.93-.33-.47-.43-.59-.57-.6-.24-.03-.38.06-.47.28-.14.42-.19,1.24-.19,5.09,0,3.42,0,3.9-.09,4.25-.15.6-.24.85-.47,1.04-.3.24-1.61.7-3.18,1.12-1.42.39-1.61.44-1.99.35-.19-.09-.52-.34-.57-.51,0-.05-.05-.51-.05-.94v-5.65s-.03,0-.05.01ZM97.98,37.39c.15.8.42,1.03.95,1.01.26,0,1.33-.33,1.85-.58,1.61-.8,3.63-2.03,3.89-4,.1-.78-.14-1.48-.67-1.84-.76-.53-1.76-.47-3.99.17-.48.16-.71.23-1.19.39-.09.08-.14.13-.24.21-.29.27-.41.57-.52,1.1-.12.55-.19,3.05-.1,3.54Z"/>
          <path class="cls-1" d="M121.06,26.7c0,.71.06,1.85.09,2.44.09,1.7.07,10.94,0,13.25-.03,1.05-.12,3.19-.14,4.7-.04,2.81-.04,3.07-.24,3.45-.18.34-.33.44-1.66.9-1.52.52-2.72.88-3.18.94-.89.12-1.17-.07-1.28-1.07-.08-.77.05-18.58.19-22.85.09-2.83.13-5,.14-6.36.02-1.98-.02-1.94,1.57-2.48.55-.19,1.63-.54,2.33-.77,1.46-.48,1.66-.52,1.9-.35.08.03.11.05.19.08v1.28c0,.71.02,2.29.05,3.45.02,1.15.05,2.69.05,3.4Z"/>
          <path class="cls-1" d="M125.52,43.37c-.47-.8-.66-1.27-.9-2-.62-1.95-.82-3.61-.76-6.79.08-4.58.81-10.08,3.66-14.66,2.34-3.75,6.7-6.58,10.45-7.65,2.66-.76,6.55-1.23,7.88.94.24.41.18.71-.28,1.4-.38.57-1.57,2.79-2.14,3.98-.19.43-.43.83-.52.95-.24.25-.38.24-.81.03-1.28-.74-3.05-.91-4.65-.41-4.9,1.54-7.01,7.34-7.12,11.68-.02.89-.05,1.25.05,1.65.47,2.75,2.75,4.49,5.7,4.11.62-.04.76-.08,1.9-.4,1.57-.45,3.56-1.33,5.03-2.25.62-.36.79-.4,1-.27.18.12.28.41.43,1.12.13.62.62,2.59.86,3.34.14.34.23.8.29,1.02.04.17.18.6.24.79.08.27.09.55.09.64-.14.61-2.18,2.3-4.04,3.45-1.7,1.05-3.51,1.87-5.27,2.38-4.75,1.37-8.88.64-11.02-3.07-.02,0-.03,0-.05.01Z"/>
          <path class="cls-1" d="M146.84,42.35c.06-.38.22-1.21.28-1.73.07-.55.22-1.54.33-2.13.28-1.42.51-2.95.66-4.06.08-.59.24-1.34.29-1.69.05-.34.14-.89.19-1.19.05-.3.17-.93.24-1.39.07-.43.26-1.22.33-1.65.13-.79.64-3.59.95-5.08.45-2.16.57-2.94.71-3.64.05-.34.17-1.26.28-1.97.11-.68.29-1.63.38-2.13.29-2.21.43-2.95.66-4.15.38-1.94.52-2.41.95-2.69.46-.3,4.38-1.32,7.22-1.81,2.08-.36,2.48-.35,2.71-.26.18.07.33.37.33.61,0,.14.12.62.24,1.1.11.48.19,1.16.24,1.43.05.28.12.76.14,1.02.02.22.09,1.08.14,1.78.17,2.38.38,3.45,1.19,7.5.43,2.16.61,3.28.9,5.13.42,2.63.95,5.22,1.66,7.73.29.96.63,3.47.76,4.36.04.28.05.9,0,1.09-.14.31-.33.38-.86.45-5.44.77-5.28.81-5.65.74-.24-.05-.32-.33-.47-1.34-.13-.87-.43-2.39-.62-3.21-.14-.63-.68-1.29-1.19-1.44-.47-.13-.66-.12-2.42.25-1.57.32-1.64.33-2.09.54-.65.3-1,.6-1.24.94-.09.16-.24.38-.28.54-.1.21-.49,2.3-.62,3.27-.15,1.16-.43,2.23-.62,2.47-.19.23-.53.36-1.66.53-.52.08-1.1.2-1.28.26-.25.09-2.18.64-2.33.72-.14.04-.29.07-.38.05-.24-.08-.21-.2-.09-.97ZM155.2,25.54c0,.28.14.63.33.69.09.03.21-.02.62-.13.27-.07,1.09-.23,1.81-.38,1.14-.23,1.28-.31,1.38-.37.19-.18.29-.44.29-.77,0-.43-.18-1.78-.29-2.27-.16-.75-.47-2.14-.57-2.83-.33-1.93-.47-2.47-.71-2.85-.24-.38-.71-.38-1.09-.01-.24.24-.33.5-.57,1.69-.05.44-.24,1.29-.33,1.83-.38,1.89-.86,4.93-.86,5.41Z"/>
          <path class="cls-1" d="M170.92,16.68c0-2.19-.05-5.36-.05-7.07,0-2.85.02-3.14.09-3.34.11-.27.24-.47.47-.58.27-.13,7.47-.72,7.83-.67.27.04.66.2.81.33.33.36,1.61,3.24,2.42,5.5.81,2.25,1.66,4.53,2.52,6.78,1.03,2.69,1.04,2.75,1.09,2.84s.14-5.98.14-10.92c0-4.51,0-4.42.28-4.7.29-.28.47-.3,2.61-.25,1.61.04,2.04.07,2.33.18.71.18.86.28,1,.77.05.24.05,1.38.05,15.48v15.2c-.04.15-.06.22-.09.37-.19.65-.59.89-1.61.92-.97.03-4.68.07-5.84.06-.93-.01-1.14-.03-1.47-.11-1.09-.31-1.28-.63-2.14-3.39-.28-.98-.67-2.35-.85-2.95-.2-.65-.52-1.87-.76-2.67-.24-.79-.57-2.01-.76-2.66-.76-2.66-1.52-5.26-1.99-6.65-.1-.42-.12-.11-.1,1.53.01.89.03,3,.05,4.6.05,4.55.14,8.3.14,10.25v1.81c-.06.1-.09.15-.14.25-.1.15-.19.25-.29.31-.38.22-3.99.62-4.51.54-.9-.14-1.07-.74-1.14-3.95-.04-1.84-.09-12.81-.09-17.8Z"/>
          <path class="cls-1" d="M220.97,26.72c.02,3.18-.18,4.76-.81,6.95-.64,2.24-1.57,4.01-2.8,5.2-1.99,1.97-6.08,2.3-9.31,1.56-3.23-.74-7.28-2.57-9.4-5.4-2.38-3.17-3.43-7.44-3.32-13.31.09-5.07.95-10.1,4.7-13.34,2.52-2.17,5.08-2.75,8.6-1.92,1.99.47,3.75,1.52,5.56,3.02,5.7,4.59,6.75,11.4,6.79,17.24ZM214.51,22.92c0-4.27-1.28-9.62-6.51-10.82-1.04-.24-2.14-.28-3.09.02-2.71,1.09-3.35,5.71-3.51,8.47-.17,2.9.28,5.13,1.47,7.12.98,1.64,2.61,2.68,4.8,3.17,4.23.95,6.08-.74,6.65-4.69.09-.92.19-2.51.19-3.26Z"/>
        </g>
      </g>
      <g>
        <path class="cls-2" d="M134.64,113.37c-1.48-8.66-7.47-15.46-16.42-18.96-.79-2.03-2.06-4.24-4.01-6.52-13.2-15.51-44.88-22.25-61.74-22.86-7.91-.29-22.26.36-29.49,7.91-3.26,3.4-3.98,6.71-4.46,8.9-.08.37-.17.77-.28,1.2-7.42,28.29-4.53,49.82,8.34,62.27,6.62,6.4,16.99,11.29,27.82,13.83,9.68,2.27,19.73,2.66,27.79.56,6.79-1.77,12.84-5.45,18.39-11.22,2.54.05,5.31-.02,8.25-.57,17.22-3.24,28.55-18.41,25.8-34.54Z"/>
        <g>
          <path class="cls-1" d="M112.45,100.56c7.66,1.58,14.79,6.09,16.18,14.25,2.17,12.73-7.73,23.42-19.72,25.67-3.7.7-7.26.4-10.99.32-4.73,5.73-10.3,10.3-17.61,12.2-14.59,3.8-38.8-2.31-49.69-12.83-14.22-13.74-10.76-39.24-6.26-56.44.72-2.73.64-4.41,2.72-6.57,4.87-5.09,17.28-5.72,23.98-5.47,16.73.61,46.94,7.59,58.17,20.78,1.89,2.22,3.58,5.07,3.21,8.1ZM65.49,77.53c-7.76-1.47-23.57-3.35-30.58.64-3.23,1.84-3.76,4.15-1.39,7.07.22.11,1.83-1.17,2.3-1.42,10.72-5.63,37.3.59,48.21,4.68,6.66,2.5,14.75,6.21,18.29,12.64,4.04-2.12,2.5-5.52.06-8.22-7.53-8.33-26.07-13.34-36.88-15.39ZM65.31,89.01c-6.53-1.81-13.37-2.26-19.9-.36-.31.09-3.79,1.15-3.56,1.51l5.18,2.41c2.56-1.17,5.27-1.97,8.02-2.56l10.27-1ZM91.01,97.27c-8.75-3.51-18.59-4.24-27.86-2.89l-7.45,1.99,7.45,2.19c8.85-2.68,17.91-3.03,27-1.25.28.06.83.38.87-.04ZM28.71,84.12c-1.62,8.81,8.72,14.65,15.55,17.64,14.42,6.31,43.27,12.92,58.23,6.44,2.53-1.09,6.35-3.38,7.16-6.19.27-.96-.79.47-1.01.63-13.65,9.64-47.21,1.24-61.51-4.65-7.19-2.97-14.57-6.81-18.41-13.86ZM115.89,105.32c-1.07-.35-2.31-.47-3.39-.8l-.6,2.57,4.09.96c1.9.45,3.88,2.62,5.43,3.23,1.58.62,2.09-.06,1.23-1.42-1.13-1.81-4.76-3.88-6.76-4.55ZM114.67,113.67c-1.15-.48-2.87-.52-4.09-.96-1.51,5.73-3.42,11.36-5.91,16.74,6.59,2.29,12.92-2.34,13.74-9.11.31-2.53-1.37-5.68-3.74-6.67ZM37.66,134.32c-4.41-10.09-3-21.58-.89-32.11l-5.46-3.9c-2.33,10.73-2.96,24.6,4.05,33.75.23.3,2.1,2.38,2.3,2.27ZM110.59,133.68c-2.59-.21-5.19.27-7.73-.55l-1.04,2.19c1.64.29,3.46.28,5.1,0,.32-.05,4.16-.97,3.67-1.65Z"/>
          <path class="cls-1" d="M112.45,100.56c7.66,1.58,14.79,6.09,16.18,14.25,2.17,12.73-7.73,23.42-19.72,25.67-3.7.7-7.26.4-10.99.32-4.73,5.73-10.3,10.3-17.61,12.2-14.59,3.8-38.8-2.31-49.69-12.83-14.22-13.74-10.76-39.24-6.26-56.44.72-2.73.64-4.41,2.72-6.57,4.87-5.09,17.28-5.72,23.98-5.47,16.73.61,46.94,7.59,58.17,20.78,1.89,2.22,3.58,5.07,3.21,8.1ZM65.49,77.53c-7.76-1.47-23.57-3.35-30.58.64-3.23,1.84-3.76,4.15-1.39,7.07.22.11,1.83-1.17,2.3-1.42,10.72-5.63,37.3.59,48.21,4.68,6.66,2.5,14.75,6.21,18.29,12.64,4.04-2.12,2.5-5.52.06-8.22-7.53-8.33-26.07-13.34-36.88-15.39ZM65.31,89.01c-6.53-1.81-13.37-2.26-19.9-.36-.31.09-3.79,1.15-3.56,1.51l5.18,2.41c2.56-1.17,5.27-1.97,8.02-2.56l10.27-1ZM91.01,97.27c-8.75-3.51-18.59-4.24-27.86-2.89l-7.45,1.99,7.45,2.19c8.85-2.68,17.91-3.03,27-1.25.28.06.83.38.87-.04ZM28.71,84.12c-1.62,8.81,8.72,14.65,15.55,17.64,14.42,6.31,43.27,12.92,58.23,6.44,2.53-1.09,6.35-3.38,7.16-6.19.27-.96-.79.47-1.01.63-13.65,9.64-47.21,1.24-61.51-4.65-7.19-2.97-14.57-6.81-18.41-13.86ZM115.89,105.32c-1.07-.35-2.31-.47-3.39-.8l-.6,2.57,4.09.96c1.9.45,3.88,2.62,5.43,3.23,1.58.62,2.09-.06,1.23-1.42-1.13-1.81-4.76-3.88-6.76-4.55ZM114.67,113.67c-1.15-.48-2.87-.52-4.09-.96-1.51,5.73-3.42,11.36-5.91,16.74,6.59,2.29,12.92-2.34,13.74-9.11.31-2.53-1.37-5.68-3.74-6.67ZM37.66,134.32c-4.41-10.09-3-21.58-.89-32.11l-5.46-3.9c-2.33,10.73-2.96,24.6,4.05,33.75.23.3,2.1,2.38,2.3,2.27ZM110.59,133.68c-2.59-.21-5.19.27-7.73-.55l-1.04,2.19c1.64.29,3.46.28,5.1,0,.32-.05,4.16-.97,3.67-1.65Z"/>
        </g>
      </g>
    </g>
  </g>
</svg>